<mxfile host="app.diagrams.net" agent="Mozilla/5.0 (Windows NT 10.0; Win64; x64) AppleWebKit/537.36 (KHTML, like Gecko) Chrome/141.0.0.0 Safari/537.36" version="28.2.7">
  <diagram name="Page-1" id="BcZ4b10Lv8bWHi4qfx53">
    <mxGraphModel dx="-35" dy="425" grid="1" gridSize="10" guides="1" tooltips="1" connect="1" arrows="1" fold="1" page="1" pageScale="1" pageWidth="850" pageHeight="1100" math="0" shadow="0">
      <root>
        <mxCell id="0" />
        <mxCell id="1" parent="0" />
        <mxCell id="QewrAQwP1Hr6pBMhre-_-153" value="" style="group" vertex="1" connectable="0" parent="1">
          <mxGeometry x="1059" y="39" width="433" height="100.44" as="geometry" />
        </mxCell>
        <mxCell id="YX7qqXvMDz940lAwbusx-1" value="" style="rounded=0;whiteSpace=wrap;html=1;" parent="QewrAQwP1Hr6pBMhre-_-153" vertex="1">
          <mxGeometry x="3" width="430" height="99.44" as="geometry" />
        </mxCell>
        <mxCell id="YX7qqXvMDz940lAwbusx-2" value="" style="endArrow=none;html=1;rounded=0;" parent="QewrAQwP1Hr6pBMhre-_-153" edge="1">
          <mxGeometry width="50" height="50" relative="1" as="geometry">
            <mxPoint x="273" as="sourcePoint" />
            <mxPoint x="273" y="99" as="targetPoint" />
          </mxGeometry>
        </mxCell>
        <mxCell id="YX7qqXvMDz940lAwbusx-3" value="" style="endArrow=diamondThin;html=1;rounded=0;endFill=0;" parent="QewrAQwP1Hr6pBMhre-_-153" edge="1">
          <mxGeometry width="50" height="50" relative="1" as="geometry">
            <mxPoint x="19" y="26.439999999999998" as="sourcePoint" />
            <mxPoint x="149" y="26.439999999999998" as="targetPoint" />
          </mxGeometry>
        </mxCell>
        <mxCell id="YX7qqXvMDz940lAwbusx-4" value="" style="endArrow=diamondThin;html=1;rounded=0;endFill=0;" parent="QewrAQwP1Hr6pBMhre-_-153" edge="1">
          <mxGeometry width="50" height="50" relative="1" as="geometry">
            <mxPoint x="159" y="26.439999999999998" as="sourcePoint" />
            <mxPoint x="259" y="26.439999999999998" as="targetPoint" />
          </mxGeometry>
        </mxCell>
        <mxCell id="YX7qqXvMDz940lAwbusx-6" value="" style="endArrow=diamondThin;html=1;rounded=0;startArrow=diamondThin;startFill=0;endFill=0;" parent="QewrAQwP1Hr6pBMhre-_-153" edge="1">
          <mxGeometry width="50" height="50" relative="1" as="geometry">
            <mxPoint x="18" y="55.44" as="sourcePoint" />
            <mxPoint x="59" y="55.44" as="targetPoint" />
          </mxGeometry>
        </mxCell>
        <mxCell id="YX7qqXvMDz940lAwbusx-10" value="" style="whiteSpace=wrap;html=1;aspect=fixed;rounded=0;shadow=0;glass=0;dashed=1;strokeColor=default;strokeWidth=0.5;align=center;verticalAlign=middle;fontFamily=Helvetica;fontSize=12;fontColor=default;fillColor=default;dashPattern=1 2;" parent="QewrAQwP1Hr6pBMhre-_-153" vertex="1">
          <mxGeometry x="20" y="73.44" width="15" height="15" as="geometry" />
        </mxCell>
        <mxCell id="YX7qqXvMDz940lAwbusx-11" value="" style="whiteSpace=wrap;html=1;aspect=fixed;rounded=0;shadow=0;glass=0;dashed=1;dashPattern=1 2;strokeColor=default;strokeWidth=0.5;align=center;verticalAlign=middle;fontFamily=Helvetica;fontSize=12;fontColor=default;fillColor=default;" parent="QewrAQwP1Hr6pBMhre-_-153" vertex="1">
          <mxGeometry x="40" y="73.44" width="15" height="15" as="geometry" />
        </mxCell>
        <mxCell id="YX7qqXvMDz940lAwbusx-13" value="" style="whiteSpace=wrap;html=1;aspect=fixed;rounded=0;shadow=0;glass=0;dashed=1;dashPattern=1 2;strokeColor=default;strokeWidth=0.5;align=center;verticalAlign=middle;fontFamily=Helvetica;fontSize=12;fontColor=default;fillColor=default;" parent="QewrAQwP1Hr6pBMhre-_-153" vertex="1">
          <mxGeometry x="80" y="73.44" width="15" height="15" as="geometry" />
        </mxCell>
        <mxCell id="YX7qqXvMDz940lAwbusx-14" value="" style="whiteSpace=wrap;html=1;aspect=fixed;rounded=0;shadow=0;glass=0;dashed=1;dashPattern=1 2;strokeColor=default;strokeWidth=0.5;align=center;verticalAlign=middle;fontFamily=Helvetica;fontSize=12;fontColor=default;fillColor=default;" parent="QewrAQwP1Hr6pBMhre-_-153" vertex="1">
          <mxGeometry x="100" y="73.44" width="15" height="15" as="geometry" />
        </mxCell>
        <mxCell id="YX7qqXvMDz940lAwbusx-15" value="" style="whiteSpace=wrap;html=1;aspect=fixed;rounded=0;shadow=0;glass=0;dashed=1;dashPattern=1 2;strokeColor=default;strokeWidth=0.5;align=center;verticalAlign=middle;fontFamily=Helvetica;fontSize=12;fontColor=default;fillColor=default;" parent="QewrAQwP1Hr6pBMhre-_-153" vertex="1">
          <mxGeometry x="120" y="73.44" width="15" height="15" as="geometry" />
        </mxCell>
        <mxCell id="YX7qqXvMDz940lAwbusx-16" value="" style="whiteSpace=wrap;html=1;aspect=fixed;rounded=0;shadow=0;glass=0;dashed=1;dashPattern=1 2;strokeColor=default;strokeWidth=0.5;align=center;verticalAlign=middle;fontFamily=Helvetica;fontSize=12;fontColor=default;fillColor=default;" parent="QewrAQwP1Hr6pBMhre-_-153" vertex="1">
          <mxGeometry x="140" y="73.44" width="15" height="15" as="geometry" />
        </mxCell>
        <mxCell id="YX7qqXvMDz940lAwbusx-17" value="" style="whiteSpace=wrap;html=1;aspect=fixed;rounded=0;shadow=0;glass=0;dashed=1;dashPattern=1 2;strokeColor=default;strokeWidth=0.5;align=center;verticalAlign=middle;fontFamily=Helvetica;fontSize=12;fontColor=default;fillColor=default;" parent="QewrAQwP1Hr6pBMhre-_-153" vertex="1">
          <mxGeometry x="160" y="73.44" width="15" height="15" as="geometry" />
        </mxCell>
        <mxCell id="YX7qqXvMDz940lAwbusx-18" value="" style="whiteSpace=wrap;html=1;aspect=fixed;fontStyle=1;rounded=0;shadow=0;glass=0;dashed=1;dashPattern=1 2;strokeColor=default;strokeWidth=0.5;align=center;verticalAlign=middle;fontFamily=Helvetica;fontSize=12;fontColor=default;fillColor=default;" parent="QewrAQwP1Hr6pBMhre-_-153" vertex="1">
          <mxGeometry x="180" y="73.44" width="15" height="15" as="geometry" />
        </mxCell>
        <mxCell id="YX7qqXvMDz940lAwbusx-19" value="" style="whiteSpace=wrap;html=1;aspect=fixed;fontStyle=1;rounded=0;shadow=0;glass=0;dashed=1;dashPattern=1 2;strokeColor=default;strokeWidth=0.5;align=center;verticalAlign=middle;fontFamily=Helvetica;fontSize=12;fontColor=default;fillColor=default;" parent="QewrAQwP1Hr6pBMhre-_-153" vertex="1">
          <mxGeometry x="200" y="73.44" width="15" height="15" as="geometry" />
        </mxCell>
        <mxCell id="YX7qqXvMDz940lAwbusx-20" value="" style="endArrow=diamondThin;html=1;rounded=0;startArrow=diamondThin;startFill=0;endFill=0;" parent="QewrAQwP1Hr6pBMhre-_-153" edge="1">
          <mxGeometry width="50" height="50" relative="1" as="geometry">
            <mxPoint x="67" y="55.44000000000001" as="sourcePoint" />
            <mxPoint x="107" y="55.44000000000001" as="targetPoint" />
          </mxGeometry>
        </mxCell>
        <mxCell id="YX7qqXvMDz940lAwbusx-21" value="" style="endArrow=diamondThin;html=1;rounded=0;startArrow=diamondThin;startFill=0;endFill=0;" parent="QewrAQwP1Hr6pBMhre-_-153" edge="1">
          <mxGeometry width="50" height="50" relative="1" as="geometry">
            <mxPoint x="115" y="55.44000000000001" as="sourcePoint" />
            <mxPoint x="156" y="55.44000000000001" as="targetPoint" />
          </mxGeometry>
        </mxCell>
        <mxCell id="YX7qqXvMDz940lAwbusx-22" value="" style="endArrow=diamondThin;html=1;rounded=0;startArrow=diamondThin;startFill=0;endFill=0;" parent="QewrAQwP1Hr6pBMhre-_-153" edge="1">
          <mxGeometry width="50" height="50" relative="1" as="geometry">
            <mxPoint x="165" y="55.44000000000001" as="sourcePoint" />
            <mxPoint x="208" y="55.44000000000001" as="targetPoint" />
          </mxGeometry>
        </mxCell>
        <mxCell id="YX7qqXvMDz940lAwbusx-23" value="" style="endArrow=diamondThin;html=1;rounded=0;startArrow=diamondThin;startFill=0;endFill=0;" parent="QewrAQwP1Hr6pBMhre-_-153" edge="1">
          <mxGeometry width="50" height="50" relative="1" as="geometry">
            <mxPoint x="217" y="55.44000000000001" as="sourcePoint" />
            <mxPoint x="259" y="55.44000000000001" as="targetPoint" />
          </mxGeometry>
        </mxCell>
        <mxCell id="YX7qqXvMDz940lAwbusx-24" value="" style="whiteSpace=wrap;html=1;aspect=fixed;rounded=0;shadow=0;glass=0;dashed=1;dashPattern=1 2;strokeColor=default;strokeWidth=0.5;align=center;verticalAlign=middle;fontFamily=Helvetica;fontSize=12;fontColor=default;fillColor=default;" parent="QewrAQwP1Hr6pBMhre-_-153" vertex="1">
          <mxGeometry x="220" y="73.44" width="15" height="15" as="geometry" />
        </mxCell>
        <mxCell id="YX7qqXvMDz940lAwbusx-25" value="" style="whiteSpace=wrap;html=1;aspect=fixed;rounded=0;shadow=0;glass=0;dashed=1;dashPattern=1 2;strokeColor=default;strokeWidth=0.5;align=center;verticalAlign=middle;fontFamily=Helvetica;fontSize=12;fontColor=default;fillColor=default;" parent="QewrAQwP1Hr6pBMhre-_-153" vertex="1">
          <mxGeometry x="240" y="73.44" width="15" height="15" as="geometry" />
        </mxCell>
        <mxCell id="YX7qqXvMDz940lAwbusx-35" value="&lt;font face=&quot;Garamond&quot;&gt;Name&lt;/font&gt;" style="text;html=1;align=center;verticalAlign=middle;whiteSpace=wrap;rounded=0;fontSize=8;" parent="QewrAQwP1Hr6pBMhre-_-153" vertex="1">
          <mxGeometry y="17.439999999999998" width="60" height="30" as="geometry" />
        </mxCell>
        <mxCell id="YX7qqXvMDz940lAwbusx-36" value="&lt;font face=&quot;Garamond&quot;&gt;Class&lt;/font&gt;" style="text;html=1;align=center;verticalAlign=middle;whiteSpace=wrap;rounded=0;fontSize=8;" parent="QewrAQwP1Hr6pBMhre-_-153" vertex="1">
          <mxGeometry x="138.5" y="17.439999999999998" width="60" height="30" as="geometry" />
        </mxCell>
        <mxCell id="YX7qqXvMDz940lAwbusx-38" value="&lt;font face=&quot;Garamond&quot;&gt;Size&lt;/font&gt;" style="text;html=1;align=center;verticalAlign=middle;whiteSpace=wrap;rounded=0;fontSize=8;" parent="QewrAQwP1Hr6pBMhre-_-153" vertex="1">
          <mxGeometry x="28.75" y="56.22" width="17.5" height="10.44" as="geometry" />
        </mxCell>
        <mxCell id="YX7qqXvMDz940lAwbusx-39" value="&lt;font face=&quot;Garamond&quot;&gt;Hull&lt;/font&gt;" style="text;html=1;align=center;verticalAlign=middle;whiteSpace=wrap;rounded=0;fontSize=8;" parent="QewrAQwP1Hr6pBMhre-_-153" vertex="1">
          <mxGeometry x="74" y="56.22" width="27" height="10.44" as="geometry" />
        </mxCell>
        <mxCell id="YX7qqXvMDz940lAwbusx-40" value="&lt;font face=&quot;Garamond&quot;&gt;Speed&lt;/font&gt;" style="text;html=1;align=center;verticalAlign=middle;whiteSpace=wrap;rounded=0;fontSize=8;" parent="QewrAQwP1Hr6pBMhre-_-153" vertex="1">
          <mxGeometry x="121" y="56.22" width="29" height="10.44" as="geometry" />
        </mxCell>
        <mxCell id="YX7qqXvMDz940lAwbusx-41" value="&lt;font face=&quot;Garamond&quot;&gt;Armor&lt;/font&gt;" style="text;html=1;align=center;verticalAlign=middle;whiteSpace=wrap;rounded=0;fontSize=8;" parent="QewrAQwP1Hr6pBMhre-_-153" vertex="1">
          <mxGeometry x="172" y="56.22" width="29" height="10.44" as="geometry" />
        </mxCell>
        <mxCell id="YX7qqXvMDz940lAwbusx-42" value="&lt;font face=&quot;Garamond&quot;&gt;Shields&lt;/font&gt;" style="text;html=1;align=center;verticalAlign=middle;whiteSpace=wrap;rounded=0;fontSize=8;" parent="QewrAQwP1Hr6pBMhre-_-153" vertex="1">
          <mxGeometry x="225" y="56.22" width="27" height="10.44" as="geometry" />
        </mxCell>
        <mxCell id="QewrAQwP1Hr6pBMhre-_-47" value="" style="whiteSpace=wrap;html=1;aspect=fixed;rounded=0;shadow=0;glass=0;dashed=1;dashPattern=1 2;strokeColor=default;strokeWidth=0.5;align=center;verticalAlign=middle;fontFamily=Helvetica;fontSize=12;fontColor=default;fillColor=default;" vertex="1" parent="QewrAQwP1Hr6pBMhre-_-153">
          <mxGeometry x="60" y="73.44" width="15" height="15" as="geometry" />
        </mxCell>
        <mxCell id="QewrAQwP1Hr6pBMhre-_-154" value="" style="group" vertex="1" connectable="0" parent="1">
          <mxGeometry x="1062" y="138" width="430" height="100" as="geometry" />
        </mxCell>
        <mxCell id="UowAFhkovq7uENOn4qXg-101" value="" style="endArrow=none;html=1;rounded=0;exitX=0;exitY=0.25;exitDx=0;exitDy=0;entryX=0;entryY=0.25;entryDx=0;entryDy=0;strokeWidth=1;" parent="QewrAQwP1Hr6pBMhre-_-154" edge="1">
          <mxGeometry width="50" height="50" relative="1" as="geometry">
            <mxPoint y="1.4400000000000546" as="sourcePoint" />
            <mxPoint x="430" y="1.4400000000000546" as="targetPoint" />
          </mxGeometry>
        </mxCell>
        <mxCell id="UowAFhkovq7uENOn4qXg-102" value="" style="rounded=0;whiteSpace=wrap;html=1;" parent="QewrAQwP1Hr6pBMhre-_-154" vertex="1">
          <mxGeometry width="430" height="100" as="geometry" />
        </mxCell>
        <mxCell id="UowAFhkovq7uENOn4qXg-103" value="&lt;font face=&quot;Garamond&quot;&gt;Front&lt;/font&gt;" style="text;html=1;align=center;verticalAlign=middle;whiteSpace=wrap;rounded=0;rotation=-90;" parent="QewrAQwP1Hr6pBMhre-_-154" vertex="1">
          <mxGeometry x="-9.5" y="32.210000000000036" width="60" height="30" as="geometry" />
        </mxCell>
        <mxCell id="UowAFhkovq7uENOn4qXg-104" value="" style="endArrow=diamondThin;html=1;rounded=0;shadow=0;glass=0;strokeColor=default;strokeWidth=1;align=center;verticalAlign=middle;fontFamily=Helvetica;fontSize=11;fontColor=default;fillColor=default;labelBackgroundColor=default;endFill=0;" parent="QewrAQwP1Hr6pBMhre-_-154" edge="1">
          <mxGeometry width="50" height="50" relative="1" as="geometry">
            <mxPoint x="52.5" y="23.440000000000055" as="sourcePoint" />
            <mxPoint x="216.5" y="23.440000000000055" as="targetPoint" />
          </mxGeometry>
        </mxCell>
        <mxCell id="UowAFhkovq7uENOn4qXg-109" value="" style="whiteSpace=wrap;html=1;aspect=fixed;rounded=0;shadow=0;glass=0;dashed=1;dashPattern=1 2;strokeColor=default;strokeWidth=0.5;align=center;verticalAlign=middle;fontFamily=Helvetica;fontSize=12;fontColor=default;fillColor=default;" parent="QewrAQwP1Hr6pBMhre-_-154" vertex="1">
          <mxGeometry x="324.5" y="8.440000000000055" width="15" height="15" as="geometry" />
        </mxCell>
        <mxCell id="UowAFhkovq7uENOn4qXg-110" value="" style="whiteSpace=wrap;html=1;aspect=fixed;rounded=0;shadow=0;glass=0;dashed=1;dashPattern=1 2;strokeColor=default;strokeWidth=0.5;align=center;verticalAlign=middle;fontFamily=Helvetica;fontSize=12;fontColor=default;fillColor=default;" parent="QewrAQwP1Hr6pBMhre-_-154" vertex="1">
          <mxGeometry x="364.5" y="8.440000000000055" width="15" height="15" as="geometry" />
        </mxCell>
        <mxCell id="UowAFhkovq7uENOn4qXg-111" value="" style="whiteSpace=wrap;html=1;aspect=fixed;rounded=0;shadow=0;glass=0;dashed=1;dashPattern=1 2;strokeColor=default;strokeWidth=0.5;align=center;verticalAlign=middle;fontFamily=Helvetica;fontSize=12;fontColor=default;fillColor=default;" parent="QewrAQwP1Hr6pBMhre-_-154" vertex="1">
          <mxGeometry x="384.5" y="8.440000000000055" width="15" height="15" as="geometry" />
        </mxCell>
        <mxCell id="UowAFhkovq7uENOn4qXg-112" value="" style="whiteSpace=wrap;html=1;aspect=fixed;rounded=0;shadow=0;glass=0;dashed=1;dashPattern=1 2;strokeColor=default;strokeWidth=0.5;align=center;verticalAlign=middle;fontFamily=Helvetica;fontSize=12;fontColor=default;fillColor=default;" parent="QewrAQwP1Hr6pBMhre-_-154" vertex="1">
          <mxGeometry x="404.5" y="8.440000000000055" width="15" height="15" as="geometry" />
        </mxCell>
        <mxCell id="UowAFhkovq7uENOn4qXg-113" value="" style="whiteSpace=wrap;html=1;aspect=fixed;rounded=0;shadow=0;glass=0;dashed=1;dashPattern=1 2;strokeColor=default;strokeWidth=0.5;align=center;verticalAlign=middle;fontFamily=Helvetica;fontSize=12;fontColor=default;fillColor=default;" parent="QewrAQwP1Hr6pBMhre-_-154" vertex="1">
          <mxGeometry x="224.5" y="8.440000000000055" width="15" height="15" as="geometry" />
        </mxCell>
        <mxCell id="UowAFhkovq7uENOn4qXg-114" value="" style="whiteSpace=wrap;html=1;aspect=fixed;rounded=0;shadow=0;glass=0;dashed=1;dashPattern=1 2;strokeColor=default;strokeWidth=0.5;align=center;verticalAlign=middle;fontFamily=Helvetica;fontSize=12;fontColor=default;fillColor=default;" parent="QewrAQwP1Hr6pBMhre-_-154" vertex="1">
          <mxGeometry x="244.5" y="8.440000000000055" width="15" height="15" as="geometry" />
        </mxCell>
        <mxCell id="UowAFhkovq7uENOn4qXg-115" value="" style="whiteSpace=wrap;html=1;aspect=fixed;rounded=0;shadow=0;glass=0;dashed=1;dashPattern=1 2;strokeColor=default;strokeWidth=0.5;align=center;verticalAlign=middle;fontFamily=Helvetica;fontSize=12;fontColor=default;fillColor=default;" parent="QewrAQwP1Hr6pBMhre-_-154" vertex="1">
          <mxGeometry x="264.5" y="8.440000000000055" width="15" height="15" as="geometry" />
        </mxCell>
        <mxCell id="UowAFhkovq7uENOn4qXg-116" value="" style="whiteSpace=wrap;html=1;aspect=fixed;rounded=0;shadow=0;glass=0;dashed=1;dashPattern=1 2;strokeColor=default;strokeWidth=0.5;align=center;verticalAlign=middle;fontFamily=Helvetica;fontSize=12;fontColor=default;fillColor=default;" parent="QewrAQwP1Hr6pBMhre-_-154" vertex="1">
          <mxGeometry x="284.5" y="8.440000000000055" width="15" height="15" as="geometry" />
        </mxCell>
        <mxCell id="UowAFhkovq7uENOn4qXg-117" value="" style="whiteSpace=wrap;html=1;aspect=fixed;rounded=0;shadow=0;glass=0;dashed=1;dashPattern=1 2;strokeColor=default;strokeWidth=0.5;align=center;verticalAlign=middle;fontFamily=Helvetica;fontSize=12;fontColor=default;fillColor=default;" parent="QewrAQwP1Hr6pBMhre-_-154" vertex="1">
          <mxGeometry x="304.5" y="8.440000000000055" width="15" height="15" as="geometry" />
        </mxCell>
        <mxCell id="UowAFhkovq7uENOn4qXg-118" value="" style="whiteSpace=wrap;html=1;aspect=fixed;rounded=0;shadow=0;glass=0;dashed=1;dashPattern=1 2;strokeColor=default;strokeWidth=0.5;align=center;verticalAlign=middle;fontFamily=Helvetica;fontSize=12;fontColor=default;fillColor=default;" parent="QewrAQwP1Hr6pBMhre-_-154" vertex="1">
          <mxGeometry x="344.5" y="8.440000000000055" width="15" height="15" as="geometry" />
        </mxCell>
        <mxCell id="UowAFhkovq7uENOn4qXg-119" value="&lt;font face=&quot;Garamond&quot;&gt;Name:&lt;/font&gt;" style="text;html=1;align=center;verticalAlign=middle;whiteSpace=wrap;rounded=0;fontSize=8;" parent="QewrAQwP1Hr6pBMhre-_-154" vertex="1">
          <mxGeometry x="49.5" y="11.720000000000027" width="27" height="12.56" as="geometry" />
        </mxCell>
        <mxCell id="UowAFhkovq7uENOn4qXg-122" value="" style="endArrow=none;html=1;rounded=0;exitX=0.091;exitY=1.006;exitDx=0;exitDy=0;exitPerimeter=0;entryX=0.086;entryY=0.003;entryDx=0;entryDy=0;entryPerimeter=0;" parent="QewrAQwP1Hr6pBMhre-_-154" edge="1" source="UowAFhkovq7uENOn4qXg-102">
          <mxGeometry width="50" height="50" relative="1" as="geometry">
            <mxPoint x="40" y="89.69000000000005" as="sourcePoint" />
            <mxPoint x="39.25" as="targetPoint" />
          </mxGeometry>
        </mxCell>
        <mxCell id="QewrAQwP1Hr6pBMhre-_-4" value="" style="endArrow=none;html=1;rounded=0;" edge="1" parent="QewrAQwP1Hr6pBMhre-_-154">
          <mxGeometry width="50" height="50" relative="1" as="geometry">
            <mxPoint x="39.5" y="30.440000000000055" as="sourcePoint" />
            <mxPoint x="429.5" y="30.440000000000055" as="targetPoint" />
          </mxGeometry>
        </mxCell>
        <mxCell id="QewrAQwP1Hr6pBMhre-_-5" value="" style="endArrow=none;html=1;rounded=0;exitX=0.257;exitY=1.004;exitDx=0;exitDy=0;exitPerimeter=0;" edge="1" parent="QewrAQwP1Hr6pBMhre-_-154" source="UowAFhkovq7uENOn4qXg-102">
          <mxGeometry width="50" height="50" relative="1" as="geometry">
            <mxPoint x="110.5" y="90" as="sourcePoint" />
            <mxPoint x="110.5" y="30.440000000000055" as="targetPoint" />
          </mxGeometry>
        </mxCell>
        <mxCell id="QewrAQwP1Hr6pBMhre-_-9" value="" style="endArrow=none;html=1;rounded=0;exitX=0.44;exitY=1.003;exitDx=0;exitDy=0;exitPerimeter=0;" edge="1" parent="QewrAQwP1Hr6pBMhre-_-154" source="UowAFhkovq7uENOn4qXg-102">
          <mxGeometry width="50" height="50" relative="1" as="geometry">
            <mxPoint x="189.5" y="90" as="sourcePoint" />
            <mxPoint x="189.25" y="30" as="targetPoint" />
          </mxGeometry>
        </mxCell>
        <mxCell id="QewrAQwP1Hr6pBMhre-_-10" value="" style="endArrow=none;html=1;rounded=0;exitX=0.632;exitY=1.001;exitDx=0;exitDy=0;fontStyle=1;exitPerimeter=0;" edge="1" parent="QewrAQwP1Hr6pBMhre-_-154" source="UowAFhkovq7uENOn4qXg-102">
          <mxGeometry width="50" height="50" relative="1" as="geometry">
            <mxPoint x="271.8600000000001" y="90" as="sourcePoint" />
            <mxPoint x="271.25" y="30" as="targetPoint" />
          </mxGeometry>
        </mxCell>
        <mxCell id="QewrAQwP1Hr6pBMhre-_-11" value="" style="endArrow=none;html=1;rounded=0;exitX=0.818;exitY=1.003;exitDx=0;exitDy=0;exitPerimeter=0;" edge="1" parent="QewrAQwP1Hr6pBMhre-_-154" source="UowAFhkovq7uENOn4qXg-102">
          <mxGeometry width="50" height="50" relative="1" as="geometry">
            <mxPoint x="351.8600000000001" y="90" as="sourcePoint" />
            <mxPoint x="351.8600000000001" y="30.440000000000055" as="targetPoint" />
          </mxGeometry>
        </mxCell>
        <mxCell id="QewrAQwP1Hr6pBMhre-_-13" value="&lt;font face=&quot;Garamond&quot;&gt;Cost&lt;/font&gt;" style="text;html=1;align=center;verticalAlign=middle;whiteSpace=wrap;rounded=0;" vertex="1" parent="QewrAQwP1Hr6pBMhre-_-154">
          <mxGeometry x="44.25" y="32.210000000000036" width="60" height="30" as="geometry" />
        </mxCell>
        <mxCell id="QewrAQwP1Hr6pBMhre-_-14" value="" style="endArrow=diamondThin;html=1;rounded=0;shadow=0;glass=0;strokeColor=default;strokeWidth=1;align=center;verticalAlign=middle;fontFamily=Helvetica;fontSize=12;fontColor=default;fillColor=default;startArrow=diamondThin;startFill=0;endFill=0;" edge="1" parent="QewrAQwP1Hr6pBMhre-_-154">
          <mxGeometry width="50" height="50" relative="1" as="geometry">
            <mxPoint x="57.75" y="92.21000000000004" as="sourcePoint" />
            <mxPoint x="92.75" y="92.21000000000004" as="targetPoint" />
          </mxGeometry>
        </mxCell>
        <mxCell id="QewrAQwP1Hr6pBMhre-_-155" value="" style="group" vertex="1" connectable="0" parent="1">
          <mxGeometry x="1062" y="238" width="430" height="100" as="geometry" />
        </mxCell>
        <mxCell id="QewrAQwP1Hr6pBMhre-_-156" value="" style="endArrow=none;html=1;rounded=0;exitX=0;exitY=0.25;exitDx=0;exitDy=0;entryX=0;entryY=0.25;entryDx=0;entryDy=0;strokeWidth=1;" edge="1" parent="QewrAQwP1Hr6pBMhre-_-155">
          <mxGeometry width="50" height="50" relative="1" as="geometry">
            <mxPoint y="1.4400000000000546" as="sourcePoint" />
            <mxPoint x="430" y="1.4400000000000546" as="targetPoint" />
          </mxGeometry>
        </mxCell>
        <mxCell id="QewrAQwP1Hr6pBMhre-_-157" value="" style="rounded=0;whiteSpace=wrap;html=1;" vertex="1" parent="QewrAQwP1Hr6pBMhre-_-155">
          <mxGeometry width="430" height="100" as="geometry" />
        </mxCell>
        <mxCell id="QewrAQwP1Hr6pBMhre-_-158" value="&lt;font face=&quot;Garamond&quot;&gt;Sides&lt;/font&gt;" style="text;html=1;align=center;verticalAlign=middle;whiteSpace=wrap;rounded=0;rotation=-90;" vertex="1" parent="QewrAQwP1Hr6pBMhre-_-155">
          <mxGeometry x="-9.5" y="32.210000000000036" width="60" height="30" as="geometry" />
        </mxCell>
        <mxCell id="QewrAQwP1Hr6pBMhre-_-159" value="" style="endArrow=diamondThin;html=1;rounded=0;shadow=0;glass=0;strokeColor=default;strokeWidth=1;align=center;verticalAlign=middle;fontFamily=Helvetica;fontSize=11;fontColor=default;fillColor=default;labelBackgroundColor=default;endFill=0;" edge="1" parent="QewrAQwP1Hr6pBMhre-_-155">
          <mxGeometry width="50" height="50" relative="1" as="geometry">
            <mxPoint x="52.5" y="23.440000000000055" as="sourcePoint" />
            <mxPoint x="216.5" y="23.440000000000055" as="targetPoint" />
          </mxGeometry>
        </mxCell>
        <mxCell id="QewrAQwP1Hr6pBMhre-_-160" value="" style="whiteSpace=wrap;html=1;aspect=fixed;rounded=0;shadow=0;glass=0;dashed=1;dashPattern=1 2;strokeColor=default;strokeWidth=0.5;align=center;verticalAlign=middle;fontFamily=Helvetica;fontSize=12;fontColor=default;fillColor=default;" vertex="1" parent="QewrAQwP1Hr6pBMhre-_-155">
          <mxGeometry x="324.5" y="8.440000000000055" width="15" height="15" as="geometry" />
        </mxCell>
        <mxCell id="QewrAQwP1Hr6pBMhre-_-161" value="" style="whiteSpace=wrap;html=1;aspect=fixed;rounded=0;shadow=0;glass=0;dashed=1;dashPattern=1 2;strokeColor=default;strokeWidth=0.5;align=center;verticalAlign=middle;fontFamily=Helvetica;fontSize=12;fontColor=default;fillColor=default;" vertex="1" parent="QewrAQwP1Hr6pBMhre-_-155">
          <mxGeometry x="364.5" y="8.440000000000055" width="15" height="15" as="geometry" />
        </mxCell>
        <mxCell id="QewrAQwP1Hr6pBMhre-_-162" value="" style="whiteSpace=wrap;html=1;aspect=fixed;rounded=0;shadow=0;glass=0;dashed=1;dashPattern=1 2;strokeColor=default;strokeWidth=0.5;align=center;verticalAlign=middle;fontFamily=Helvetica;fontSize=12;fontColor=default;fillColor=default;" vertex="1" parent="QewrAQwP1Hr6pBMhre-_-155">
          <mxGeometry x="384.5" y="8.440000000000055" width="15" height="15" as="geometry" />
        </mxCell>
        <mxCell id="QewrAQwP1Hr6pBMhre-_-163" value="" style="whiteSpace=wrap;html=1;aspect=fixed;rounded=0;shadow=0;glass=0;dashed=1;dashPattern=1 2;strokeColor=default;strokeWidth=0.5;align=center;verticalAlign=middle;fontFamily=Helvetica;fontSize=12;fontColor=default;fillColor=default;" vertex="1" parent="QewrAQwP1Hr6pBMhre-_-155">
          <mxGeometry x="404.5" y="8.440000000000055" width="15" height="15" as="geometry" />
        </mxCell>
        <mxCell id="QewrAQwP1Hr6pBMhre-_-164" value="" style="whiteSpace=wrap;html=1;aspect=fixed;rounded=0;shadow=0;glass=0;dashed=1;dashPattern=1 2;strokeColor=default;strokeWidth=0.5;align=center;verticalAlign=middle;fontFamily=Helvetica;fontSize=12;fontColor=default;fillColor=default;" vertex="1" parent="QewrAQwP1Hr6pBMhre-_-155">
          <mxGeometry x="224.5" y="8.440000000000055" width="15" height="15" as="geometry" />
        </mxCell>
        <mxCell id="QewrAQwP1Hr6pBMhre-_-165" value="" style="whiteSpace=wrap;html=1;aspect=fixed;rounded=0;shadow=0;glass=0;dashed=1;dashPattern=1 2;strokeColor=default;strokeWidth=0.5;align=center;verticalAlign=middle;fontFamily=Helvetica;fontSize=12;fontColor=default;fillColor=default;" vertex="1" parent="QewrAQwP1Hr6pBMhre-_-155">
          <mxGeometry x="244.5" y="8.440000000000055" width="15" height="15" as="geometry" />
        </mxCell>
        <mxCell id="QewrAQwP1Hr6pBMhre-_-166" value="" style="whiteSpace=wrap;html=1;aspect=fixed;rounded=0;shadow=0;glass=0;dashed=1;dashPattern=1 2;strokeColor=default;strokeWidth=0.5;align=center;verticalAlign=middle;fontFamily=Helvetica;fontSize=12;fontColor=default;fillColor=default;" vertex="1" parent="QewrAQwP1Hr6pBMhre-_-155">
          <mxGeometry x="264.5" y="8.440000000000055" width="15" height="15" as="geometry" />
        </mxCell>
        <mxCell id="QewrAQwP1Hr6pBMhre-_-167" value="" style="whiteSpace=wrap;html=1;aspect=fixed;rounded=0;shadow=0;glass=0;dashed=1;dashPattern=1 2;strokeColor=default;strokeWidth=0.5;align=center;verticalAlign=middle;fontFamily=Helvetica;fontSize=12;fontColor=default;fillColor=default;" vertex="1" parent="QewrAQwP1Hr6pBMhre-_-155">
          <mxGeometry x="284.5" y="8.440000000000055" width="15" height="15" as="geometry" />
        </mxCell>
        <mxCell id="QewrAQwP1Hr6pBMhre-_-168" value="" style="whiteSpace=wrap;html=1;aspect=fixed;rounded=0;shadow=0;glass=0;dashed=1;dashPattern=1 2;strokeColor=default;strokeWidth=0.5;align=center;verticalAlign=middle;fontFamily=Helvetica;fontSize=12;fontColor=default;fillColor=default;" vertex="1" parent="QewrAQwP1Hr6pBMhre-_-155">
          <mxGeometry x="304.5" y="8.440000000000055" width="15" height="15" as="geometry" />
        </mxCell>
        <mxCell id="QewrAQwP1Hr6pBMhre-_-169" value="" style="whiteSpace=wrap;html=1;aspect=fixed;rounded=0;shadow=0;glass=0;dashed=1;dashPattern=1 2;strokeColor=default;strokeWidth=0.5;align=center;verticalAlign=middle;fontFamily=Helvetica;fontSize=12;fontColor=default;fillColor=default;" vertex="1" parent="QewrAQwP1Hr6pBMhre-_-155">
          <mxGeometry x="344.5" y="8.440000000000055" width="15" height="15" as="geometry" />
        </mxCell>
        <mxCell id="QewrAQwP1Hr6pBMhre-_-170" value="&lt;font face=&quot;Garamond&quot;&gt;Name:&lt;/font&gt;" style="text;html=1;align=center;verticalAlign=middle;whiteSpace=wrap;rounded=0;fontSize=8;" vertex="1" parent="QewrAQwP1Hr6pBMhre-_-155">
          <mxGeometry x="49.5" y="11.720000000000027" width="27" height="12.56" as="geometry" />
        </mxCell>
        <mxCell id="QewrAQwP1Hr6pBMhre-_-171" value="" style="endArrow=none;html=1;rounded=0;exitX=0.091;exitY=1.006;exitDx=0;exitDy=0;exitPerimeter=0;entryX=0.086;entryY=0.003;entryDx=0;entryDy=0;entryPerimeter=0;" edge="1" parent="QewrAQwP1Hr6pBMhre-_-155" source="QewrAQwP1Hr6pBMhre-_-157">
          <mxGeometry width="50" height="50" relative="1" as="geometry">
            <mxPoint x="40" y="89.69000000000005" as="sourcePoint" />
            <mxPoint x="39.25" as="targetPoint" />
          </mxGeometry>
        </mxCell>
        <mxCell id="QewrAQwP1Hr6pBMhre-_-172" value="" style="endArrow=none;html=1;rounded=0;" edge="1" parent="QewrAQwP1Hr6pBMhre-_-155">
          <mxGeometry width="50" height="50" relative="1" as="geometry">
            <mxPoint x="39.5" y="30.440000000000055" as="sourcePoint" />
            <mxPoint x="429.5" y="30.440000000000055" as="targetPoint" />
          </mxGeometry>
        </mxCell>
        <mxCell id="QewrAQwP1Hr6pBMhre-_-173" value="" style="endArrow=none;html=1;rounded=0;exitX=0.257;exitY=1.004;exitDx=0;exitDy=0;exitPerimeter=0;" edge="1" parent="QewrAQwP1Hr6pBMhre-_-155" source="QewrAQwP1Hr6pBMhre-_-157">
          <mxGeometry width="50" height="50" relative="1" as="geometry">
            <mxPoint x="110.5" y="90" as="sourcePoint" />
            <mxPoint x="110.5" y="30.440000000000055" as="targetPoint" />
          </mxGeometry>
        </mxCell>
        <mxCell id="QewrAQwP1Hr6pBMhre-_-174" value="" style="endArrow=none;html=1;rounded=0;exitX=0.44;exitY=1.003;exitDx=0;exitDy=0;exitPerimeter=0;" edge="1" parent="QewrAQwP1Hr6pBMhre-_-155" source="QewrAQwP1Hr6pBMhre-_-157">
          <mxGeometry width="50" height="50" relative="1" as="geometry">
            <mxPoint x="189.5" y="90" as="sourcePoint" />
            <mxPoint x="189.25" y="30" as="targetPoint" />
          </mxGeometry>
        </mxCell>
        <mxCell id="QewrAQwP1Hr6pBMhre-_-175" value="" style="endArrow=none;html=1;rounded=0;exitX=0.632;exitY=1.001;exitDx=0;exitDy=0;fontStyle=1;exitPerimeter=0;" edge="1" parent="QewrAQwP1Hr6pBMhre-_-155" source="QewrAQwP1Hr6pBMhre-_-157">
          <mxGeometry width="50" height="50" relative="1" as="geometry">
            <mxPoint x="271.8600000000001" y="90" as="sourcePoint" />
            <mxPoint x="271.25" y="30" as="targetPoint" />
          </mxGeometry>
        </mxCell>
        <mxCell id="QewrAQwP1Hr6pBMhre-_-176" value="" style="endArrow=none;html=1;rounded=0;exitX=0.818;exitY=1.003;exitDx=0;exitDy=0;exitPerimeter=0;" edge="1" parent="QewrAQwP1Hr6pBMhre-_-155" source="QewrAQwP1Hr6pBMhre-_-157">
          <mxGeometry width="50" height="50" relative="1" as="geometry">
            <mxPoint x="351.8600000000001" y="90" as="sourcePoint" />
            <mxPoint x="351.8600000000001" y="30.440000000000055" as="targetPoint" />
          </mxGeometry>
        </mxCell>
        <mxCell id="QewrAQwP1Hr6pBMhre-_-177" value="&lt;font face=&quot;Garamond&quot;&gt;Cost&lt;/font&gt;" style="text;html=1;align=center;verticalAlign=middle;whiteSpace=wrap;rounded=0;" vertex="1" parent="QewrAQwP1Hr6pBMhre-_-155">
          <mxGeometry x="44.25" y="32.210000000000036" width="60" height="30" as="geometry" />
        </mxCell>
        <mxCell id="QewrAQwP1Hr6pBMhre-_-178" value="" style="endArrow=diamondThin;html=1;rounded=0;shadow=0;glass=0;strokeColor=default;strokeWidth=1;align=center;verticalAlign=middle;fontFamily=Helvetica;fontSize=12;fontColor=default;fillColor=default;startArrow=diamondThin;startFill=0;endFill=0;" edge="1" parent="QewrAQwP1Hr6pBMhre-_-155">
          <mxGeometry width="50" height="50" relative="1" as="geometry">
            <mxPoint x="57.75" y="92.21000000000004" as="sourcePoint" />
            <mxPoint x="92.75" y="92.21000000000004" as="targetPoint" />
          </mxGeometry>
        </mxCell>
        <mxCell id="QewrAQwP1Hr6pBMhre-_-179" value="" style="group" vertex="1" connectable="0" parent="1">
          <mxGeometry x="1062" y="338" width="430" height="100" as="geometry" />
        </mxCell>
        <mxCell id="QewrAQwP1Hr6pBMhre-_-180" value="" style="endArrow=none;html=1;rounded=0;exitX=0;exitY=0.25;exitDx=0;exitDy=0;entryX=0;entryY=0.25;entryDx=0;entryDy=0;strokeWidth=1;" edge="1" parent="QewrAQwP1Hr6pBMhre-_-179">
          <mxGeometry width="50" height="50" relative="1" as="geometry">
            <mxPoint y="1.4400000000000546" as="sourcePoint" />
            <mxPoint x="430" y="1.4400000000000546" as="targetPoint" />
          </mxGeometry>
        </mxCell>
        <mxCell id="QewrAQwP1Hr6pBMhre-_-181" value="" style="rounded=0;whiteSpace=wrap;html=1;" vertex="1" parent="QewrAQwP1Hr6pBMhre-_-179">
          <mxGeometry width="430" height="100" as="geometry" />
        </mxCell>
        <mxCell id="QewrAQwP1Hr6pBMhre-_-182" value="&lt;font face=&quot;Garamond&quot;&gt;Special&lt;/font&gt;" style="text;html=1;align=center;verticalAlign=middle;whiteSpace=wrap;rounded=0;rotation=-90;" vertex="1" parent="QewrAQwP1Hr6pBMhre-_-179">
          <mxGeometry x="-9.5" y="32.210000000000036" width="60" height="30" as="geometry" />
        </mxCell>
        <mxCell id="QewrAQwP1Hr6pBMhre-_-183" value="" style="endArrow=diamondThin;html=1;rounded=0;shadow=0;glass=0;strokeColor=default;strokeWidth=1;align=center;verticalAlign=middle;fontFamily=Helvetica;fontSize=11;fontColor=default;fillColor=default;labelBackgroundColor=default;endFill=0;" edge="1" parent="QewrAQwP1Hr6pBMhre-_-179">
          <mxGeometry width="50" height="50" relative="1" as="geometry">
            <mxPoint x="52.5" y="23.440000000000055" as="sourcePoint" />
            <mxPoint x="216.5" y="23.440000000000055" as="targetPoint" />
          </mxGeometry>
        </mxCell>
        <mxCell id="QewrAQwP1Hr6pBMhre-_-184" value="" style="whiteSpace=wrap;html=1;aspect=fixed;rounded=0;shadow=0;glass=0;dashed=1;dashPattern=1 2;strokeColor=default;strokeWidth=0.5;align=center;verticalAlign=middle;fontFamily=Helvetica;fontSize=12;fontColor=default;fillColor=default;" vertex="1" parent="QewrAQwP1Hr6pBMhre-_-179">
          <mxGeometry x="324.5" y="8.440000000000055" width="15" height="15" as="geometry" />
        </mxCell>
        <mxCell id="QewrAQwP1Hr6pBMhre-_-185" value="" style="whiteSpace=wrap;html=1;aspect=fixed;rounded=0;shadow=0;glass=0;dashed=1;dashPattern=1 2;strokeColor=default;strokeWidth=0.5;align=center;verticalAlign=middle;fontFamily=Helvetica;fontSize=12;fontColor=default;fillColor=default;" vertex="1" parent="QewrAQwP1Hr6pBMhre-_-179">
          <mxGeometry x="364.5" y="8.440000000000055" width="15" height="15" as="geometry" />
        </mxCell>
        <mxCell id="QewrAQwP1Hr6pBMhre-_-186" value="" style="whiteSpace=wrap;html=1;aspect=fixed;rounded=0;shadow=0;glass=0;dashed=1;dashPattern=1 2;strokeColor=default;strokeWidth=0.5;align=center;verticalAlign=middle;fontFamily=Helvetica;fontSize=12;fontColor=default;fillColor=default;" vertex="1" parent="QewrAQwP1Hr6pBMhre-_-179">
          <mxGeometry x="384.5" y="8.440000000000055" width="15" height="15" as="geometry" />
        </mxCell>
        <mxCell id="QewrAQwP1Hr6pBMhre-_-187" value="" style="whiteSpace=wrap;html=1;aspect=fixed;rounded=0;shadow=0;glass=0;dashed=1;dashPattern=1 2;strokeColor=default;strokeWidth=0.5;align=center;verticalAlign=middle;fontFamily=Helvetica;fontSize=12;fontColor=default;fillColor=default;" vertex="1" parent="QewrAQwP1Hr6pBMhre-_-179">
          <mxGeometry x="404.5" y="8.440000000000055" width="15" height="15" as="geometry" />
        </mxCell>
        <mxCell id="QewrAQwP1Hr6pBMhre-_-188" value="" style="whiteSpace=wrap;html=1;aspect=fixed;rounded=0;shadow=0;glass=0;dashed=1;dashPattern=1 2;strokeColor=default;strokeWidth=0.5;align=center;verticalAlign=middle;fontFamily=Helvetica;fontSize=12;fontColor=default;fillColor=default;" vertex="1" parent="QewrAQwP1Hr6pBMhre-_-179">
          <mxGeometry x="224.5" y="8.440000000000055" width="15" height="15" as="geometry" />
        </mxCell>
        <mxCell id="QewrAQwP1Hr6pBMhre-_-189" value="" style="whiteSpace=wrap;html=1;aspect=fixed;rounded=0;shadow=0;glass=0;dashed=1;dashPattern=1 2;strokeColor=default;strokeWidth=0.5;align=center;verticalAlign=middle;fontFamily=Helvetica;fontSize=12;fontColor=default;fillColor=default;" vertex="1" parent="QewrAQwP1Hr6pBMhre-_-179">
          <mxGeometry x="244.5" y="8.440000000000055" width="15" height="15" as="geometry" />
        </mxCell>
        <mxCell id="QewrAQwP1Hr6pBMhre-_-190" value="" style="whiteSpace=wrap;html=1;aspect=fixed;rounded=0;shadow=0;glass=0;dashed=1;dashPattern=1 2;strokeColor=default;strokeWidth=0.5;align=center;verticalAlign=middle;fontFamily=Helvetica;fontSize=12;fontColor=default;fillColor=default;" vertex="1" parent="QewrAQwP1Hr6pBMhre-_-179">
          <mxGeometry x="264.5" y="8.440000000000055" width="15" height="15" as="geometry" />
        </mxCell>
        <mxCell id="QewrAQwP1Hr6pBMhre-_-191" value="" style="whiteSpace=wrap;html=1;aspect=fixed;rounded=0;shadow=0;glass=0;dashed=1;dashPattern=1 2;strokeColor=default;strokeWidth=0.5;align=center;verticalAlign=middle;fontFamily=Helvetica;fontSize=12;fontColor=default;fillColor=default;" vertex="1" parent="QewrAQwP1Hr6pBMhre-_-179">
          <mxGeometry x="284.5" y="8.440000000000055" width="15" height="15" as="geometry" />
        </mxCell>
        <mxCell id="QewrAQwP1Hr6pBMhre-_-192" value="" style="whiteSpace=wrap;html=1;aspect=fixed;rounded=0;shadow=0;glass=0;dashed=1;dashPattern=1 2;strokeColor=default;strokeWidth=0.5;align=center;verticalAlign=middle;fontFamily=Helvetica;fontSize=12;fontColor=default;fillColor=default;" vertex="1" parent="QewrAQwP1Hr6pBMhre-_-179">
          <mxGeometry x="304.5" y="8.440000000000055" width="15" height="15" as="geometry" />
        </mxCell>
        <mxCell id="QewrAQwP1Hr6pBMhre-_-193" value="" style="whiteSpace=wrap;html=1;aspect=fixed;rounded=0;shadow=0;glass=0;dashed=1;dashPattern=1 2;strokeColor=default;strokeWidth=0.5;align=center;verticalAlign=middle;fontFamily=Helvetica;fontSize=12;fontColor=default;fillColor=default;" vertex="1" parent="QewrAQwP1Hr6pBMhre-_-179">
          <mxGeometry x="344.5" y="8.440000000000055" width="15" height="15" as="geometry" />
        </mxCell>
        <mxCell id="QewrAQwP1Hr6pBMhre-_-194" value="&lt;font face=&quot;Garamond&quot;&gt;Name:&lt;/font&gt;" style="text;html=1;align=center;verticalAlign=middle;whiteSpace=wrap;rounded=0;fontSize=8;" vertex="1" parent="QewrAQwP1Hr6pBMhre-_-179">
          <mxGeometry x="49.5" y="11.720000000000027" width="27" height="12.56" as="geometry" />
        </mxCell>
        <mxCell id="QewrAQwP1Hr6pBMhre-_-195" value="" style="endArrow=none;html=1;rounded=0;exitX=0.091;exitY=1.006;exitDx=0;exitDy=0;exitPerimeter=0;entryX=0.086;entryY=0.003;entryDx=0;entryDy=0;entryPerimeter=0;" edge="1" parent="QewrAQwP1Hr6pBMhre-_-179" source="QewrAQwP1Hr6pBMhre-_-181">
          <mxGeometry width="50" height="50" relative="1" as="geometry">
            <mxPoint x="40" y="89.69000000000005" as="sourcePoint" />
            <mxPoint x="39.25" as="targetPoint" />
          </mxGeometry>
        </mxCell>
        <mxCell id="QewrAQwP1Hr6pBMhre-_-196" value="" style="endArrow=none;html=1;rounded=0;" edge="1" parent="QewrAQwP1Hr6pBMhre-_-179">
          <mxGeometry width="50" height="50" relative="1" as="geometry">
            <mxPoint x="39.5" y="30.440000000000055" as="sourcePoint" />
            <mxPoint x="429.5" y="30.440000000000055" as="targetPoint" />
          </mxGeometry>
        </mxCell>
        <mxCell id="QewrAQwP1Hr6pBMhre-_-197" value="" style="endArrow=none;html=1;rounded=0;exitX=0.257;exitY=1.004;exitDx=0;exitDy=0;exitPerimeter=0;" edge="1" parent="QewrAQwP1Hr6pBMhre-_-179" source="QewrAQwP1Hr6pBMhre-_-181">
          <mxGeometry width="50" height="50" relative="1" as="geometry">
            <mxPoint x="110.5" y="90" as="sourcePoint" />
            <mxPoint x="110.5" y="30.440000000000055" as="targetPoint" />
          </mxGeometry>
        </mxCell>
        <mxCell id="QewrAQwP1Hr6pBMhre-_-198" value="" style="endArrow=none;html=1;rounded=0;exitX=0.44;exitY=1.003;exitDx=0;exitDy=0;exitPerimeter=0;" edge="1" parent="QewrAQwP1Hr6pBMhre-_-179" source="QewrAQwP1Hr6pBMhre-_-181">
          <mxGeometry width="50" height="50" relative="1" as="geometry">
            <mxPoint x="189.5" y="90" as="sourcePoint" />
            <mxPoint x="189.25" y="30" as="targetPoint" />
          </mxGeometry>
        </mxCell>
        <mxCell id="QewrAQwP1Hr6pBMhre-_-199" value="" style="endArrow=none;html=1;rounded=0;exitX=0.632;exitY=1.001;exitDx=0;exitDy=0;fontStyle=1;exitPerimeter=0;" edge="1" parent="QewrAQwP1Hr6pBMhre-_-179" source="QewrAQwP1Hr6pBMhre-_-181">
          <mxGeometry width="50" height="50" relative="1" as="geometry">
            <mxPoint x="271.8600000000001" y="90" as="sourcePoint" />
            <mxPoint x="271.25" y="30" as="targetPoint" />
          </mxGeometry>
        </mxCell>
        <mxCell id="QewrAQwP1Hr6pBMhre-_-200" value="" style="endArrow=none;html=1;rounded=0;exitX=0.818;exitY=1.003;exitDx=0;exitDy=0;exitPerimeter=0;" edge="1" parent="QewrAQwP1Hr6pBMhre-_-179" source="QewrAQwP1Hr6pBMhre-_-181">
          <mxGeometry width="50" height="50" relative="1" as="geometry">
            <mxPoint x="351.8600000000001" y="90" as="sourcePoint" />
            <mxPoint x="351.8600000000001" y="30.440000000000055" as="targetPoint" />
          </mxGeometry>
        </mxCell>
        <mxCell id="QewrAQwP1Hr6pBMhre-_-201" value="&lt;font face=&quot;Garamond&quot;&gt;Cost&lt;/font&gt;" style="text;html=1;align=center;verticalAlign=middle;whiteSpace=wrap;rounded=0;" vertex="1" parent="QewrAQwP1Hr6pBMhre-_-179">
          <mxGeometry x="44.25" y="32.210000000000036" width="60" height="30" as="geometry" />
        </mxCell>
        <mxCell id="QewrAQwP1Hr6pBMhre-_-202" value="" style="endArrow=diamondThin;html=1;rounded=0;shadow=0;glass=0;strokeColor=default;strokeWidth=1;align=center;verticalAlign=middle;fontFamily=Helvetica;fontSize=12;fontColor=default;fillColor=default;startArrow=diamondThin;startFill=0;endFill=0;" edge="1" parent="QewrAQwP1Hr6pBMhre-_-179">
          <mxGeometry width="50" height="50" relative="1" as="geometry">
            <mxPoint x="57.75" y="92.21000000000004" as="sourcePoint" />
            <mxPoint x="92.75" y="92.21000000000004" as="targetPoint" />
          </mxGeometry>
        </mxCell>
        <mxCell id="QewrAQwP1Hr6pBMhre-_-203" value="" style="group" vertex="1" connectable="0" parent="1">
          <mxGeometry x="1062" y="438" width="430" height="100" as="geometry" />
        </mxCell>
        <mxCell id="QewrAQwP1Hr6pBMhre-_-204" value="" style="endArrow=none;html=1;rounded=0;exitX=0;exitY=0.25;exitDx=0;exitDy=0;entryX=0;entryY=0.25;entryDx=0;entryDy=0;strokeWidth=1;" edge="1" parent="QewrAQwP1Hr6pBMhre-_-203">
          <mxGeometry width="50" height="50" relative="1" as="geometry">
            <mxPoint y="1.4400000000000546" as="sourcePoint" />
            <mxPoint x="430" y="1.4400000000000546" as="targetPoint" />
          </mxGeometry>
        </mxCell>
        <mxCell id="QewrAQwP1Hr6pBMhre-_-205" value="" style="rounded=0;whiteSpace=wrap;html=1;" vertex="1" parent="QewrAQwP1Hr6pBMhre-_-203">
          <mxGeometry width="430" height="100" as="geometry" />
        </mxCell>
        <mxCell id="QewrAQwP1Hr6pBMhre-_-206" value="&lt;font face=&quot;Garamond&quot;&gt;Special&lt;/font&gt;" style="text;html=1;align=center;verticalAlign=middle;whiteSpace=wrap;rounded=0;rotation=-90;" vertex="1" parent="QewrAQwP1Hr6pBMhre-_-203">
          <mxGeometry x="-9.5" y="32.210000000000036" width="60" height="30" as="geometry" />
        </mxCell>
        <mxCell id="QewrAQwP1Hr6pBMhre-_-207" value="" style="endArrow=diamondThin;html=1;rounded=0;shadow=0;glass=0;strokeColor=default;strokeWidth=1;align=center;verticalAlign=middle;fontFamily=Helvetica;fontSize=11;fontColor=default;fillColor=default;labelBackgroundColor=default;endFill=0;" edge="1" parent="QewrAQwP1Hr6pBMhre-_-203">
          <mxGeometry width="50" height="50" relative="1" as="geometry">
            <mxPoint x="52.5" y="23.440000000000055" as="sourcePoint" />
            <mxPoint x="216.5" y="23.440000000000055" as="targetPoint" />
          </mxGeometry>
        </mxCell>
        <mxCell id="QewrAQwP1Hr6pBMhre-_-208" value="" style="whiteSpace=wrap;html=1;aspect=fixed;rounded=0;shadow=0;glass=0;dashed=1;dashPattern=1 2;strokeColor=default;strokeWidth=0.5;align=center;verticalAlign=middle;fontFamily=Helvetica;fontSize=12;fontColor=default;fillColor=default;" vertex="1" parent="QewrAQwP1Hr6pBMhre-_-203">
          <mxGeometry x="324.5" y="8.440000000000055" width="15" height="15" as="geometry" />
        </mxCell>
        <mxCell id="QewrAQwP1Hr6pBMhre-_-209" value="" style="whiteSpace=wrap;html=1;aspect=fixed;rounded=0;shadow=0;glass=0;dashed=1;dashPattern=1 2;strokeColor=default;strokeWidth=0.5;align=center;verticalAlign=middle;fontFamily=Helvetica;fontSize=12;fontColor=default;fillColor=default;" vertex="1" parent="QewrAQwP1Hr6pBMhre-_-203">
          <mxGeometry x="364.5" y="8.440000000000055" width="15" height="15" as="geometry" />
        </mxCell>
        <mxCell id="QewrAQwP1Hr6pBMhre-_-210" value="" style="whiteSpace=wrap;html=1;aspect=fixed;rounded=0;shadow=0;glass=0;dashed=1;dashPattern=1 2;strokeColor=default;strokeWidth=0.5;align=center;verticalAlign=middle;fontFamily=Helvetica;fontSize=12;fontColor=default;fillColor=default;" vertex="1" parent="QewrAQwP1Hr6pBMhre-_-203">
          <mxGeometry x="384.5" y="8.440000000000055" width="15" height="15" as="geometry" />
        </mxCell>
        <mxCell id="QewrAQwP1Hr6pBMhre-_-211" value="" style="whiteSpace=wrap;html=1;aspect=fixed;rounded=0;shadow=0;glass=0;dashed=1;dashPattern=1 2;strokeColor=default;strokeWidth=0.5;align=center;verticalAlign=middle;fontFamily=Helvetica;fontSize=12;fontColor=default;fillColor=default;" vertex="1" parent="QewrAQwP1Hr6pBMhre-_-203">
          <mxGeometry x="404.5" y="8.440000000000055" width="15" height="15" as="geometry" />
        </mxCell>
        <mxCell id="QewrAQwP1Hr6pBMhre-_-212" value="" style="whiteSpace=wrap;html=1;aspect=fixed;rounded=0;shadow=0;glass=0;dashed=1;dashPattern=1 2;strokeColor=default;strokeWidth=0.5;align=center;verticalAlign=middle;fontFamily=Helvetica;fontSize=12;fontColor=default;fillColor=default;" vertex="1" parent="QewrAQwP1Hr6pBMhre-_-203">
          <mxGeometry x="224.5" y="8.440000000000055" width="15" height="15" as="geometry" />
        </mxCell>
        <mxCell id="QewrAQwP1Hr6pBMhre-_-213" value="" style="whiteSpace=wrap;html=1;aspect=fixed;rounded=0;shadow=0;glass=0;dashed=1;dashPattern=1 2;strokeColor=default;strokeWidth=0.5;align=center;verticalAlign=middle;fontFamily=Helvetica;fontSize=12;fontColor=default;fillColor=default;" vertex="1" parent="QewrAQwP1Hr6pBMhre-_-203">
          <mxGeometry x="244.5" y="8.440000000000055" width="15" height="15" as="geometry" />
        </mxCell>
        <mxCell id="QewrAQwP1Hr6pBMhre-_-214" value="" style="whiteSpace=wrap;html=1;aspect=fixed;rounded=0;shadow=0;glass=0;dashed=1;dashPattern=1 2;strokeColor=default;strokeWidth=0.5;align=center;verticalAlign=middle;fontFamily=Helvetica;fontSize=12;fontColor=default;fillColor=default;" vertex="1" parent="QewrAQwP1Hr6pBMhre-_-203">
          <mxGeometry x="264.5" y="8.440000000000055" width="15" height="15" as="geometry" />
        </mxCell>
        <mxCell id="QewrAQwP1Hr6pBMhre-_-215" value="" style="whiteSpace=wrap;html=1;aspect=fixed;rounded=0;shadow=0;glass=0;dashed=1;dashPattern=1 2;strokeColor=default;strokeWidth=0.5;align=center;verticalAlign=middle;fontFamily=Helvetica;fontSize=12;fontColor=default;fillColor=default;" vertex="1" parent="QewrAQwP1Hr6pBMhre-_-203">
          <mxGeometry x="284.5" y="8.440000000000055" width="15" height="15" as="geometry" />
        </mxCell>
        <mxCell id="QewrAQwP1Hr6pBMhre-_-216" value="" style="whiteSpace=wrap;html=1;aspect=fixed;rounded=0;shadow=0;glass=0;dashed=1;dashPattern=1 2;strokeColor=default;strokeWidth=0.5;align=center;verticalAlign=middle;fontFamily=Helvetica;fontSize=12;fontColor=default;fillColor=default;" vertex="1" parent="QewrAQwP1Hr6pBMhre-_-203">
          <mxGeometry x="304.5" y="8.440000000000055" width="15" height="15" as="geometry" />
        </mxCell>
        <mxCell id="QewrAQwP1Hr6pBMhre-_-217" value="" style="whiteSpace=wrap;html=1;aspect=fixed;rounded=0;shadow=0;glass=0;dashed=1;dashPattern=1 2;strokeColor=default;strokeWidth=0.5;align=center;verticalAlign=middle;fontFamily=Helvetica;fontSize=12;fontColor=default;fillColor=default;" vertex="1" parent="QewrAQwP1Hr6pBMhre-_-203">
          <mxGeometry x="344.5" y="8.440000000000055" width="15" height="15" as="geometry" />
        </mxCell>
        <mxCell id="QewrAQwP1Hr6pBMhre-_-218" value="&lt;font face=&quot;Garamond&quot;&gt;Name:&lt;/font&gt;" style="text;html=1;align=center;verticalAlign=middle;whiteSpace=wrap;rounded=0;fontSize=8;" vertex="1" parent="QewrAQwP1Hr6pBMhre-_-203">
          <mxGeometry x="49.5" y="11.720000000000027" width="27" height="12.56" as="geometry" />
        </mxCell>
        <mxCell id="QewrAQwP1Hr6pBMhre-_-219" value="" style="endArrow=none;html=1;rounded=0;exitX=0.091;exitY=1.006;exitDx=0;exitDy=0;exitPerimeter=0;entryX=0.086;entryY=0.003;entryDx=0;entryDy=0;entryPerimeter=0;" edge="1" parent="QewrAQwP1Hr6pBMhre-_-203" source="QewrAQwP1Hr6pBMhre-_-205">
          <mxGeometry width="50" height="50" relative="1" as="geometry">
            <mxPoint x="40" y="89.69000000000005" as="sourcePoint" />
            <mxPoint x="39.25" as="targetPoint" />
          </mxGeometry>
        </mxCell>
        <mxCell id="QewrAQwP1Hr6pBMhre-_-220" value="" style="endArrow=none;html=1;rounded=0;" edge="1" parent="QewrAQwP1Hr6pBMhre-_-203">
          <mxGeometry width="50" height="50" relative="1" as="geometry">
            <mxPoint x="39.5" y="30.440000000000055" as="sourcePoint" />
            <mxPoint x="429.5" y="30.440000000000055" as="targetPoint" />
          </mxGeometry>
        </mxCell>
        <mxCell id="QewrAQwP1Hr6pBMhre-_-221" value="" style="endArrow=none;html=1;rounded=0;exitX=0.257;exitY=1.004;exitDx=0;exitDy=0;exitPerimeter=0;" edge="1" parent="QewrAQwP1Hr6pBMhre-_-203" source="QewrAQwP1Hr6pBMhre-_-205">
          <mxGeometry width="50" height="50" relative="1" as="geometry">
            <mxPoint x="110.5" y="90" as="sourcePoint" />
            <mxPoint x="110.5" y="30.440000000000055" as="targetPoint" />
          </mxGeometry>
        </mxCell>
        <mxCell id="QewrAQwP1Hr6pBMhre-_-222" value="" style="endArrow=none;html=1;rounded=0;exitX=0.44;exitY=1.003;exitDx=0;exitDy=0;exitPerimeter=0;" edge="1" parent="QewrAQwP1Hr6pBMhre-_-203" source="QewrAQwP1Hr6pBMhre-_-205">
          <mxGeometry width="50" height="50" relative="1" as="geometry">
            <mxPoint x="189.5" y="90" as="sourcePoint" />
            <mxPoint x="189.25" y="30" as="targetPoint" />
          </mxGeometry>
        </mxCell>
        <mxCell id="QewrAQwP1Hr6pBMhre-_-223" value="" style="endArrow=none;html=1;rounded=0;exitX=0.632;exitY=1.001;exitDx=0;exitDy=0;fontStyle=1;exitPerimeter=0;" edge="1" parent="QewrAQwP1Hr6pBMhre-_-203" source="QewrAQwP1Hr6pBMhre-_-205">
          <mxGeometry width="50" height="50" relative="1" as="geometry">
            <mxPoint x="271.8600000000001" y="90" as="sourcePoint" />
            <mxPoint x="271.25" y="30" as="targetPoint" />
          </mxGeometry>
        </mxCell>
        <mxCell id="QewrAQwP1Hr6pBMhre-_-224" value="" style="endArrow=none;html=1;rounded=0;exitX=0.818;exitY=1.003;exitDx=0;exitDy=0;exitPerimeter=0;" edge="1" parent="QewrAQwP1Hr6pBMhre-_-203" source="QewrAQwP1Hr6pBMhre-_-205">
          <mxGeometry width="50" height="50" relative="1" as="geometry">
            <mxPoint x="351.8600000000001" y="90" as="sourcePoint" />
            <mxPoint x="351.8600000000001" y="30.440000000000055" as="targetPoint" />
          </mxGeometry>
        </mxCell>
        <mxCell id="QewrAQwP1Hr6pBMhre-_-225" value="&lt;font face=&quot;Garamond&quot;&gt;Cost&lt;/font&gt;" style="text;html=1;align=center;verticalAlign=middle;whiteSpace=wrap;rounded=0;" vertex="1" parent="QewrAQwP1Hr6pBMhre-_-203">
          <mxGeometry x="44.25" y="32.210000000000036" width="60" height="30" as="geometry" />
        </mxCell>
        <mxCell id="QewrAQwP1Hr6pBMhre-_-226" value="" style="endArrow=diamondThin;html=1;rounded=0;shadow=0;glass=0;strokeColor=default;strokeWidth=1;align=center;verticalAlign=middle;fontFamily=Helvetica;fontSize=12;fontColor=default;fillColor=default;startArrow=diamondThin;startFill=0;endFill=0;" edge="1" parent="QewrAQwP1Hr6pBMhre-_-203">
          <mxGeometry width="50" height="50" relative="1" as="geometry">
            <mxPoint x="57.75" y="92.21000000000004" as="sourcePoint" />
            <mxPoint x="92.75" y="92.21000000000004" as="targetPoint" />
          </mxGeometry>
        </mxCell>
        <mxCell id="QewrAQwP1Hr6pBMhre-_-227" value="" style="group" vertex="1" connectable="0" parent="1">
          <mxGeometry x="1062" y="538" width="430" height="100" as="geometry" />
        </mxCell>
        <mxCell id="QewrAQwP1Hr6pBMhre-_-228" value="" style="endArrow=none;html=1;rounded=0;exitX=0;exitY=0.25;exitDx=0;exitDy=0;entryX=0;entryY=0.25;entryDx=0;entryDy=0;strokeWidth=1;" edge="1" parent="QewrAQwP1Hr6pBMhre-_-227">
          <mxGeometry width="50" height="50" relative="1" as="geometry">
            <mxPoint y="1.4400000000000546" as="sourcePoint" />
            <mxPoint x="430" y="1.4400000000000546" as="targetPoint" />
          </mxGeometry>
        </mxCell>
        <mxCell id="QewrAQwP1Hr6pBMhre-_-229" value="" style="rounded=0;whiteSpace=wrap;html=1;" vertex="1" parent="QewrAQwP1Hr6pBMhre-_-227">
          <mxGeometry width="430" height="100" as="geometry" />
        </mxCell>
        <mxCell id="QewrAQwP1Hr6pBMhre-_-230" value="&lt;font face=&quot;Garamond&quot;&gt;Special&lt;/font&gt;" style="text;html=1;align=center;verticalAlign=middle;whiteSpace=wrap;rounded=0;rotation=-90;" vertex="1" parent="QewrAQwP1Hr6pBMhre-_-227">
          <mxGeometry x="-9.5" y="32.210000000000036" width="60" height="30" as="geometry" />
        </mxCell>
        <mxCell id="QewrAQwP1Hr6pBMhre-_-231" value="" style="endArrow=diamondThin;html=1;rounded=0;shadow=0;glass=0;strokeColor=default;strokeWidth=1;align=center;verticalAlign=middle;fontFamily=Helvetica;fontSize=11;fontColor=default;fillColor=default;labelBackgroundColor=default;endFill=0;" edge="1" parent="QewrAQwP1Hr6pBMhre-_-227">
          <mxGeometry width="50" height="50" relative="1" as="geometry">
            <mxPoint x="52.5" y="23.440000000000055" as="sourcePoint" />
            <mxPoint x="216.5" y="23.440000000000055" as="targetPoint" />
          </mxGeometry>
        </mxCell>
        <mxCell id="QewrAQwP1Hr6pBMhre-_-232" value="" style="whiteSpace=wrap;html=1;aspect=fixed;rounded=0;shadow=0;glass=0;dashed=1;dashPattern=1 2;strokeColor=default;strokeWidth=0.5;align=center;verticalAlign=middle;fontFamily=Helvetica;fontSize=12;fontColor=default;fillColor=default;" vertex="1" parent="QewrAQwP1Hr6pBMhre-_-227">
          <mxGeometry x="324.5" y="8.440000000000055" width="15" height="15" as="geometry" />
        </mxCell>
        <mxCell id="QewrAQwP1Hr6pBMhre-_-233" value="" style="whiteSpace=wrap;html=1;aspect=fixed;rounded=0;shadow=0;glass=0;dashed=1;dashPattern=1 2;strokeColor=default;strokeWidth=0.5;align=center;verticalAlign=middle;fontFamily=Helvetica;fontSize=12;fontColor=default;fillColor=default;" vertex="1" parent="QewrAQwP1Hr6pBMhre-_-227">
          <mxGeometry x="364.5" y="8.440000000000055" width="15" height="15" as="geometry" />
        </mxCell>
        <mxCell id="QewrAQwP1Hr6pBMhre-_-234" value="" style="whiteSpace=wrap;html=1;aspect=fixed;rounded=0;shadow=0;glass=0;dashed=1;dashPattern=1 2;strokeColor=default;strokeWidth=0.5;align=center;verticalAlign=middle;fontFamily=Helvetica;fontSize=12;fontColor=default;fillColor=default;" vertex="1" parent="QewrAQwP1Hr6pBMhre-_-227">
          <mxGeometry x="384.5" y="8.440000000000055" width="15" height="15" as="geometry" />
        </mxCell>
        <mxCell id="QewrAQwP1Hr6pBMhre-_-235" value="" style="whiteSpace=wrap;html=1;aspect=fixed;rounded=0;shadow=0;glass=0;dashed=1;dashPattern=1 2;strokeColor=default;strokeWidth=0.5;align=center;verticalAlign=middle;fontFamily=Helvetica;fontSize=12;fontColor=default;fillColor=default;" vertex="1" parent="QewrAQwP1Hr6pBMhre-_-227">
          <mxGeometry x="404.5" y="8.440000000000055" width="15" height="15" as="geometry" />
        </mxCell>
        <mxCell id="QewrAQwP1Hr6pBMhre-_-236" value="" style="whiteSpace=wrap;html=1;aspect=fixed;rounded=0;shadow=0;glass=0;dashed=1;dashPattern=1 2;strokeColor=default;strokeWidth=0.5;align=center;verticalAlign=middle;fontFamily=Helvetica;fontSize=12;fontColor=default;fillColor=default;" vertex="1" parent="QewrAQwP1Hr6pBMhre-_-227">
          <mxGeometry x="224.5" y="8.440000000000055" width="15" height="15" as="geometry" />
        </mxCell>
        <mxCell id="QewrAQwP1Hr6pBMhre-_-237" value="" style="whiteSpace=wrap;html=1;aspect=fixed;rounded=0;shadow=0;glass=0;dashed=1;dashPattern=1 2;strokeColor=default;strokeWidth=0.5;align=center;verticalAlign=middle;fontFamily=Helvetica;fontSize=12;fontColor=default;fillColor=default;" vertex="1" parent="QewrAQwP1Hr6pBMhre-_-227">
          <mxGeometry x="244.5" y="8.440000000000055" width="15" height="15" as="geometry" />
        </mxCell>
        <mxCell id="QewrAQwP1Hr6pBMhre-_-238" value="" style="whiteSpace=wrap;html=1;aspect=fixed;rounded=0;shadow=0;glass=0;dashed=1;dashPattern=1 2;strokeColor=default;strokeWidth=0.5;align=center;verticalAlign=middle;fontFamily=Helvetica;fontSize=12;fontColor=default;fillColor=default;" vertex="1" parent="QewrAQwP1Hr6pBMhre-_-227">
          <mxGeometry x="264.5" y="8.440000000000055" width="15" height="15" as="geometry" />
        </mxCell>
        <mxCell id="QewrAQwP1Hr6pBMhre-_-239" value="" style="whiteSpace=wrap;html=1;aspect=fixed;rounded=0;shadow=0;glass=0;dashed=1;dashPattern=1 2;strokeColor=default;strokeWidth=0.5;align=center;verticalAlign=middle;fontFamily=Helvetica;fontSize=12;fontColor=default;fillColor=default;" vertex="1" parent="QewrAQwP1Hr6pBMhre-_-227">
          <mxGeometry x="284.5" y="8.440000000000055" width="15" height="15" as="geometry" />
        </mxCell>
        <mxCell id="QewrAQwP1Hr6pBMhre-_-240" value="" style="whiteSpace=wrap;html=1;aspect=fixed;rounded=0;shadow=0;glass=0;dashed=1;dashPattern=1 2;strokeColor=default;strokeWidth=0.5;align=center;verticalAlign=middle;fontFamily=Helvetica;fontSize=12;fontColor=default;fillColor=default;" vertex="1" parent="QewrAQwP1Hr6pBMhre-_-227">
          <mxGeometry x="304.5" y="8.440000000000055" width="15" height="15" as="geometry" />
        </mxCell>
        <mxCell id="QewrAQwP1Hr6pBMhre-_-241" value="" style="whiteSpace=wrap;html=1;aspect=fixed;rounded=0;shadow=0;glass=0;dashed=1;dashPattern=1 2;strokeColor=default;strokeWidth=0.5;align=center;verticalAlign=middle;fontFamily=Helvetica;fontSize=12;fontColor=default;fillColor=default;" vertex="1" parent="QewrAQwP1Hr6pBMhre-_-227">
          <mxGeometry x="344.5" y="8.440000000000055" width="15" height="15" as="geometry" />
        </mxCell>
        <mxCell id="QewrAQwP1Hr6pBMhre-_-242" value="&lt;font face=&quot;Garamond&quot;&gt;Name:&lt;/font&gt;" style="text;html=1;align=center;verticalAlign=middle;whiteSpace=wrap;rounded=0;fontSize=8;" vertex="1" parent="QewrAQwP1Hr6pBMhre-_-227">
          <mxGeometry x="49.5" y="11.720000000000027" width="27" height="12.56" as="geometry" />
        </mxCell>
        <mxCell id="QewrAQwP1Hr6pBMhre-_-243" value="" style="endArrow=none;html=1;rounded=0;exitX=0.091;exitY=1.006;exitDx=0;exitDy=0;exitPerimeter=0;entryX=0.086;entryY=0.003;entryDx=0;entryDy=0;entryPerimeter=0;" edge="1" parent="QewrAQwP1Hr6pBMhre-_-227" source="QewrAQwP1Hr6pBMhre-_-229">
          <mxGeometry width="50" height="50" relative="1" as="geometry">
            <mxPoint x="40" y="89.69000000000005" as="sourcePoint" />
            <mxPoint x="39.25" as="targetPoint" />
          </mxGeometry>
        </mxCell>
        <mxCell id="QewrAQwP1Hr6pBMhre-_-244" value="" style="endArrow=none;html=1;rounded=0;" edge="1" parent="QewrAQwP1Hr6pBMhre-_-227">
          <mxGeometry width="50" height="50" relative="1" as="geometry">
            <mxPoint x="39.5" y="30.440000000000055" as="sourcePoint" />
            <mxPoint x="429.5" y="30.440000000000055" as="targetPoint" />
          </mxGeometry>
        </mxCell>
        <mxCell id="QewrAQwP1Hr6pBMhre-_-245" value="" style="endArrow=none;html=1;rounded=0;exitX=0.257;exitY=1.004;exitDx=0;exitDy=0;exitPerimeter=0;" edge="1" parent="QewrAQwP1Hr6pBMhre-_-227" source="QewrAQwP1Hr6pBMhre-_-229">
          <mxGeometry width="50" height="50" relative="1" as="geometry">
            <mxPoint x="110.5" y="90" as="sourcePoint" />
            <mxPoint x="110.5" y="30.440000000000055" as="targetPoint" />
          </mxGeometry>
        </mxCell>
        <mxCell id="QewrAQwP1Hr6pBMhre-_-246" value="" style="endArrow=none;html=1;rounded=0;exitX=0.44;exitY=1.003;exitDx=0;exitDy=0;exitPerimeter=0;" edge="1" parent="QewrAQwP1Hr6pBMhre-_-227" source="QewrAQwP1Hr6pBMhre-_-229">
          <mxGeometry width="50" height="50" relative="1" as="geometry">
            <mxPoint x="189.5" y="90" as="sourcePoint" />
            <mxPoint x="189.25" y="30" as="targetPoint" />
          </mxGeometry>
        </mxCell>
        <mxCell id="QewrAQwP1Hr6pBMhre-_-247" value="" style="endArrow=none;html=1;rounded=0;exitX=0.632;exitY=1.001;exitDx=0;exitDy=0;fontStyle=1;exitPerimeter=0;" edge="1" parent="QewrAQwP1Hr6pBMhre-_-227" source="QewrAQwP1Hr6pBMhre-_-229">
          <mxGeometry width="50" height="50" relative="1" as="geometry">
            <mxPoint x="271.8600000000001" y="90" as="sourcePoint" />
            <mxPoint x="271.25" y="30" as="targetPoint" />
          </mxGeometry>
        </mxCell>
        <mxCell id="QewrAQwP1Hr6pBMhre-_-248" value="" style="endArrow=none;html=1;rounded=0;exitX=0.818;exitY=1.003;exitDx=0;exitDy=0;exitPerimeter=0;" edge="1" parent="QewrAQwP1Hr6pBMhre-_-227" source="QewrAQwP1Hr6pBMhre-_-229">
          <mxGeometry width="50" height="50" relative="1" as="geometry">
            <mxPoint x="351.8600000000001" y="90" as="sourcePoint" />
            <mxPoint x="351.8600000000001" y="30.440000000000055" as="targetPoint" />
          </mxGeometry>
        </mxCell>
        <mxCell id="QewrAQwP1Hr6pBMhre-_-249" value="&lt;font face=&quot;Garamond&quot;&gt;Cost&lt;/font&gt;" style="text;html=1;align=center;verticalAlign=middle;whiteSpace=wrap;rounded=0;" vertex="1" parent="QewrAQwP1Hr6pBMhre-_-227">
          <mxGeometry x="44.25" y="32.210000000000036" width="60" height="30" as="geometry" />
        </mxCell>
        <mxCell id="QewrAQwP1Hr6pBMhre-_-250" value="" style="endArrow=diamondThin;html=1;rounded=0;shadow=0;glass=0;strokeColor=default;strokeWidth=1;align=center;verticalAlign=middle;fontFamily=Helvetica;fontSize=12;fontColor=default;fillColor=default;startArrow=diamondThin;startFill=0;endFill=0;" edge="1" parent="QewrAQwP1Hr6pBMhre-_-227">
          <mxGeometry width="50" height="50" relative="1" as="geometry">
            <mxPoint x="57.75" y="92.21000000000004" as="sourcePoint" />
            <mxPoint x="92.75" y="92.21000000000004" as="targetPoint" />
          </mxGeometry>
        </mxCell>
        <mxCell id="QewrAQwP1Hr6pBMhre-_-400" value="" style="group" vertex="1" connectable="0" parent="1">
          <mxGeometry x="1510" y="40" width="433" height="600" as="geometry" />
        </mxCell>
        <mxCell id="QewrAQwP1Hr6pBMhre-_-251" value="" style="group" vertex="1" connectable="0" parent="QewrAQwP1Hr6pBMhre-_-400">
          <mxGeometry width="433" height="100.44" as="geometry" />
        </mxCell>
        <mxCell id="QewrAQwP1Hr6pBMhre-_-252" value="" style="rounded=0;whiteSpace=wrap;html=1;" vertex="1" parent="QewrAQwP1Hr6pBMhre-_-251">
          <mxGeometry x="3" width="430" height="99.44" as="geometry" />
        </mxCell>
        <mxCell id="QewrAQwP1Hr6pBMhre-_-253" value="" style="endArrow=none;html=1;rounded=0;" edge="1" parent="QewrAQwP1Hr6pBMhre-_-251">
          <mxGeometry width="50" height="50" relative="1" as="geometry">
            <mxPoint x="273" as="sourcePoint" />
            <mxPoint x="273" y="99" as="targetPoint" />
          </mxGeometry>
        </mxCell>
        <mxCell id="QewrAQwP1Hr6pBMhre-_-254" value="" style="endArrow=diamondThin;html=1;rounded=0;endFill=0;" edge="1" parent="QewrAQwP1Hr6pBMhre-_-251">
          <mxGeometry width="50" height="50" relative="1" as="geometry">
            <mxPoint x="19" y="26.439999999999998" as="sourcePoint" />
            <mxPoint x="149" y="26.439999999999998" as="targetPoint" />
          </mxGeometry>
        </mxCell>
        <mxCell id="QewrAQwP1Hr6pBMhre-_-255" value="" style="endArrow=diamondThin;html=1;rounded=0;endFill=0;" edge="1" parent="QewrAQwP1Hr6pBMhre-_-251">
          <mxGeometry width="50" height="50" relative="1" as="geometry">
            <mxPoint x="159" y="26.439999999999998" as="sourcePoint" />
            <mxPoint x="259" y="26.439999999999998" as="targetPoint" />
          </mxGeometry>
        </mxCell>
        <mxCell id="QewrAQwP1Hr6pBMhre-_-256" value="" style="endArrow=diamondThin;html=1;rounded=0;startArrow=diamondThin;startFill=0;endFill=0;" edge="1" parent="QewrAQwP1Hr6pBMhre-_-251">
          <mxGeometry width="50" height="50" relative="1" as="geometry">
            <mxPoint x="18" y="55.44" as="sourcePoint" />
            <mxPoint x="59" y="55.44" as="targetPoint" />
          </mxGeometry>
        </mxCell>
        <mxCell id="QewrAQwP1Hr6pBMhre-_-257" value="" style="whiteSpace=wrap;html=1;aspect=fixed;rounded=0;shadow=0;glass=0;dashed=1;dashPattern=1 2;strokeColor=default;strokeWidth=0.25;align=center;verticalAlign=middle;fontFamily=Helvetica;fontSize=12;fontColor=default;fillColor=default;" vertex="1" parent="QewrAQwP1Hr6pBMhre-_-251">
          <mxGeometry x="20" y="73.44" width="15" height="15" as="geometry" />
        </mxCell>
        <mxCell id="QewrAQwP1Hr6pBMhre-_-258" value="" style="whiteSpace=wrap;html=1;aspect=fixed;rounded=0;shadow=0;glass=0;dashed=1;dashPattern=1 2;strokeColor=default;strokeWidth=0.25;align=center;verticalAlign=middle;fontFamily=Helvetica;fontSize=12;fontColor=default;fillColor=default;" vertex="1" parent="QewrAQwP1Hr6pBMhre-_-251">
          <mxGeometry x="40" y="73.44" width="15" height="15" as="geometry" />
        </mxCell>
        <mxCell id="QewrAQwP1Hr6pBMhre-_-259" value="" style="whiteSpace=wrap;html=1;aspect=fixed;rounded=0;shadow=0;glass=0;dashed=1;dashPattern=1 2;strokeColor=default;strokeWidth=0.25;align=center;verticalAlign=middle;fontFamily=Helvetica;fontSize=12;fontColor=default;fillColor=default;" vertex="1" parent="QewrAQwP1Hr6pBMhre-_-251">
          <mxGeometry x="80" y="73.44" width="15" height="15" as="geometry" />
        </mxCell>
        <mxCell id="QewrAQwP1Hr6pBMhre-_-260" value="" style="whiteSpace=wrap;html=1;aspect=fixed;rounded=0;shadow=0;glass=0;dashed=1;dashPattern=1 2;strokeColor=default;strokeWidth=0.25;align=center;verticalAlign=middle;fontFamily=Helvetica;fontSize=12;fontColor=default;fillColor=default;" vertex="1" parent="QewrAQwP1Hr6pBMhre-_-251">
          <mxGeometry x="100" y="73.44" width="15" height="15" as="geometry" />
        </mxCell>
        <mxCell id="QewrAQwP1Hr6pBMhre-_-261" value="" style="whiteSpace=wrap;html=1;aspect=fixed;rounded=0;shadow=0;glass=0;dashed=1;dashPattern=1 2;strokeColor=default;strokeWidth=0.25;align=center;verticalAlign=middle;fontFamily=Helvetica;fontSize=12;fontColor=default;fillColor=default;" vertex="1" parent="QewrAQwP1Hr6pBMhre-_-251">
          <mxGeometry x="120" y="73.44" width="15" height="15" as="geometry" />
        </mxCell>
        <mxCell id="QewrAQwP1Hr6pBMhre-_-262" value="" style="whiteSpace=wrap;html=1;aspect=fixed;rounded=0;shadow=0;glass=0;dashed=1;dashPattern=1 2;strokeColor=default;strokeWidth=0.25;align=center;verticalAlign=middle;fontFamily=Helvetica;fontSize=12;fontColor=default;fillColor=default;" vertex="1" parent="QewrAQwP1Hr6pBMhre-_-251">
          <mxGeometry x="140" y="73.44" width="15" height="15" as="geometry" />
        </mxCell>
        <mxCell id="QewrAQwP1Hr6pBMhre-_-263" value="" style="whiteSpace=wrap;html=1;aspect=fixed;rounded=0;shadow=0;glass=0;dashed=1;dashPattern=1 2;strokeColor=default;strokeWidth=0.25;align=center;verticalAlign=middle;fontFamily=Helvetica;fontSize=12;fontColor=default;fillColor=default;" vertex="1" parent="QewrAQwP1Hr6pBMhre-_-251">
          <mxGeometry x="160" y="73.44" width="15" height="15" as="geometry" />
        </mxCell>
        <mxCell id="QewrAQwP1Hr6pBMhre-_-264" value="" style="whiteSpace=wrap;html=1;aspect=fixed;fontStyle=1;rounded=0;shadow=0;glass=0;dashed=1;dashPattern=1 2;strokeColor=default;strokeWidth=0.25;align=center;verticalAlign=middle;fontFamily=Helvetica;fontSize=12;fontColor=default;fillColor=default;" vertex="1" parent="QewrAQwP1Hr6pBMhre-_-251">
          <mxGeometry x="180" y="73.44" width="15" height="15" as="geometry" />
        </mxCell>
        <mxCell id="QewrAQwP1Hr6pBMhre-_-265" value="" style="whiteSpace=wrap;html=1;aspect=fixed;fontStyle=1;rounded=0;shadow=0;glass=0;dashed=1;dashPattern=1 2;strokeColor=default;strokeWidth=0.25;align=center;verticalAlign=middle;fontFamily=Helvetica;fontSize=12;fontColor=default;fillColor=default;" vertex="1" parent="QewrAQwP1Hr6pBMhre-_-251">
          <mxGeometry x="200" y="73.44" width="15" height="15" as="geometry" />
        </mxCell>
        <mxCell id="QewrAQwP1Hr6pBMhre-_-266" value="" style="endArrow=diamondThin;html=1;rounded=0;startArrow=diamondThin;startFill=0;endFill=0;" edge="1" parent="QewrAQwP1Hr6pBMhre-_-251">
          <mxGeometry width="50" height="50" relative="1" as="geometry">
            <mxPoint x="67" y="55.44000000000001" as="sourcePoint" />
            <mxPoint x="107" y="55.44000000000001" as="targetPoint" />
          </mxGeometry>
        </mxCell>
        <mxCell id="QewrAQwP1Hr6pBMhre-_-267" value="" style="endArrow=diamondThin;html=1;rounded=0;startArrow=diamondThin;startFill=0;endFill=0;" edge="1" parent="QewrAQwP1Hr6pBMhre-_-251">
          <mxGeometry width="50" height="50" relative="1" as="geometry">
            <mxPoint x="115" y="55.44000000000001" as="sourcePoint" />
            <mxPoint x="156" y="55.44000000000001" as="targetPoint" />
          </mxGeometry>
        </mxCell>
        <mxCell id="QewrAQwP1Hr6pBMhre-_-268" value="" style="endArrow=diamondThin;html=1;rounded=0;startArrow=diamondThin;startFill=0;endFill=0;" edge="1" parent="QewrAQwP1Hr6pBMhre-_-251">
          <mxGeometry width="50" height="50" relative="1" as="geometry">
            <mxPoint x="165" y="55.44000000000001" as="sourcePoint" />
            <mxPoint x="208" y="55.44000000000001" as="targetPoint" />
          </mxGeometry>
        </mxCell>
        <mxCell id="QewrAQwP1Hr6pBMhre-_-269" value="" style="endArrow=diamondThin;html=1;rounded=0;startArrow=diamondThin;startFill=0;endFill=0;" edge="1" parent="QewrAQwP1Hr6pBMhre-_-251">
          <mxGeometry width="50" height="50" relative="1" as="geometry">
            <mxPoint x="217" y="55.44000000000001" as="sourcePoint" />
            <mxPoint x="259" y="55.44000000000001" as="targetPoint" />
          </mxGeometry>
        </mxCell>
        <mxCell id="QewrAQwP1Hr6pBMhre-_-270" value="" style="whiteSpace=wrap;html=1;aspect=fixed;rounded=0;shadow=0;glass=0;dashed=1;dashPattern=1 2;strokeColor=default;strokeWidth=0.25;align=center;verticalAlign=middle;fontFamily=Helvetica;fontSize=12;fontColor=default;fillColor=default;" vertex="1" parent="QewrAQwP1Hr6pBMhre-_-251">
          <mxGeometry x="220" y="73.44" width="15" height="15" as="geometry" />
        </mxCell>
        <mxCell id="QewrAQwP1Hr6pBMhre-_-271" value="" style="whiteSpace=wrap;html=1;aspect=fixed;rounded=0;shadow=0;glass=0;dashed=1;dashPattern=1 2;strokeColor=default;strokeWidth=0.25;align=center;verticalAlign=middle;fontFamily=Helvetica;fontSize=12;fontColor=default;fillColor=default;" vertex="1" parent="QewrAQwP1Hr6pBMhre-_-251">
          <mxGeometry x="240" y="73.44" width="15" height="15" as="geometry" />
        </mxCell>
        <mxCell id="QewrAQwP1Hr6pBMhre-_-272" value="&lt;font face=&quot;Garamond&quot;&gt;Name&lt;/font&gt;" style="text;html=1;align=center;verticalAlign=middle;whiteSpace=wrap;rounded=0;fontSize=8;" vertex="1" parent="QewrAQwP1Hr6pBMhre-_-251">
          <mxGeometry y="17.439999999999998" width="60" height="30" as="geometry" />
        </mxCell>
        <mxCell id="QewrAQwP1Hr6pBMhre-_-273" value="&lt;font face=&quot;Garamond&quot;&gt;Class&lt;/font&gt;" style="text;html=1;align=center;verticalAlign=middle;whiteSpace=wrap;rounded=0;fontSize=8;" vertex="1" parent="QewrAQwP1Hr6pBMhre-_-251">
          <mxGeometry x="139.5" y="17.439999999999998" width="60" height="30" as="geometry" />
        </mxCell>
        <mxCell id="QewrAQwP1Hr6pBMhre-_-274" value="&lt;font face=&quot;Garamond&quot;&gt;Size&lt;/font&gt;" style="text;html=1;align=center;verticalAlign=middle;whiteSpace=wrap;rounded=0;fontSize=8;" vertex="1" parent="QewrAQwP1Hr6pBMhre-_-251">
          <mxGeometry x="28.75" y="56.22" width="17.5" height="10.44" as="geometry" />
        </mxCell>
        <mxCell id="QewrAQwP1Hr6pBMhre-_-275" value="&lt;font face=&quot;Garamond&quot;&gt;Hull&lt;/font&gt;" style="text;html=1;align=center;verticalAlign=middle;whiteSpace=wrap;rounded=0;fontSize=8;" vertex="1" parent="QewrAQwP1Hr6pBMhre-_-251">
          <mxGeometry x="74" y="56.22" width="27" height="10.44" as="geometry" />
        </mxCell>
        <mxCell id="QewrAQwP1Hr6pBMhre-_-276" value="&lt;font face=&quot;Garamond&quot;&gt;Speed&lt;/font&gt;" style="text;html=1;align=center;verticalAlign=middle;whiteSpace=wrap;rounded=0;fontSize=8;" vertex="1" parent="QewrAQwP1Hr6pBMhre-_-251">
          <mxGeometry x="121" y="56.22" width="29" height="10.44" as="geometry" />
        </mxCell>
        <mxCell id="QewrAQwP1Hr6pBMhre-_-277" value="&lt;font face=&quot;Garamond&quot;&gt;Armor&lt;/font&gt;" style="text;html=1;align=center;verticalAlign=middle;whiteSpace=wrap;rounded=0;fontSize=8;" vertex="1" parent="QewrAQwP1Hr6pBMhre-_-251">
          <mxGeometry x="172" y="56.22" width="29" height="10.44" as="geometry" />
        </mxCell>
        <mxCell id="QewrAQwP1Hr6pBMhre-_-278" value="&lt;font face=&quot;Garamond&quot;&gt;Shields&lt;/font&gt;" style="text;html=1;align=center;verticalAlign=middle;whiteSpace=wrap;rounded=0;fontSize=8;" vertex="1" parent="QewrAQwP1Hr6pBMhre-_-251">
          <mxGeometry x="227.25" y="56.22" width="27" height="10.44" as="geometry" />
        </mxCell>
        <mxCell id="QewrAQwP1Hr6pBMhre-_-279" value="" style="whiteSpace=wrap;html=1;aspect=fixed;rounded=0;shadow=0;glass=0;dashed=1;dashPattern=1 2;strokeColor=default;strokeWidth=0.25;align=center;verticalAlign=middle;fontFamily=Helvetica;fontSize=12;fontColor=default;fillColor=default;" vertex="1" parent="QewrAQwP1Hr6pBMhre-_-251">
          <mxGeometry x="60" y="73.44" width="15" height="15" as="geometry" />
        </mxCell>
        <mxCell id="QewrAQwP1Hr6pBMhre-_-280" value="" style="group" vertex="1" connectable="0" parent="QewrAQwP1Hr6pBMhre-_-400">
          <mxGeometry x="3" y="100" width="430" height="100" as="geometry" />
        </mxCell>
        <mxCell id="QewrAQwP1Hr6pBMhre-_-281" value="" style="endArrow=none;html=1;rounded=0;exitX=0;exitY=0.25;exitDx=0;exitDy=0;entryX=0;entryY=0.25;entryDx=0;entryDy=0;strokeWidth=1;" edge="1" parent="QewrAQwP1Hr6pBMhre-_-280">
          <mxGeometry width="50" height="50" relative="1" as="geometry">
            <mxPoint y="1.4400000000000546" as="sourcePoint" />
            <mxPoint x="430" y="1.4400000000000546" as="targetPoint" />
          </mxGeometry>
        </mxCell>
        <mxCell id="QewrAQwP1Hr6pBMhre-_-282" value="" style="rounded=0;whiteSpace=wrap;html=1;" vertex="1" parent="QewrAQwP1Hr6pBMhre-_-280">
          <mxGeometry width="430" height="100" as="geometry" />
        </mxCell>
        <mxCell id="QewrAQwP1Hr6pBMhre-_-283" value="&lt;font face=&quot;Garamond&quot;&gt;Front&lt;/font&gt;" style="text;html=1;align=center;verticalAlign=middle;whiteSpace=wrap;rounded=0;rotation=-90;" vertex="1" parent="QewrAQwP1Hr6pBMhre-_-280">
          <mxGeometry x="-9.5" y="32.210000000000036" width="60" height="30" as="geometry" />
        </mxCell>
        <mxCell id="QewrAQwP1Hr6pBMhre-_-284" value="" style="endArrow=diamondThin;html=1;rounded=0;shadow=0;glass=0;strokeColor=default;strokeWidth=1;align=center;verticalAlign=middle;fontFamily=Helvetica;fontSize=11;fontColor=default;fillColor=default;labelBackgroundColor=default;endFill=0;" edge="1" parent="QewrAQwP1Hr6pBMhre-_-280">
          <mxGeometry width="50" height="50" relative="1" as="geometry">
            <mxPoint x="52.5" y="23.440000000000055" as="sourcePoint" />
            <mxPoint x="216.5" y="23.440000000000055" as="targetPoint" />
          </mxGeometry>
        </mxCell>
        <mxCell id="QewrAQwP1Hr6pBMhre-_-285" value="" style="whiteSpace=wrap;html=1;aspect=fixed;rounded=0;shadow=0;glass=0;dashed=1;dashPattern=1 2;strokeColor=default;strokeWidth=0.25;align=center;verticalAlign=middle;fontFamily=Helvetica;fontSize=12;fontColor=default;fillColor=default;" vertex="1" parent="QewrAQwP1Hr6pBMhre-_-280">
          <mxGeometry x="324.5" y="8.440000000000055" width="15" height="15" as="geometry" />
        </mxCell>
        <mxCell id="QewrAQwP1Hr6pBMhre-_-286" value="" style="whiteSpace=wrap;html=1;aspect=fixed;rounded=0;shadow=0;glass=0;dashed=1;dashPattern=1 2;strokeColor=default;strokeWidth=0.25;align=center;verticalAlign=middle;fontFamily=Helvetica;fontSize=12;fontColor=default;fillColor=default;" vertex="1" parent="QewrAQwP1Hr6pBMhre-_-280">
          <mxGeometry x="364.5" y="8.440000000000055" width="15" height="15" as="geometry" />
        </mxCell>
        <mxCell id="QewrAQwP1Hr6pBMhre-_-287" value="" style="whiteSpace=wrap;html=1;aspect=fixed;rounded=0;shadow=0;glass=0;dashed=1;dashPattern=1 2;strokeColor=default;strokeWidth=0.25;align=center;verticalAlign=middle;fontFamily=Helvetica;fontSize=12;fontColor=default;fillColor=default;" vertex="1" parent="QewrAQwP1Hr6pBMhre-_-280">
          <mxGeometry x="384.5" y="8.440000000000055" width="15" height="15" as="geometry" />
        </mxCell>
        <mxCell id="QewrAQwP1Hr6pBMhre-_-288" value="" style="whiteSpace=wrap;html=1;aspect=fixed;rounded=0;shadow=0;glass=0;dashed=1;dashPattern=1 2;strokeColor=default;strokeWidth=0.25;align=center;verticalAlign=middle;fontFamily=Helvetica;fontSize=12;fontColor=default;fillColor=default;" vertex="1" parent="QewrAQwP1Hr6pBMhre-_-280">
          <mxGeometry x="404.5" y="8.440000000000055" width="15" height="15" as="geometry" />
        </mxCell>
        <mxCell id="QewrAQwP1Hr6pBMhre-_-289" value="" style="whiteSpace=wrap;html=1;aspect=fixed;rounded=0;shadow=0;glass=0;dashed=1;dashPattern=1 2;strokeColor=default;strokeWidth=0.25;align=center;verticalAlign=middle;fontFamily=Helvetica;fontSize=12;fontColor=default;fillColor=default;" vertex="1" parent="QewrAQwP1Hr6pBMhre-_-280">
          <mxGeometry x="224.5" y="8.440000000000055" width="15" height="15" as="geometry" />
        </mxCell>
        <mxCell id="QewrAQwP1Hr6pBMhre-_-290" value="" style="whiteSpace=wrap;html=1;aspect=fixed;rounded=0;shadow=0;glass=0;dashed=1;dashPattern=1 2;strokeColor=default;strokeWidth=0.25;align=center;verticalAlign=middle;fontFamily=Helvetica;fontSize=12;fontColor=default;fillColor=default;" vertex="1" parent="QewrAQwP1Hr6pBMhre-_-280">
          <mxGeometry x="244.5" y="8.440000000000055" width="15" height="15" as="geometry" />
        </mxCell>
        <mxCell id="QewrAQwP1Hr6pBMhre-_-291" value="" style="whiteSpace=wrap;html=1;aspect=fixed;rounded=0;shadow=0;glass=0;dashed=1;dashPattern=1 2;strokeColor=default;strokeWidth=0.25;align=center;verticalAlign=middle;fontFamily=Helvetica;fontSize=12;fontColor=default;fillColor=default;" vertex="1" parent="QewrAQwP1Hr6pBMhre-_-280">
          <mxGeometry x="264.5" y="8.440000000000055" width="15" height="15" as="geometry" />
        </mxCell>
        <mxCell id="QewrAQwP1Hr6pBMhre-_-292" value="" style="whiteSpace=wrap;html=1;aspect=fixed;rounded=0;shadow=0;glass=0;dashed=1;dashPattern=1 2;strokeColor=default;strokeWidth=0.25;align=center;verticalAlign=middle;fontFamily=Helvetica;fontSize=12;fontColor=default;fillColor=default;" vertex="1" parent="QewrAQwP1Hr6pBMhre-_-280">
          <mxGeometry x="284.5" y="8.440000000000055" width="15" height="15" as="geometry" />
        </mxCell>
        <mxCell id="QewrAQwP1Hr6pBMhre-_-293" value="" style="whiteSpace=wrap;html=1;aspect=fixed;rounded=0;shadow=0;glass=0;dashed=1;dashPattern=1 2;strokeColor=default;strokeWidth=0.25;align=center;verticalAlign=middle;fontFamily=Helvetica;fontSize=12;fontColor=default;fillColor=default;" vertex="1" parent="QewrAQwP1Hr6pBMhre-_-280">
          <mxGeometry x="304.5" y="8.440000000000055" width="15" height="15" as="geometry" />
        </mxCell>
        <mxCell id="QewrAQwP1Hr6pBMhre-_-294" value="" style="whiteSpace=wrap;html=1;aspect=fixed;rounded=0;shadow=0;glass=0;dashed=1;dashPattern=1 2;strokeColor=default;strokeWidth=0.25;align=center;verticalAlign=middle;fontFamily=Helvetica;fontSize=12;fontColor=default;fillColor=default;" vertex="1" parent="QewrAQwP1Hr6pBMhre-_-280">
          <mxGeometry x="344.5" y="8.440000000000055" width="15" height="15" as="geometry" />
        </mxCell>
        <mxCell id="QewrAQwP1Hr6pBMhre-_-295" value="&lt;font face=&quot;Garamond&quot;&gt;Name:&lt;/font&gt;" style="text;html=1;align=center;verticalAlign=middle;whiteSpace=wrap;rounded=0;fontSize=8;" vertex="1" parent="QewrAQwP1Hr6pBMhre-_-280">
          <mxGeometry x="49.5" y="11.720000000000027" width="27" height="12.56" as="geometry" />
        </mxCell>
        <mxCell id="QewrAQwP1Hr6pBMhre-_-296" value="" style="endArrow=none;html=1;rounded=0;exitX=0.091;exitY=1.006;exitDx=0;exitDy=0;exitPerimeter=0;entryX=0.086;entryY=0.003;entryDx=0;entryDy=0;entryPerimeter=0;" edge="1" parent="QewrAQwP1Hr6pBMhre-_-280" source="QewrAQwP1Hr6pBMhre-_-282">
          <mxGeometry width="50" height="50" relative="1" as="geometry">
            <mxPoint x="40" y="89.69000000000005" as="sourcePoint" />
            <mxPoint x="39.25" as="targetPoint" />
          </mxGeometry>
        </mxCell>
        <mxCell id="QewrAQwP1Hr6pBMhre-_-297" value="" style="endArrow=none;html=1;rounded=0;" edge="1" parent="QewrAQwP1Hr6pBMhre-_-280">
          <mxGeometry width="50" height="50" relative="1" as="geometry">
            <mxPoint x="39.5" y="30.440000000000055" as="sourcePoint" />
            <mxPoint x="429.5" y="30.440000000000055" as="targetPoint" />
          </mxGeometry>
        </mxCell>
        <mxCell id="QewrAQwP1Hr6pBMhre-_-298" value="" style="endArrow=none;html=1;rounded=0;exitX=0.257;exitY=1.004;exitDx=0;exitDy=0;exitPerimeter=0;" edge="1" parent="QewrAQwP1Hr6pBMhre-_-280" source="QewrAQwP1Hr6pBMhre-_-282">
          <mxGeometry width="50" height="50" relative="1" as="geometry">
            <mxPoint x="110.5" y="90" as="sourcePoint" />
            <mxPoint x="110.5" y="30.440000000000055" as="targetPoint" />
          </mxGeometry>
        </mxCell>
        <mxCell id="QewrAQwP1Hr6pBMhre-_-299" value="" style="endArrow=none;html=1;rounded=0;exitX=0.44;exitY=1.003;exitDx=0;exitDy=0;exitPerimeter=0;" edge="1" parent="QewrAQwP1Hr6pBMhre-_-280" source="QewrAQwP1Hr6pBMhre-_-282">
          <mxGeometry width="50" height="50" relative="1" as="geometry">
            <mxPoint x="189.5" y="90" as="sourcePoint" />
            <mxPoint x="189.25" y="30" as="targetPoint" />
          </mxGeometry>
        </mxCell>
        <mxCell id="QewrAQwP1Hr6pBMhre-_-300" value="" style="endArrow=none;html=1;rounded=0;exitX=0.632;exitY=1.001;exitDx=0;exitDy=0;fontStyle=1;exitPerimeter=0;" edge="1" parent="QewrAQwP1Hr6pBMhre-_-280" source="QewrAQwP1Hr6pBMhre-_-282">
          <mxGeometry width="50" height="50" relative="1" as="geometry">
            <mxPoint x="271.8600000000001" y="90" as="sourcePoint" />
            <mxPoint x="271.25" y="30" as="targetPoint" />
          </mxGeometry>
        </mxCell>
        <mxCell id="QewrAQwP1Hr6pBMhre-_-301" value="" style="endArrow=none;html=1;rounded=0;exitX=0.818;exitY=1.003;exitDx=0;exitDy=0;exitPerimeter=0;" edge="1" parent="QewrAQwP1Hr6pBMhre-_-280" source="QewrAQwP1Hr6pBMhre-_-282">
          <mxGeometry width="50" height="50" relative="1" as="geometry">
            <mxPoint x="351.8600000000001" y="90" as="sourcePoint" />
            <mxPoint x="351.8600000000001" y="30.440000000000055" as="targetPoint" />
          </mxGeometry>
        </mxCell>
        <mxCell id="QewrAQwP1Hr6pBMhre-_-302" value="&lt;font face=&quot;Garamond&quot;&gt;Cost&lt;/font&gt;" style="text;html=1;align=center;verticalAlign=middle;whiteSpace=wrap;rounded=0;" vertex="1" parent="QewrAQwP1Hr6pBMhre-_-280">
          <mxGeometry x="44.25" y="32.210000000000036" width="60" height="30" as="geometry" />
        </mxCell>
        <mxCell id="QewrAQwP1Hr6pBMhre-_-303" value="" style="endArrow=diamondThin;html=1;rounded=0;shadow=0;glass=0;strokeColor=default;strokeWidth=1;align=center;verticalAlign=middle;fontFamily=Helvetica;fontSize=12;fontColor=default;fillColor=default;startArrow=diamondThin;startFill=0;endFill=0;" edge="1" parent="QewrAQwP1Hr6pBMhre-_-280">
          <mxGeometry width="50" height="50" relative="1" as="geometry">
            <mxPoint x="57.75" y="92.21000000000004" as="sourcePoint" />
            <mxPoint x="92.75" y="92.21000000000004" as="targetPoint" />
          </mxGeometry>
        </mxCell>
        <mxCell id="QewrAQwP1Hr6pBMhre-_-304" value="" style="group" vertex="1" connectable="0" parent="QewrAQwP1Hr6pBMhre-_-400">
          <mxGeometry x="3" y="200" width="430" height="100" as="geometry" />
        </mxCell>
        <mxCell id="QewrAQwP1Hr6pBMhre-_-305" value="" style="endArrow=none;html=1;rounded=0;exitX=0;exitY=0.25;exitDx=0;exitDy=0;entryX=0;entryY=0.25;entryDx=0;entryDy=0;strokeWidth=1;" edge="1" parent="QewrAQwP1Hr6pBMhre-_-304">
          <mxGeometry width="50" height="50" relative="1" as="geometry">
            <mxPoint y="1.4400000000000546" as="sourcePoint" />
            <mxPoint x="430" y="1.4400000000000546" as="targetPoint" />
          </mxGeometry>
        </mxCell>
        <mxCell id="QewrAQwP1Hr6pBMhre-_-306" value="" style="rounded=0;whiteSpace=wrap;html=1;" vertex="1" parent="QewrAQwP1Hr6pBMhre-_-304">
          <mxGeometry width="430" height="100" as="geometry" />
        </mxCell>
        <mxCell id="QewrAQwP1Hr6pBMhre-_-307" value="&lt;font face=&quot;Garamond&quot;&gt;Sides&lt;/font&gt;" style="text;html=1;align=center;verticalAlign=middle;whiteSpace=wrap;rounded=0;rotation=-90;" vertex="1" parent="QewrAQwP1Hr6pBMhre-_-304">
          <mxGeometry x="-9.5" y="32.210000000000036" width="60" height="30" as="geometry" />
        </mxCell>
        <mxCell id="QewrAQwP1Hr6pBMhre-_-308" value="" style="endArrow=diamondThin;html=1;rounded=0;shadow=0;glass=0;strokeColor=default;strokeWidth=1;align=center;verticalAlign=middle;fontFamily=Helvetica;fontSize=11;fontColor=default;fillColor=default;labelBackgroundColor=default;endFill=0;" edge="1" parent="QewrAQwP1Hr6pBMhre-_-304">
          <mxGeometry width="50" height="50" relative="1" as="geometry">
            <mxPoint x="52.5" y="23.440000000000055" as="sourcePoint" />
            <mxPoint x="216.5" y="23.440000000000055" as="targetPoint" />
          </mxGeometry>
        </mxCell>
        <mxCell id="QewrAQwP1Hr6pBMhre-_-309" value="" style="whiteSpace=wrap;html=1;aspect=fixed;rounded=0;shadow=0;glass=0;dashed=1;dashPattern=1 2;strokeColor=default;strokeWidth=0.25;align=center;verticalAlign=middle;fontFamily=Helvetica;fontSize=12;fontColor=default;fillColor=default;" vertex="1" parent="QewrAQwP1Hr6pBMhre-_-304">
          <mxGeometry x="324.5" y="8.440000000000055" width="15" height="15" as="geometry" />
        </mxCell>
        <mxCell id="QewrAQwP1Hr6pBMhre-_-310" value="" style="whiteSpace=wrap;html=1;aspect=fixed;rounded=0;shadow=0;glass=0;dashed=1;dashPattern=1 2;strokeColor=default;strokeWidth=0.25;align=center;verticalAlign=middle;fontFamily=Helvetica;fontSize=12;fontColor=default;fillColor=default;" vertex="1" parent="QewrAQwP1Hr6pBMhre-_-304">
          <mxGeometry x="364.5" y="8.440000000000055" width="15" height="15" as="geometry" />
        </mxCell>
        <mxCell id="QewrAQwP1Hr6pBMhre-_-311" value="" style="whiteSpace=wrap;html=1;aspect=fixed;rounded=0;shadow=0;glass=0;dashed=1;dashPattern=1 2;strokeColor=default;strokeWidth=0.25;align=center;verticalAlign=middle;fontFamily=Helvetica;fontSize=12;fontColor=default;fillColor=default;" vertex="1" parent="QewrAQwP1Hr6pBMhre-_-304">
          <mxGeometry x="384.5" y="8.440000000000055" width="15" height="15" as="geometry" />
        </mxCell>
        <mxCell id="QewrAQwP1Hr6pBMhre-_-312" value="" style="whiteSpace=wrap;html=1;aspect=fixed;rounded=0;shadow=0;glass=0;dashed=1;dashPattern=1 2;strokeColor=default;strokeWidth=0.25;align=center;verticalAlign=middle;fontFamily=Helvetica;fontSize=12;fontColor=default;fillColor=default;" vertex="1" parent="QewrAQwP1Hr6pBMhre-_-304">
          <mxGeometry x="404.5" y="8.440000000000055" width="15" height="15" as="geometry" />
        </mxCell>
        <mxCell id="QewrAQwP1Hr6pBMhre-_-313" value="" style="whiteSpace=wrap;html=1;aspect=fixed;rounded=0;shadow=0;glass=0;dashed=1;dashPattern=1 2;strokeColor=default;strokeWidth=0.25;align=center;verticalAlign=middle;fontFamily=Helvetica;fontSize=12;fontColor=default;fillColor=default;" vertex="1" parent="QewrAQwP1Hr6pBMhre-_-304">
          <mxGeometry x="224.5" y="8.440000000000055" width="15" height="15" as="geometry" />
        </mxCell>
        <mxCell id="QewrAQwP1Hr6pBMhre-_-314" value="" style="whiteSpace=wrap;html=1;aspect=fixed;rounded=0;shadow=0;glass=0;dashed=1;dashPattern=1 2;strokeColor=default;strokeWidth=0.25;align=center;verticalAlign=middle;fontFamily=Helvetica;fontSize=12;fontColor=default;fillColor=default;" vertex="1" parent="QewrAQwP1Hr6pBMhre-_-304">
          <mxGeometry x="244.5" y="8.440000000000055" width="15" height="15" as="geometry" />
        </mxCell>
        <mxCell id="QewrAQwP1Hr6pBMhre-_-315" value="" style="whiteSpace=wrap;html=1;aspect=fixed;rounded=0;shadow=0;glass=0;dashed=1;dashPattern=1 2;strokeColor=default;strokeWidth=0.25;align=center;verticalAlign=middle;fontFamily=Helvetica;fontSize=12;fontColor=default;fillColor=default;" vertex="1" parent="QewrAQwP1Hr6pBMhre-_-304">
          <mxGeometry x="264.5" y="8.440000000000055" width="15" height="15" as="geometry" />
        </mxCell>
        <mxCell id="QewrAQwP1Hr6pBMhre-_-316" value="" style="whiteSpace=wrap;html=1;aspect=fixed;rounded=0;shadow=0;glass=0;dashed=1;dashPattern=1 2;strokeColor=default;strokeWidth=0.25;align=center;verticalAlign=middle;fontFamily=Helvetica;fontSize=12;fontColor=default;fillColor=default;" vertex="1" parent="QewrAQwP1Hr6pBMhre-_-304">
          <mxGeometry x="284.5" y="8.440000000000055" width="15" height="15" as="geometry" />
        </mxCell>
        <mxCell id="QewrAQwP1Hr6pBMhre-_-317" value="" style="whiteSpace=wrap;html=1;aspect=fixed;rounded=0;shadow=0;glass=0;dashed=1;dashPattern=1 2;strokeColor=default;strokeWidth=0.25;align=center;verticalAlign=middle;fontFamily=Helvetica;fontSize=12;fontColor=default;fillColor=default;" vertex="1" parent="QewrAQwP1Hr6pBMhre-_-304">
          <mxGeometry x="304.5" y="8.440000000000055" width="15" height="15" as="geometry" />
        </mxCell>
        <mxCell id="QewrAQwP1Hr6pBMhre-_-318" value="" style="whiteSpace=wrap;html=1;aspect=fixed;rounded=0;shadow=0;glass=0;dashed=1;dashPattern=1 2;strokeColor=default;strokeWidth=0.25;align=center;verticalAlign=middle;fontFamily=Helvetica;fontSize=12;fontColor=default;fillColor=default;" vertex="1" parent="QewrAQwP1Hr6pBMhre-_-304">
          <mxGeometry x="344.5" y="8.440000000000055" width="15" height="15" as="geometry" />
        </mxCell>
        <mxCell id="QewrAQwP1Hr6pBMhre-_-319" value="&lt;font face=&quot;Garamond&quot;&gt;Name:&lt;/font&gt;" style="text;html=1;align=center;verticalAlign=middle;whiteSpace=wrap;rounded=0;fontSize=8;" vertex="1" parent="QewrAQwP1Hr6pBMhre-_-304">
          <mxGeometry x="49.5" y="11.720000000000027" width="27" height="12.56" as="geometry" />
        </mxCell>
        <mxCell id="QewrAQwP1Hr6pBMhre-_-320" value="" style="endArrow=none;html=1;rounded=0;exitX=0.091;exitY=1.006;exitDx=0;exitDy=0;exitPerimeter=0;entryX=0.086;entryY=0.003;entryDx=0;entryDy=0;entryPerimeter=0;" edge="1" parent="QewrAQwP1Hr6pBMhre-_-304" source="QewrAQwP1Hr6pBMhre-_-306">
          <mxGeometry width="50" height="50" relative="1" as="geometry">
            <mxPoint x="40" y="89.69000000000005" as="sourcePoint" />
            <mxPoint x="39.25" as="targetPoint" />
          </mxGeometry>
        </mxCell>
        <mxCell id="QewrAQwP1Hr6pBMhre-_-321" value="" style="endArrow=none;html=1;rounded=0;" edge="1" parent="QewrAQwP1Hr6pBMhre-_-304">
          <mxGeometry width="50" height="50" relative="1" as="geometry">
            <mxPoint x="39.5" y="30.440000000000055" as="sourcePoint" />
            <mxPoint x="429.5" y="30.440000000000055" as="targetPoint" />
          </mxGeometry>
        </mxCell>
        <mxCell id="QewrAQwP1Hr6pBMhre-_-322" value="" style="endArrow=none;html=1;rounded=0;exitX=0.257;exitY=1.004;exitDx=0;exitDy=0;exitPerimeter=0;" edge="1" parent="QewrAQwP1Hr6pBMhre-_-304" source="QewrAQwP1Hr6pBMhre-_-306">
          <mxGeometry width="50" height="50" relative="1" as="geometry">
            <mxPoint x="110.5" y="90" as="sourcePoint" />
            <mxPoint x="110.5" y="30.440000000000055" as="targetPoint" />
          </mxGeometry>
        </mxCell>
        <mxCell id="QewrAQwP1Hr6pBMhre-_-323" value="" style="endArrow=none;html=1;rounded=0;exitX=0.44;exitY=1.003;exitDx=0;exitDy=0;exitPerimeter=0;" edge="1" parent="QewrAQwP1Hr6pBMhre-_-304" source="QewrAQwP1Hr6pBMhre-_-306">
          <mxGeometry width="50" height="50" relative="1" as="geometry">
            <mxPoint x="189.5" y="90" as="sourcePoint" />
            <mxPoint x="189.25" y="30" as="targetPoint" />
          </mxGeometry>
        </mxCell>
        <mxCell id="QewrAQwP1Hr6pBMhre-_-324" value="" style="endArrow=none;html=1;rounded=0;exitX=0.632;exitY=1.001;exitDx=0;exitDy=0;fontStyle=1;exitPerimeter=0;" edge="1" parent="QewrAQwP1Hr6pBMhre-_-304" source="QewrAQwP1Hr6pBMhre-_-306">
          <mxGeometry width="50" height="50" relative="1" as="geometry">
            <mxPoint x="271.8600000000001" y="90" as="sourcePoint" />
            <mxPoint x="271.25" y="30" as="targetPoint" />
          </mxGeometry>
        </mxCell>
        <mxCell id="QewrAQwP1Hr6pBMhre-_-325" value="" style="endArrow=none;html=1;rounded=0;exitX=0.818;exitY=1.003;exitDx=0;exitDy=0;exitPerimeter=0;" edge="1" parent="QewrAQwP1Hr6pBMhre-_-304" source="QewrAQwP1Hr6pBMhre-_-306">
          <mxGeometry width="50" height="50" relative="1" as="geometry">
            <mxPoint x="351.8600000000001" y="90" as="sourcePoint" />
            <mxPoint x="351.8600000000001" y="30.440000000000055" as="targetPoint" />
          </mxGeometry>
        </mxCell>
        <mxCell id="QewrAQwP1Hr6pBMhre-_-326" value="&lt;font face=&quot;Garamond&quot;&gt;Cost&lt;/font&gt;" style="text;html=1;align=center;verticalAlign=middle;whiteSpace=wrap;rounded=0;" vertex="1" parent="QewrAQwP1Hr6pBMhre-_-304">
          <mxGeometry x="44.25" y="32.210000000000036" width="60" height="30" as="geometry" />
        </mxCell>
        <mxCell id="QewrAQwP1Hr6pBMhre-_-327" value="" style="endArrow=diamondThin;html=1;rounded=0;shadow=0;glass=0;strokeColor=default;strokeWidth=1;align=center;verticalAlign=middle;fontFamily=Helvetica;fontSize=12;fontColor=default;fillColor=default;startArrow=diamondThin;startFill=0;endFill=0;" edge="1" parent="QewrAQwP1Hr6pBMhre-_-304">
          <mxGeometry width="50" height="50" relative="1" as="geometry">
            <mxPoint x="57.75" y="92.21000000000004" as="sourcePoint" />
            <mxPoint x="92.75" y="92.21000000000004" as="targetPoint" />
          </mxGeometry>
        </mxCell>
        <mxCell id="QewrAQwP1Hr6pBMhre-_-328" value="" style="group" vertex="1" connectable="0" parent="QewrAQwP1Hr6pBMhre-_-400">
          <mxGeometry x="3" y="300" width="430" height="100" as="geometry" />
        </mxCell>
        <mxCell id="QewrAQwP1Hr6pBMhre-_-329" value="" style="endArrow=none;html=1;rounded=0;exitX=0;exitY=0.25;exitDx=0;exitDy=0;entryX=0;entryY=0.25;entryDx=0;entryDy=0;strokeWidth=1;" edge="1" parent="QewrAQwP1Hr6pBMhre-_-328">
          <mxGeometry width="50" height="50" relative="1" as="geometry">
            <mxPoint y="1.4400000000000546" as="sourcePoint" />
            <mxPoint x="430" y="1.4400000000000546" as="targetPoint" />
          </mxGeometry>
        </mxCell>
        <mxCell id="QewrAQwP1Hr6pBMhre-_-330" value="" style="rounded=0;whiteSpace=wrap;html=1;" vertex="1" parent="QewrAQwP1Hr6pBMhre-_-328">
          <mxGeometry width="430" height="100" as="geometry" />
        </mxCell>
        <mxCell id="QewrAQwP1Hr6pBMhre-_-331" value="&lt;font face=&quot;Garamond&quot;&gt;Special&lt;/font&gt;" style="text;html=1;align=center;verticalAlign=middle;whiteSpace=wrap;rounded=0;rotation=-90;" vertex="1" parent="QewrAQwP1Hr6pBMhre-_-328">
          <mxGeometry x="-9.5" y="32.210000000000036" width="60" height="30" as="geometry" />
        </mxCell>
        <mxCell id="QewrAQwP1Hr6pBMhre-_-332" value="" style="endArrow=diamondThin;html=1;rounded=0;shadow=0;glass=0;strokeColor=default;strokeWidth=1;align=center;verticalAlign=middle;fontFamily=Helvetica;fontSize=11;fontColor=default;fillColor=default;labelBackgroundColor=default;endFill=0;" edge="1" parent="QewrAQwP1Hr6pBMhre-_-328">
          <mxGeometry width="50" height="50" relative="1" as="geometry">
            <mxPoint x="52.5" y="23.440000000000055" as="sourcePoint" />
            <mxPoint x="216.5" y="23.440000000000055" as="targetPoint" />
          </mxGeometry>
        </mxCell>
        <mxCell id="QewrAQwP1Hr6pBMhre-_-333" value="" style="whiteSpace=wrap;html=1;aspect=fixed;rounded=0;shadow=0;glass=0;dashed=1;dashPattern=1 2;strokeColor=default;strokeWidth=0.25;align=center;verticalAlign=middle;fontFamily=Helvetica;fontSize=12;fontColor=default;fillColor=default;" vertex="1" parent="QewrAQwP1Hr6pBMhre-_-328">
          <mxGeometry x="324.5" y="8.440000000000055" width="15" height="15" as="geometry" />
        </mxCell>
        <mxCell id="QewrAQwP1Hr6pBMhre-_-334" value="" style="whiteSpace=wrap;html=1;aspect=fixed;rounded=0;shadow=0;glass=0;dashed=1;dashPattern=1 2;strokeColor=default;strokeWidth=0.25;align=center;verticalAlign=middle;fontFamily=Helvetica;fontSize=12;fontColor=default;fillColor=default;" vertex="1" parent="QewrAQwP1Hr6pBMhre-_-328">
          <mxGeometry x="364.5" y="8.440000000000055" width="15" height="15" as="geometry" />
        </mxCell>
        <mxCell id="QewrAQwP1Hr6pBMhre-_-335" value="" style="whiteSpace=wrap;html=1;aspect=fixed;rounded=0;shadow=0;glass=0;dashed=1;dashPattern=1 2;strokeColor=default;strokeWidth=0.25;align=center;verticalAlign=middle;fontFamily=Helvetica;fontSize=12;fontColor=default;fillColor=default;" vertex="1" parent="QewrAQwP1Hr6pBMhre-_-328">
          <mxGeometry x="384.5" y="8.440000000000055" width="15" height="15" as="geometry" />
        </mxCell>
        <mxCell id="QewrAQwP1Hr6pBMhre-_-336" value="" style="whiteSpace=wrap;html=1;aspect=fixed;rounded=0;shadow=0;glass=0;dashed=1;dashPattern=1 2;strokeColor=default;strokeWidth=0.25;align=center;verticalAlign=middle;fontFamily=Helvetica;fontSize=12;fontColor=default;fillColor=default;" vertex="1" parent="QewrAQwP1Hr6pBMhre-_-328">
          <mxGeometry x="404.5" y="8.440000000000055" width="15" height="15" as="geometry" />
        </mxCell>
        <mxCell id="QewrAQwP1Hr6pBMhre-_-337" value="" style="whiteSpace=wrap;html=1;aspect=fixed;rounded=0;shadow=0;glass=0;dashed=1;dashPattern=1 2;strokeColor=default;strokeWidth=0.25;align=center;verticalAlign=middle;fontFamily=Helvetica;fontSize=12;fontColor=default;fillColor=default;" vertex="1" parent="QewrAQwP1Hr6pBMhre-_-328">
          <mxGeometry x="224.5" y="8.440000000000055" width="15" height="15" as="geometry" />
        </mxCell>
        <mxCell id="QewrAQwP1Hr6pBMhre-_-338" value="" style="whiteSpace=wrap;html=1;aspect=fixed;rounded=0;shadow=0;glass=0;dashed=1;dashPattern=1 2;strokeColor=default;strokeWidth=0.25;align=center;verticalAlign=middle;fontFamily=Helvetica;fontSize=12;fontColor=default;fillColor=default;" vertex="1" parent="QewrAQwP1Hr6pBMhre-_-328">
          <mxGeometry x="244.5" y="8.440000000000055" width="15" height="15" as="geometry" />
        </mxCell>
        <mxCell id="QewrAQwP1Hr6pBMhre-_-339" value="" style="whiteSpace=wrap;html=1;aspect=fixed;rounded=0;shadow=0;glass=0;dashed=1;dashPattern=1 2;strokeColor=default;strokeWidth=0.25;align=center;verticalAlign=middle;fontFamily=Helvetica;fontSize=12;fontColor=default;fillColor=default;" vertex="1" parent="QewrAQwP1Hr6pBMhre-_-328">
          <mxGeometry x="264.5" y="8.440000000000055" width="15" height="15" as="geometry" />
        </mxCell>
        <mxCell id="QewrAQwP1Hr6pBMhre-_-340" value="" style="whiteSpace=wrap;html=1;aspect=fixed;rounded=0;shadow=0;glass=0;dashed=1;dashPattern=1 2;strokeColor=default;strokeWidth=0.25;align=center;verticalAlign=middle;fontFamily=Helvetica;fontSize=12;fontColor=default;fillColor=default;" vertex="1" parent="QewrAQwP1Hr6pBMhre-_-328">
          <mxGeometry x="284.5" y="8.440000000000055" width="15" height="15" as="geometry" />
        </mxCell>
        <mxCell id="QewrAQwP1Hr6pBMhre-_-341" value="" style="whiteSpace=wrap;html=1;aspect=fixed;rounded=0;shadow=0;glass=0;dashed=1;dashPattern=1 2;strokeColor=default;strokeWidth=0.25;align=center;verticalAlign=middle;fontFamily=Helvetica;fontSize=12;fontColor=default;fillColor=default;" vertex="1" parent="QewrAQwP1Hr6pBMhre-_-328">
          <mxGeometry x="304.5" y="8.440000000000055" width="15" height="15" as="geometry" />
        </mxCell>
        <mxCell id="QewrAQwP1Hr6pBMhre-_-342" value="" style="whiteSpace=wrap;html=1;aspect=fixed;rounded=0;shadow=0;glass=0;dashed=1;dashPattern=1 2;strokeColor=default;strokeWidth=0.25;align=center;verticalAlign=middle;fontFamily=Helvetica;fontSize=12;fontColor=default;fillColor=default;" vertex="1" parent="QewrAQwP1Hr6pBMhre-_-328">
          <mxGeometry x="344.5" y="8.440000000000055" width="15" height="15" as="geometry" />
        </mxCell>
        <mxCell id="QewrAQwP1Hr6pBMhre-_-343" value="&lt;font face=&quot;Garamond&quot;&gt;Name:&lt;/font&gt;" style="text;html=1;align=center;verticalAlign=middle;whiteSpace=wrap;rounded=0;fontSize=8;" vertex="1" parent="QewrAQwP1Hr6pBMhre-_-328">
          <mxGeometry x="49.5" y="11.720000000000027" width="27" height="12.56" as="geometry" />
        </mxCell>
        <mxCell id="QewrAQwP1Hr6pBMhre-_-344" value="" style="endArrow=none;html=1;rounded=0;exitX=0.091;exitY=1.006;exitDx=0;exitDy=0;exitPerimeter=0;entryX=0.086;entryY=0.003;entryDx=0;entryDy=0;entryPerimeter=0;" edge="1" parent="QewrAQwP1Hr6pBMhre-_-328" source="QewrAQwP1Hr6pBMhre-_-330">
          <mxGeometry width="50" height="50" relative="1" as="geometry">
            <mxPoint x="40" y="89.69000000000005" as="sourcePoint" />
            <mxPoint x="39.25" as="targetPoint" />
          </mxGeometry>
        </mxCell>
        <mxCell id="QewrAQwP1Hr6pBMhre-_-345" value="" style="endArrow=none;html=1;rounded=0;" edge="1" parent="QewrAQwP1Hr6pBMhre-_-328">
          <mxGeometry width="50" height="50" relative="1" as="geometry">
            <mxPoint x="39.5" y="30.440000000000055" as="sourcePoint" />
            <mxPoint x="429.5" y="30.440000000000055" as="targetPoint" />
          </mxGeometry>
        </mxCell>
        <mxCell id="QewrAQwP1Hr6pBMhre-_-346" value="" style="endArrow=none;html=1;rounded=0;exitX=0.257;exitY=1.004;exitDx=0;exitDy=0;exitPerimeter=0;" edge="1" parent="QewrAQwP1Hr6pBMhre-_-328" source="QewrAQwP1Hr6pBMhre-_-330">
          <mxGeometry width="50" height="50" relative="1" as="geometry">
            <mxPoint x="110.5" y="90" as="sourcePoint" />
            <mxPoint x="110.5" y="30.440000000000055" as="targetPoint" />
          </mxGeometry>
        </mxCell>
        <mxCell id="QewrAQwP1Hr6pBMhre-_-347" value="" style="endArrow=none;html=1;rounded=0;exitX=0.44;exitY=1.003;exitDx=0;exitDy=0;exitPerimeter=0;" edge="1" parent="QewrAQwP1Hr6pBMhre-_-328" source="QewrAQwP1Hr6pBMhre-_-330">
          <mxGeometry width="50" height="50" relative="1" as="geometry">
            <mxPoint x="189.5" y="90" as="sourcePoint" />
            <mxPoint x="189.25" y="30" as="targetPoint" />
          </mxGeometry>
        </mxCell>
        <mxCell id="QewrAQwP1Hr6pBMhre-_-348" value="" style="endArrow=none;html=1;rounded=0;exitX=0.632;exitY=1.001;exitDx=0;exitDy=0;fontStyle=1;exitPerimeter=0;" edge="1" parent="QewrAQwP1Hr6pBMhre-_-328" source="QewrAQwP1Hr6pBMhre-_-330">
          <mxGeometry width="50" height="50" relative="1" as="geometry">
            <mxPoint x="271.8600000000001" y="90" as="sourcePoint" />
            <mxPoint x="271.25" y="30" as="targetPoint" />
          </mxGeometry>
        </mxCell>
        <mxCell id="QewrAQwP1Hr6pBMhre-_-349" value="" style="endArrow=none;html=1;rounded=0;exitX=0.818;exitY=1.003;exitDx=0;exitDy=0;exitPerimeter=0;" edge="1" parent="QewrAQwP1Hr6pBMhre-_-328" source="QewrAQwP1Hr6pBMhre-_-330">
          <mxGeometry width="50" height="50" relative="1" as="geometry">
            <mxPoint x="351.8600000000001" y="90" as="sourcePoint" />
            <mxPoint x="351.8600000000001" y="30.440000000000055" as="targetPoint" />
          </mxGeometry>
        </mxCell>
        <mxCell id="QewrAQwP1Hr6pBMhre-_-350" value="&lt;font face=&quot;Garamond&quot;&gt;Cost&lt;/font&gt;" style="text;html=1;align=center;verticalAlign=middle;whiteSpace=wrap;rounded=0;" vertex="1" parent="QewrAQwP1Hr6pBMhre-_-328">
          <mxGeometry x="44.25" y="32.210000000000036" width="60" height="30" as="geometry" />
        </mxCell>
        <mxCell id="QewrAQwP1Hr6pBMhre-_-351" value="" style="endArrow=diamondThin;html=1;rounded=0;shadow=0;glass=0;strokeColor=default;strokeWidth=1;align=center;verticalAlign=middle;fontFamily=Helvetica;fontSize=12;fontColor=default;fillColor=default;startArrow=diamondThin;startFill=0;endFill=0;" edge="1" parent="QewrAQwP1Hr6pBMhre-_-328">
          <mxGeometry width="50" height="50" relative="1" as="geometry">
            <mxPoint x="57.75" y="92.21000000000004" as="sourcePoint" />
            <mxPoint x="92.75" y="92.21000000000004" as="targetPoint" />
          </mxGeometry>
        </mxCell>
        <mxCell id="QewrAQwP1Hr6pBMhre-_-352" value="" style="group" vertex="1" connectable="0" parent="QewrAQwP1Hr6pBMhre-_-400">
          <mxGeometry x="3" y="400" width="430" height="100" as="geometry" />
        </mxCell>
        <mxCell id="QewrAQwP1Hr6pBMhre-_-353" value="" style="endArrow=none;html=1;rounded=0;exitX=0;exitY=0.25;exitDx=0;exitDy=0;entryX=0;entryY=0.25;entryDx=0;entryDy=0;strokeWidth=1;" edge="1" parent="QewrAQwP1Hr6pBMhre-_-352">
          <mxGeometry width="50" height="50" relative="1" as="geometry">
            <mxPoint y="1.4400000000000546" as="sourcePoint" />
            <mxPoint x="430" y="1.4400000000000546" as="targetPoint" />
          </mxGeometry>
        </mxCell>
        <mxCell id="QewrAQwP1Hr6pBMhre-_-354" value="" style="rounded=0;whiteSpace=wrap;html=1;" vertex="1" parent="QewrAQwP1Hr6pBMhre-_-352">
          <mxGeometry width="430" height="100" as="geometry" />
        </mxCell>
        <mxCell id="QewrAQwP1Hr6pBMhre-_-355" value="&lt;font face=&quot;Garamond&quot;&gt;Special&lt;/font&gt;" style="text;html=1;align=center;verticalAlign=middle;whiteSpace=wrap;rounded=0;rotation=-90;" vertex="1" parent="QewrAQwP1Hr6pBMhre-_-352">
          <mxGeometry x="-9.5" y="32.210000000000036" width="60" height="30" as="geometry" />
        </mxCell>
        <mxCell id="QewrAQwP1Hr6pBMhre-_-356" value="" style="endArrow=diamondThin;html=1;rounded=0;shadow=0;glass=0;strokeColor=default;strokeWidth=1;align=center;verticalAlign=middle;fontFamily=Helvetica;fontSize=11;fontColor=default;fillColor=default;labelBackgroundColor=default;endFill=0;" edge="1" parent="QewrAQwP1Hr6pBMhre-_-352">
          <mxGeometry width="50" height="50" relative="1" as="geometry">
            <mxPoint x="52.5" y="23.440000000000055" as="sourcePoint" />
            <mxPoint x="216.5" y="23.440000000000055" as="targetPoint" />
          </mxGeometry>
        </mxCell>
        <mxCell id="QewrAQwP1Hr6pBMhre-_-357" value="" style="whiteSpace=wrap;html=1;aspect=fixed;rounded=0;shadow=0;glass=0;dashed=1;dashPattern=1 2;strokeColor=default;strokeWidth=0.25;align=center;verticalAlign=middle;fontFamily=Helvetica;fontSize=12;fontColor=default;fillColor=default;" vertex="1" parent="QewrAQwP1Hr6pBMhre-_-352">
          <mxGeometry x="324.5" y="8.440000000000055" width="15" height="15" as="geometry" />
        </mxCell>
        <mxCell id="QewrAQwP1Hr6pBMhre-_-358" value="" style="whiteSpace=wrap;html=1;aspect=fixed;rounded=0;shadow=0;glass=0;dashed=1;dashPattern=1 2;strokeColor=default;strokeWidth=0.25;align=center;verticalAlign=middle;fontFamily=Helvetica;fontSize=12;fontColor=default;fillColor=default;" vertex="1" parent="QewrAQwP1Hr6pBMhre-_-352">
          <mxGeometry x="364.5" y="8.440000000000055" width="15" height="15" as="geometry" />
        </mxCell>
        <mxCell id="QewrAQwP1Hr6pBMhre-_-359" value="" style="whiteSpace=wrap;html=1;aspect=fixed;rounded=0;shadow=0;glass=0;dashed=1;dashPattern=1 2;strokeColor=default;strokeWidth=0.25;align=center;verticalAlign=middle;fontFamily=Helvetica;fontSize=12;fontColor=default;fillColor=default;" vertex="1" parent="QewrAQwP1Hr6pBMhre-_-352">
          <mxGeometry x="384.5" y="8.440000000000055" width="15" height="15" as="geometry" />
        </mxCell>
        <mxCell id="QewrAQwP1Hr6pBMhre-_-360" value="" style="whiteSpace=wrap;html=1;aspect=fixed;rounded=0;shadow=0;glass=0;dashed=1;dashPattern=1 2;strokeColor=default;strokeWidth=0.25;align=center;verticalAlign=middle;fontFamily=Helvetica;fontSize=12;fontColor=default;fillColor=default;" vertex="1" parent="QewrAQwP1Hr6pBMhre-_-352">
          <mxGeometry x="404.5" y="8.440000000000055" width="15" height="15" as="geometry" />
        </mxCell>
        <mxCell id="QewrAQwP1Hr6pBMhre-_-361" value="" style="whiteSpace=wrap;html=1;aspect=fixed;rounded=0;shadow=0;glass=0;dashed=1;dashPattern=1 2;strokeColor=default;strokeWidth=0.25;align=center;verticalAlign=middle;fontFamily=Helvetica;fontSize=12;fontColor=default;fillColor=default;" vertex="1" parent="QewrAQwP1Hr6pBMhre-_-352">
          <mxGeometry x="224.5" y="8.440000000000055" width="15" height="15" as="geometry" />
        </mxCell>
        <mxCell id="QewrAQwP1Hr6pBMhre-_-362" value="" style="whiteSpace=wrap;html=1;aspect=fixed;rounded=0;shadow=0;glass=0;dashed=1;dashPattern=1 2;strokeColor=default;strokeWidth=0.25;align=center;verticalAlign=middle;fontFamily=Helvetica;fontSize=12;fontColor=default;fillColor=default;" vertex="1" parent="QewrAQwP1Hr6pBMhre-_-352">
          <mxGeometry x="244.5" y="8.440000000000055" width="15" height="15" as="geometry" />
        </mxCell>
        <mxCell id="QewrAQwP1Hr6pBMhre-_-363" value="" style="whiteSpace=wrap;html=1;aspect=fixed;rounded=0;shadow=0;glass=0;dashed=1;dashPattern=1 2;strokeColor=default;strokeWidth=0.25;align=center;verticalAlign=middle;fontFamily=Helvetica;fontSize=12;fontColor=default;fillColor=default;" vertex="1" parent="QewrAQwP1Hr6pBMhre-_-352">
          <mxGeometry x="264.5" y="8.440000000000055" width="15" height="15" as="geometry" />
        </mxCell>
        <mxCell id="QewrAQwP1Hr6pBMhre-_-364" value="" style="whiteSpace=wrap;html=1;aspect=fixed;rounded=0;shadow=0;glass=0;dashed=1;dashPattern=1 2;strokeColor=default;strokeWidth=0.25;align=center;verticalAlign=middle;fontFamily=Helvetica;fontSize=12;fontColor=default;fillColor=default;" vertex="1" parent="QewrAQwP1Hr6pBMhre-_-352">
          <mxGeometry x="284.5" y="8.440000000000055" width="15" height="15" as="geometry" />
        </mxCell>
        <mxCell id="QewrAQwP1Hr6pBMhre-_-365" value="" style="whiteSpace=wrap;html=1;aspect=fixed;rounded=0;shadow=0;glass=0;dashed=1;dashPattern=1 2;strokeColor=default;strokeWidth=0.25;align=center;verticalAlign=middle;fontFamily=Helvetica;fontSize=12;fontColor=default;fillColor=default;" vertex="1" parent="QewrAQwP1Hr6pBMhre-_-352">
          <mxGeometry x="304.5" y="8.440000000000055" width="15" height="15" as="geometry" />
        </mxCell>
        <mxCell id="QewrAQwP1Hr6pBMhre-_-366" value="" style="whiteSpace=wrap;html=1;aspect=fixed;rounded=0;shadow=0;glass=0;dashed=1;dashPattern=1 2;strokeColor=default;strokeWidth=0.25;align=center;verticalAlign=middle;fontFamily=Helvetica;fontSize=12;fontColor=default;fillColor=default;" vertex="1" parent="QewrAQwP1Hr6pBMhre-_-352">
          <mxGeometry x="344.5" y="8.440000000000055" width="15" height="15" as="geometry" />
        </mxCell>
        <mxCell id="QewrAQwP1Hr6pBMhre-_-367" value="&lt;font face=&quot;Garamond&quot;&gt;Name:&lt;/font&gt;" style="text;html=1;align=center;verticalAlign=middle;whiteSpace=wrap;rounded=0;fontSize=8;" vertex="1" parent="QewrAQwP1Hr6pBMhre-_-352">
          <mxGeometry x="49.5" y="11.720000000000027" width="27" height="12.56" as="geometry" />
        </mxCell>
        <mxCell id="QewrAQwP1Hr6pBMhre-_-368" value="" style="endArrow=none;html=1;rounded=0;exitX=0.091;exitY=1.006;exitDx=0;exitDy=0;exitPerimeter=0;entryX=0.086;entryY=0.003;entryDx=0;entryDy=0;entryPerimeter=0;" edge="1" parent="QewrAQwP1Hr6pBMhre-_-352" source="QewrAQwP1Hr6pBMhre-_-354">
          <mxGeometry width="50" height="50" relative="1" as="geometry">
            <mxPoint x="40" y="89.69000000000005" as="sourcePoint" />
            <mxPoint x="39.25" as="targetPoint" />
          </mxGeometry>
        </mxCell>
        <mxCell id="QewrAQwP1Hr6pBMhre-_-369" value="" style="endArrow=none;html=1;rounded=0;" edge="1" parent="QewrAQwP1Hr6pBMhre-_-352">
          <mxGeometry width="50" height="50" relative="1" as="geometry">
            <mxPoint x="39.5" y="30.440000000000055" as="sourcePoint" />
            <mxPoint x="429.5" y="30.440000000000055" as="targetPoint" />
          </mxGeometry>
        </mxCell>
        <mxCell id="QewrAQwP1Hr6pBMhre-_-370" value="" style="endArrow=none;html=1;rounded=0;exitX=0.257;exitY=1.004;exitDx=0;exitDy=0;exitPerimeter=0;" edge="1" parent="QewrAQwP1Hr6pBMhre-_-352" source="QewrAQwP1Hr6pBMhre-_-354">
          <mxGeometry width="50" height="50" relative="1" as="geometry">
            <mxPoint x="110.5" y="90" as="sourcePoint" />
            <mxPoint x="110.5" y="30.440000000000055" as="targetPoint" />
          </mxGeometry>
        </mxCell>
        <mxCell id="QewrAQwP1Hr6pBMhre-_-371" value="" style="endArrow=none;html=1;rounded=0;exitX=0.44;exitY=1.003;exitDx=0;exitDy=0;exitPerimeter=0;" edge="1" parent="QewrAQwP1Hr6pBMhre-_-352" source="QewrAQwP1Hr6pBMhre-_-354">
          <mxGeometry width="50" height="50" relative="1" as="geometry">
            <mxPoint x="189.5" y="90" as="sourcePoint" />
            <mxPoint x="189.25" y="30" as="targetPoint" />
          </mxGeometry>
        </mxCell>
        <mxCell id="QewrAQwP1Hr6pBMhre-_-372" value="" style="endArrow=none;html=1;rounded=0;exitX=0.632;exitY=1.001;exitDx=0;exitDy=0;fontStyle=1;exitPerimeter=0;" edge="1" parent="QewrAQwP1Hr6pBMhre-_-352" source="QewrAQwP1Hr6pBMhre-_-354">
          <mxGeometry width="50" height="50" relative="1" as="geometry">
            <mxPoint x="271.8600000000001" y="90" as="sourcePoint" />
            <mxPoint x="271.25" y="30" as="targetPoint" />
          </mxGeometry>
        </mxCell>
        <mxCell id="QewrAQwP1Hr6pBMhre-_-373" value="" style="endArrow=none;html=1;rounded=0;exitX=0.818;exitY=1.003;exitDx=0;exitDy=0;exitPerimeter=0;" edge="1" parent="QewrAQwP1Hr6pBMhre-_-352" source="QewrAQwP1Hr6pBMhre-_-354">
          <mxGeometry width="50" height="50" relative="1" as="geometry">
            <mxPoint x="351.8600000000001" y="90" as="sourcePoint" />
            <mxPoint x="351.8600000000001" y="30.440000000000055" as="targetPoint" />
          </mxGeometry>
        </mxCell>
        <mxCell id="QewrAQwP1Hr6pBMhre-_-374" value="&lt;font face=&quot;Garamond&quot;&gt;Cost&lt;/font&gt;" style="text;html=1;align=center;verticalAlign=middle;whiteSpace=wrap;rounded=0;" vertex="1" parent="QewrAQwP1Hr6pBMhre-_-352">
          <mxGeometry x="44.25" y="32.210000000000036" width="60" height="30" as="geometry" />
        </mxCell>
        <mxCell id="QewrAQwP1Hr6pBMhre-_-375" value="" style="endArrow=diamondThin;html=1;rounded=0;shadow=0;glass=0;strokeColor=default;strokeWidth=1;align=center;verticalAlign=middle;fontFamily=Helvetica;fontSize=12;fontColor=default;fillColor=default;startArrow=diamondThin;startFill=0;endFill=0;" edge="1" parent="QewrAQwP1Hr6pBMhre-_-352">
          <mxGeometry width="50" height="50" relative="1" as="geometry">
            <mxPoint x="57.75" y="92.21000000000004" as="sourcePoint" />
            <mxPoint x="92.75" y="92.21000000000004" as="targetPoint" />
          </mxGeometry>
        </mxCell>
        <mxCell id="QewrAQwP1Hr6pBMhre-_-376" value="" style="group" vertex="1" connectable="0" parent="QewrAQwP1Hr6pBMhre-_-400">
          <mxGeometry x="3" y="500" width="430" height="100" as="geometry" />
        </mxCell>
        <mxCell id="QewrAQwP1Hr6pBMhre-_-377" value="" style="endArrow=none;html=1;rounded=0;exitX=0;exitY=0.25;exitDx=0;exitDy=0;entryX=0;entryY=0.25;entryDx=0;entryDy=0;strokeWidth=1;" edge="1" parent="QewrAQwP1Hr6pBMhre-_-376">
          <mxGeometry width="50" height="50" relative="1" as="geometry">
            <mxPoint y="1.4400000000000546" as="sourcePoint" />
            <mxPoint x="430" y="1.4400000000000546" as="targetPoint" />
          </mxGeometry>
        </mxCell>
        <mxCell id="QewrAQwP1Hr6pBMhre-_-378" value="" style="rounded=0;whiteSpace=wrap;html=1;" vertex="1" parent="QewrAQwP1Hr6pBMhre-_-376">
          <mxGeometry width="430" height="100" as="geometry" />
        </mxCell>
        <mxCell id="QewrAQwP1Hr6pBMhre-_-379" value="&lt;font face=&quot;Garamond&quot;&gt;Special&lt;/font&gt;" style="text;html=1;align=center;verticalAlign=middle;whiteSpace=wrap;rounded=0;rotation=-90;" vertex="1" parent="QewrAQwP1Hr6pBMhre-_-376">
          <mxGeometry x="-9.5" y="32.210000000000036" width="60" height="30" as="geometry" />
        </mxCell>
        <mxCell id="QewrAQwP1Hr6pBMhre-_-380" value="" style="endArrow=diamondThin;html=1;rounded=0;shadow=0;glass=0;strokeColor=default;strokeWidth=1;align=center;verticalAlign=middle;fontFamily=Helvetica;fontSize=11;fontColor=default;fillColor=default;labelBackgroundColor=default;endFill=0;" edge="1" parent="QewrAQwP1Hr6pBMhre-_-376">
          <mxGeometry width="50" height="50" relative="1" as="geometry">
            <mxPoint x="52.5" y="23.440000000000055" as="sourcePoint" />
            <mxPoint x="216.5" y="23.440000000000055" as="targetPoint" />
          </mxGeometry>
        </mxCell>
        <mxCell id="QewrAQwP1Hr6pBMhre-_-381" value="" style="whiteSpace=wrap;html=1;aspect=fixed;rounded=0;shadow=0;glass=0;dashed=1;dashPattern=1 2;strokeColor=default;strokeWidth=0.25;align=center;verticalAlign=middle;fontFamily=Helvetica;fontSize=12;fontColor=default;fillColor=default;" vertex="1" parent="QewrAQwP1Hr6pBMhre-_-376">
          <mxGeometry x="324.5" y="8.440000000000055" width="15" height="15" as="geometry" />
        </mxCell>
        <mxCell id="QewrAQwP1Hr6pBMhre-_-382" value="" style="whiteSpace=wrap;html=1;aspect=fixed;rounded=0;shadow=0;glass=0;dashed=1;dashPattern=1 2;strokeColor=default;strokeWidth=0.25;align=center;verticalAlign=middle;fontFamily=Helvetica;fontSize=12;fontColor=default;fillColor=default;" vertex="1" parent="QewrAQwP1Hr6pBMhre-_-376">
          <mxGeometry x="364.5" y="8.440000000000055" width="15" height="15" as="geometry" />
        </mxCell>
        <mxCell id="QewrAQwP1Hr6pBMhre-_-383" value="" style="whiteSpace=wrap;html=1;aspect=fixed;rounded=0;shadow=0;glass=0;dashed=1;dashPattern=1 2;strokeColor=default;strokeWidth=0.25;align=center;verticalAlign=middle;fontFamily=Helvetica;fontSize=12;fontColor=default;fillColor=default;" vertex="1" parent="QewrAQwP1Hr6pBMhre-_-376">
          <mxGeometry x="384.5" y="8.440000000000055" width="15" height="15" as="geometry" />
        </mxCell>
        <mxCell id="QewrAQwP1Hr6pBMhre-_-384" value="" style="whiteSpace=wrap;html=1;aspect=fixed;rounded=0;shadow=0;glass=0;dashed=1;dashPattern=1 2;strokeColor=default;strokeWidth=0.25;align=center;verticalAlign=middle;fontFamily=Helvetica;fontSize=12;fontColor=default;fillColor=default;" vertex="1" parent="QewrAQwP1Hr6pBMhre-_-376">
          <mxGeometry x="404.5" y="8.440000000000055" width="15" height="15" as="geometry" />
        </mxCell>
        <mxCell id="QewrAQwP1Hr6pBMhre-_-385" value="" style="whiteSpace=wrap;html=1;aspect=fixed;rounded=0;shadow=0;glass=0;dashed=1;dashPattern=1 2;strokeColor=default;strokeWidth=0.25;align=center;verticalAlign=middle;fontFamily=Helvetica;fontSize=12;fontColor=default;fillColor=default;" vertex="1" parent="QewrAQwP1Hr6pBMhre-_-376">
          <mxGeometry x="224.5" y="8.440000000000055" width="15" height="15" as="geometry" />
        </mxCell>
        <mxCell id="QewrAQwP1Hr6pBMhre-_-386" value="" style="whiteSpace=wrap;html=1;aspect=fixed;rounded=0;shadow=0;glass=0;dashed=1;dashPattern=1 2;strokeColor=default;strokeWidth=0.25;align=center;verticalAlign=middle;fontFamily=Helvetica;fontSize=12;fontColor=default;fillColor=default;" vertex="1" parent="QewrAQwP1Hr6pBMhre-_-376">
          <mxGeometry x="244.5" y="8.440000000000055" width="15" height="15" as="geometry" />
        </mxCell>
        <mxCell id="QewrAQwP1Hr6pBMhre-_-387" value="" style="whiteSpace=wrap;html=1;aspect=fixed;rounded=0;shadow=0;glass=0;dashed=1;dashPattern=1 2;strokeColor=default;strokeWidth=0.25;align=center;verticalAlign=middle;fontFamily=Helvetica;fontSize=12;fontColor=default;fillColor=default;" vertex="1" parent="QewrAQwP1Hr6pBMhre-_-376">
          <mxGeometry x="264.5" y="8.440000000000055" width="15" height="15" as="geometry" />
        </mxCell>
        <mxCell id="QewrAQwP1Hr6pBMhre-_-388" value="" style="whiteSpace=wrap;html=1;aspect=fixed;rounded=0;shadow=0;glass=0;dashed=1;dashPattern=1 2;strokeColor=default;strokeWidth=0.25;align=center;verticalAlign=middle;fontFamily=Helvetica;fontSize=12;fontColor=default;fillColor=default;" vertex="1" parent="QewrAQwP1Hr6pBMhre-_-376">
          <mxGeometry x="284.5" y="8.440000000000055" width="15" height="15" as="geometry" />
        </mxCell>
        <mxCell id="QewrAQwP1Hr6pBMhre-_-389" value="" style="whiteSpace=wrap;html=1;aspect=fixed;rounded=0;shadow=0;glass=0;dashed=1;dashPattern=1 2;strokeColor=default;strokeWidth=0.25;align=center;verticalAlign=middle;fontFamily=Helvetica;fontSize=12;fontColor=default;fillColor=default;" vertex="1" parent="QewrAQwP1Hr6pBMhre-_-376">
          <mxGeometry x="304.5" y="8.440000000000055" width="15" height="15" as="geometry" />
        </mxCell>
        <mxCell id="QewrAQwP1Hr6pBMhre-_-390" value="" style="whiteSpace=wrap;html=1;aspect=fixed;rounded=0;shadow=0;glass=0;dashed=1;dashPattern=1 2;strokeColor=default;strokeWidth=0.25;align=center;verticalAlign=middle;fontFamily=Helvetica;fontSize=12;fontColor=default;fillColor=default;" vertex="1" parent="QewrAQwP1Hr6pBMhre-_-376">
          <mxGeometry x="344.5" y="8.440000000000055" width="15" height="15" as="geometry" />
        </mxCell>
        <mxCell id="QewrAQwP1Hr6pBMhre-_-391" value="&lt;font face=&quot;Garamond&quot;&gt;Name:&lt;/font&gt;" style="text;html=1;align=center;verticalAlign=middle;whiteSpace=wrap;rounded=0;fontSize=8;" vertex="1" parent="QewrAQwP1Hr6pBMhre-_-376">
          <mxGeometry x="49.5" y="11.720000000000027" width="27" height="12.56" as="geometry" />
        </mxCell>
        <mxCell id="QewrAQwP1Hr6pBMhre-_-392" value="" style="endArrow=none;html=1;rounded=0;exitX=0.091;exitY=1.006;exitDx=0;exitDy=0;exitPerimeter=0;entryX=0.086;entryY=0.003;entryDx=0;entryDy=0;entryPerimeter=0;" edge="1" parent="QewrAQwP1Hr6pBMhre-_-376" source="QewrAQwP1Hr6pBMhre-_-378">
          <mxGeometry width="50" height="50" relative="1" as="geometry">
            <mxPoint x="40" y="89.69000000000005" as="sourcePoint" />
            <mxPoint x="39.25" as="targetPoint" />
          </mxGeometry>
        </mxCell>
        <mxCell id="QewrAQwP1Hr6pBMhre-_-393" value="" style="endArrow=none;html=1;rounded=0;" edge="1" parent="QewrAQwP1Hr6pBMhre-_-376">
          <mxGeometry width="50" height="50" relative="1" as="geometry">
            <mxPoint x="39.5" y="30.440000000000055" as="sourcePoint" />
            <mxPoint x="429.5" y="30.440000000000055" as="targetPoint" />
          </mxGeometry>
        </mxCell>
        <mxCell id="QewrAQwP1Hr6pBMhre-_-394" value="" style="endArrow=none;html=1;rounded=0;exitX=0.257;exitY=1.004;exitDx=0;exitDy=0;exitPerimeter=0;" edge="1" parent="QewrAQwP1Hr6pBMhre-_-376" source="QewrAQwP1Hr6pBMhre-_-378">
          <mxGeometry width="50" height="50" relative="1" as="geometry">
            <mxPoint x="110.5" y="90" as="sourcePoint" />
            <mxPoint x="110.5" y="30.440000000000055" as="targetPoint" />
          </mxGeometry>
        </mxCell>
        <mxCell id="QewrAQwP1Hr6pBMhre-_-395" value="" style="endArrow=none;html=1;rounded=0;exitX=0.44;exitY=1.003;exitDx=0;exitDy=0;exitPerimeter=0;" edge="1" parent="QewrAQwP1Hr6pBMhre-_-376" source="QewrAQwP1Hr6pBMhre-_-378">
          <mxGeometry width="50" height="50" relative="1" as="geometry">
            <mxPoint x="189.5" y="90" as="sourcePoint" />
            <mxPoint x="189.25" y="30" as="targetPoint" />
          </mxGeometry>
        </mxCell>
        <mxCell id="QewrAQwP1Hr6pBMhre-_-396" value="" style="endArrow=none;html=1;rounded=0;exitX=0.632;exitY=1.001;exitDx=0;exitDy=0;fontStyle=1;exitPerimeter=0;" edge="1" parent="QewrAQwP1Hr6pBMhre-_-376" source="QewrAQwP1Hr6pBMhre-_-378">
          <mxGeometry width="50" height="50" relative="1" as="geometry">
            <mxPoint x="271.8600000000001" y="90" as="sourcePoint" />
            <mxPoint x="271.25" y="30" as="targetPoint" />
          </mxGeometry>
        </mxCell>
        <mxCell id="QewrAQwP1Hr6pBMhre-_-397" value="" style="endArrow=none;html=1;rounded=0;exitX=0.818;exitY=1.003;exitDx=0;exitDy=0;exitPerimeter=0;" edge="1" parent="QewrAQwP1Hr6pBMhre-_-376" source="QewrAQwP1Hr6pBMhre-_-378">
          <mxGeometry width="50" height="50" relative="1" as="geometry">
            <mxPoint x="351.8600000000001" y="90" as="sourcePoint" />
            <mxPoint x="351.8600000000001" y="30.440000000000055" as="targetPoint" />
          </mxGeometry>
        </mxCell>
        <mxCell id="QewrAQwP1Hr6pBMhre-_-398" value="&lt;font face=&quot;Garamond&quot;&gt;Cost&lt;/font&gt;" style="text;html=1;align=center;verticalAlign=middle;whiteSpace=wrap;rounded=0;" vertex="1" parent="QewrAQwP1Hr6pBMhre-_-376">
          <mxGeometry x="44.25" y="32.210000000000036" width="60" height="30" as="geometry" />
        </mxCell>
        <mxCell id="QewrAQwP1Hr6pBMhre-_-399" value="" style="endArrow=diamondThin;html=1;rounded=0;shadow=0;glass=0;strokeColor=default;strokeWidth=1;align=center;verticalAlign=middle;fontFamily=Helvetica;fontSize=12;fontColor=default;fillColor=default;startArrow=diamondThin;startFill=0;endFill=0;" edge="1" parent="QewrAQwP1Hr6pBMhre-_-376">
          <mxGeometry width="50" height="50" relative="1" as="geometry">
            <mxPoint x="57.75" y="92.21000000000004" as="sourcePoint" />
            <mxPoint x="92.75" y="92.21000000000004" as="targetPoint" />
          </mxGeometry>
        </mxCell>
        <mxCell id="QewrAQwP1Hr6pBMhre-_-550" value="" style="group" vertex="1" connectable="0" parent="1">
          <mxGeometry x="1962" y="40" width="433" height="600" as="geometry" />
        </mxCell>
        <mxCell id="QewrAQwP1Hr6pBMhre-_-401" value="" style="group" vertex="1" connectable="0" parent="QewrAQwP1Hr6pBMhre-_-550">
          <mxGeometry width="433" height="100.44" as="geometry" />
        </mxCell>
        <mxCell id="QewrAQwP1Hr6pBMhre-_-402" value="" style="rounded=0;whiteSpace=wrap;html=1;" vertex="1" parent="QewrAQwP1Hr6pBMhre-_-401">
          <mxGeometry x="3" width="430" height="99.44" as="geometry" />
        </mxCell>
        <mxCell id="QewrAQwP1Hr6pBMhre-_-403" value="" style="endArrow=none;html=1;rounded=0;" edge="1" parent="QewrAQwP1Hr6pBMhre-_-401">
          <mxGeometry width="50" height="50" relative="1" as="geometry">
            <mxPoint x="273" as="sourcePoint" />
            <mxPoint x="273" y="99" as="targetPoint" />
          </mxGeometry>
        </mxCell>
        <mxCell id="QewrAQwP1Hr6pBMhre-_-404" value="" style="endArrow=diamondThin;html=1;rounded=0;endFill=0;" edge="1" parent="QewrAQwP1Hr6pBMhre-_-401">
          <mxGeometry width="50" height="50" relative="1" as="geometry">
            <mxPoint x="19" y="26.439999999999998" as="sourcePoint" />
            <mxPoint x="149" y="26.439999999999998" as="targetPoint" />
          </mxGeometry>
        </mxCell>
        <mxCell id="QewrAQwP1Hr6pBMhre-_-405" value="" style="endArrow=diamondThin;html=1;rounded=0;endFill=0;" edge="1" parent="QewrAQwP1Hr6pBMhre-_-401">
          <mxGeometry width="50" height="50" relative="1" as="geometry">
            <mxPoint x="159" y="26.439999999999998" as="sourcePoint" />
            <mxPoint x="259" y="26.439999999999998" as="targetPoint" />
          </mxGeometry>
        </mxCell>
        <mxCell id="QewrAQwP1Hr6pBMhre-_-406" value="" style="endArrow=diamondThin;html=1;rounded=0;startArrow=diamondThin;startFill=0;endFill=0;" edge="1" parent="QewrAQwP1Hr6pBMhre-_-401">
          <mxGeometry width="50" height="50" relative="1" as="geometry">
            <mxPoint x="18" y="55.44" as="sourcePoint" />
            <mxPoint x="59" y="55.44" as="targetPoint" />
          </mxGeometry>
        </mxCell>
        <mxCell id="QewrAQwP1Hr6pBMhre-_-407" value="" style="whiteSpace=wrap;html=1;aspect=fixed;rounded=0;shadow=0;glass=0;dashed=1;dashPattern=1 2;strokeColor=default;strokeWidth=0.25;align=center;verticalAlign=middle;fontFamily=Helvetica;fontSize=12;fontColor=default;fillColor=default;" vertex="1" parent="QewrAQwP1Hr6pBMhre-_-401">
          <mxGeometry x="20" y="73.44" width="15" height="15" as="geometry" />
        </mxCell>
        <mxCell id="QewrAQwP1Hr6pBMhre-_-408" value="" style="whiteSpace=wrap;html=1;aspect=fixed;rounded=0;shadow=0;glass=0;dashed=1;dashPattern=1 2;strokeColor=default;strokeWidth=0.25;align=center;verticalAlign=middle;fontFamily=Helvetica;fontSize=12;fontColor=default;fillColor=default;" vertex="1" parent="QewrAQwP1Hr6pBMhre-_-401">
          <mxGeometry x="40" y="73.44" width="15" height="15" as="geometry" />
        </mxCell>
        <mxCell id="QewrAQwP1Hr6pBMhre-_-409" value="" style="whiteSpace=wrap;html=1;aspect=fixed;rounded=0;shadow=0;glass=0;dashed=1;dashPattern=1 2;strokeColor=default;strokeWidth=0.25;align=center;verticalAlign=middle;fontFamily=Helvetica;fontSize=12;fontColor=default;fillColor=default;" vertex="1" parent="QewrAQwP1Hr6pBMhre-_-401">
          <mxGeometry x="80" y="73.44" width="15" height="15" as="geometry" />
        </mxCell>
        <mxCell id="QewrAQwP1Hr6pBMhre-_-410" value="" style="whiteSpace=wrap;html=1;aspect=fixed;rounded=0;shadow=0;glass=0;dashed=1;dashPattern=1 2;strokeColor=default;strokeWidth=0.25;align=center;verticalAlign=middle;fontFamily=Helvetica;fontSize=12;fontColor=default;fillColor=default;" vertex="1" parent="QewrAQwP1Hr6pBMhre-_-401">
          <mxGeometry x="100" y="73.44" width="15" height="15" as="geometry" />
        </mxCell>
        <mxCell id="QewrAQwP1Hr6pBMhre-_-411" value="" style="whiteSpace=wrap;html=1;aspect=fixed;rounded=0;shadow=0;glass=0;dashed=1;dashPattern=1 2;strokeColor=default;strokeWidth=0.25;align=center;verticalAlign=middle;fontFamily=Helvetica;fontSize=12;fontColor=default;fillColor=default;" vertex="1" parent="QewrAQwP1Hr6pBMhre-_-401">
          <mxGeometry x="120" y="73.44" width="15" height="15" as="geometry" />
        </mxCell>
        <mxCell id="QewrAQwP1Hr6pBMhre-_-412" value="" style="whiteSpace=wrap;html=1;aspect=fixed;rounded=0;shadow=0;glass=0;dashed=1;dashPattern=1 2;strokeColor=default;strokeWidth=0.25;align=center;verticalAlign=middle;fontFamily=Helvetica;fontSize=12;fontColor=default;fillColor=default;" vertex="1" parent="QewrAQwP1Hr6pBMhre-_-401">
          <mxGeometry x="140" y="73.44" width="15" height="15" as="geometry" />
        </mxCell>
        <mxCell id="QewrAQwP1Hr6pBMhre-_-413" value="" style="whiteSpace=wrap;html=1;aspect=fixed;rounded=0;shadow=0;glass=0;dashed=1;dashPattern=1 2;strokeColor=default;strokeWidth=0.25;align=center;verticalAlign=middle;fontFamily=Helvetica;fontSize=12;fontColor=default;fillColor=default;" vertex="1" parent="QewrAQwP1Hr6pBMhre-_-401">
          <mxGeometry x="160" y="73.44" width="15" height="15" as="geometry" />
        </mxCell>
        <mxCell id="QewrAQwP1Hr6pBMhre-_-414" value="" style="whiteSpace=wrap;html=1;aspect=fixed;fontStyle=1;rounded=0;shadow=0;glass=0;dashed=1;dashPattern=1 2;strokeColor=default;strokeWidth=0.25;align=center;verticalAlign=middle;fontFamily=Helvetica;fontSize=12;fontColor=default;fillColor=default;" vertex="1" parent="QewrAQwP1Hr6pBMhre-_-401">
          <mxGeometry x="180" y="73.44" width="15" height="15" as="geometry" />
        </mxCell>
        <mxCell id="QewrAQwP1Hr6pBMhre-_-415" value="" style="whiteSpace=wrap;html=1;aspect=fixed;fontStyle=1;rounded=0;shadow=0;glass=0;dashed=1;dashPattern=1 2;strokeColor=default;strokeWidth=0.25;align=center;verticalAlign=middle;fontFamily=Helvetica;fontSize=12;fontColor=default;fillColor=default;" vertex="1" parent="QewrAQwP1Hr6pBMhre-_-401">
          <mxGeometry x="200" y="73.44" width="15" height="15" as="geometry" />
        </mxCell>
        <mxCell id="QewrAQwP1Hr6pBMhre-_-416" value="" style="endArrow=diamondThin;html=1;rounded=0;startArrow=diamondThin;startFill=0;endFill=0;" edge="1" parent="QewrAQwP1Hr6pBMhre-_-401">
          <mxGeometry width="50" height="50" relative="1" as="geometry">
            <mxPoint x="67" y="55.44000000000001" as="sourcePoint" />
            <mxPoint x="107" y="55.44000000000001" as="targetPoint" />
          </mxGeometry>
        </mxCell>
        <mxCell id="QewrAQwP1Hr6pBMhre-_-417" value="" style="endArrow=diamondThin;html=1;rounded=0;startArrow=diamondThin;startFill=0;endFill=0;" edge="1" parent="QewrAQwP1Hr6pBMhre-_-401">
          <mxGeometry width="50" height="50" relative="1" as="geometry">
            <mxPoint x="115" y="55.44000000000001" as="sourcePoint" />
            <mxPoint x="156" y="55.44000000000001" as="targetPoint" />
          </mxGeometry>
        </mxCell>
        <mxCell id="QewrAQwP1Hr6pBMhre-_-418" value="" style="endArrow=diamondThin;html=1;rounded=0;startArrow=diamondThin;startFill=0;endFill=0;" edge="1" parent="QewrAQwP1Hr6pBMhre-_-401">
          <mxGeometry width="50" height="50" relative="1" as="geometry">
            <mxPoint x="165" y="55.44000000000001" as="sourcePoint" />
            <mxPoint x="208" y="55.44000000000001" as="targetPoint" />
          </mxGeometry>
        </mxCell>
        <mxCell id="QewrAQwP1Hr6pBMhre-_-419" value="" style="endArrow=diamondThin;html=1;rounded=0;startArrow=diamondThin;startFill=0;endFill=0;" edge="1" parent="QewrAQwP1Hr6pBMhre-_-401">
          <mxGeometry width="50" height="50" relative="1" as="geometry">
            <mxPoint x="217" y="55.44000000000001" as="sourcePoint" />
            <mxPoint x="259" y="55.44000000000001" as="targetPoint" />
          </mxGeometry>
        </mxCell>
        <mxCell id="QewrAQwP1Hr6pBMhre-_-420" value="" style="whiteSpace=wrap;html=1;aspect=fixed;rounded=0;shadow=0;glass=0;dashed=1;dashPattern=1 2;strokeColor=default;strokeWidth=0.25;align=center;verticalAlign=middle;fontFamily=Helvetica;fontSize=12;fontColor=default;fillColor=default;" vertex="1" parent="QewrAQwP1Hr6pBMhre-_-401">
          <mxGeometry x="220" y="73.44" width="15" height="15" as="geometry" />
        </mxCell>
        <mxCell id="QewrAQwP1Hr6pBMhre-_-421" value="" style="whiteSpace=wrap;html=1;aspect=fixed;rounded=0;shadow=0;glass=0;dashed=1;dashPattern=1 2;strokeColor=default;strokeWidth=0.25;align=center;verticalAlign=middle;fontFamily=Helvetica;fontSize=12;fontColor=default;fillColor=default;" vertex="1" parent="QewrAQwP1Hr6pBMhre-_-401">
          <mxGeometry x="240" y="73.44" width="15" height="15" as="geometry" />
        </mxCell>
        <mxCell id="QewrAQwP1Hr6pBMhre-_-422" value="&lt;font face=&quot;Garamond&quot;&gt;Name&lt;/font&gt;" style="text;html=1;align=center;verticalAlign=middle;whiteSpace=wrap;rounded=0;fontSize=8;" vertex="1" parent="QewrAQwP1Hr6pBMhre-_-401">
          <mxGeometry y="17.439999999999998" width="60" height="30" as="geometry" />
        </mxCell>
        <mxCell id="QewrAQwP1Hr6pBMhre-_-423" value="&lt;font face=&quot;Garamond&quot;&gt;Class&lt;/font&gt;" style="text;html=1;align=center;verticalAlign=middle;whiteSpace=wrap;rounded=0;fontSize=8;" vertex="1" parent="QewrAQwP1Hr6pBMhre-_-401">
          <mxGeometry x="139.5" y="17.439999999999998" width="60" height="30" as="geometry" />
        </mxCell>
        <mxCell id="QewrAQwP1Hr6pBMhre-_-424" value="&lt;font face=&quot;Garamond&quot;&gt;Size&lt;/font&gt;" style="text;html=1;align=center;verticalAlign=middle;whiteSpace=wrap;rounded=0;fontSize=8;" vertex="1" parent="QewrAQwP1Hr6pBMhre-_-401">
          <mxGeometry x="28.75" y="56.22" width="17.5" height="10.44" as="geometry" />
        </mxCell>
        <mxCell id="QewrAQwP1Hr6pBMhre-_-425" value="&lt;font face=&quot;Garamond&quot;&gt;Hull&lt;/font&gt;" style="text;html=1;align=center;verticalAlign=middle;whiteSpace=wrap;rounded=0;fontSize=8;" vertex="1" parent="QewrAQwP1Hr6pBMhre-_-401">
          <mxGeometry x="74" y="56.22" width="27" height="10.44" as="geometry" />
        </mxCell>
        <mxCell id="QewrAQwP1Hr6pBMhre-_-426" value="&lt;font face=&quot;Garamond&quot;&gt;Speed&lt;/font&gt;" style="text;html=1;align=center;verticalAlign=middle;whiteSpace=wrap;rounded=0;fontSize=8;" vertex="1" parent="QewrAQwP1Hr6pBMhre-_-401">
          <mxGeometry x="121" y="56.22" width="29" height="10.44" as="geometry" />
        </mxCell>
        <mxCell id="QewrAQwP1Hr6pBMhre-_-427" value="&lt;font face=&quot;Garamond&quot;&gt;Armor&lt;/font&gt;" style="text;html=1;align=center;verticalAlign=middle;whiteSpace=wrap;rounded=0;fontSize=8;" vertex="1" parent="QewrAQwP1Hr6pBMhre-_-401">
          <mxGeometry x="172" y="56.22" width="29" height="10.44" as="geometry" />
        </mxCell>
        <mxCell id="QewrAQwP1Hr6pBMhre-_-428" value="&lt;font face=&quot;Garamond&quot;&gt;Shields&lt;/font&gt;" style="text;html=1;align=center;verticalAlign=middle;whiteSpace=wrap;rounded=0;fontSize=8;" vertex="1" parent="QewrAQwP1Hr6pBMhre-_-401">
          <mxGeometry x="227.25" y="56.22" width="27" height="10.44" as="geometry" />
        </mxCell>
        <mxCell id="QewrAQwP1Hr6pBMhre-_-429" value="" style="whiteSpace=wrap;html=1;aspect=fixed;rounded=0;shadow=0;glass=0;dashed=1;dashPattern=1 2;strokeColor=default;strokeWidth=0.25;align=center;verticalAlign=middle;fontFamily=Helvetica;fontSize=12;fontColor=default;fillColor=default;" vertex="1" parent="QewrAQwP1Hr6pBMhre-_-401">
          <mxGeometry x="60" y="73.44" width="15" height="15" as="geometry" />
        </mxCell>
        <mxCell id="QewrAQwP1Hr6pBMhre-_-430" value="" style="group" vertex="1" connectable="0" parent="QewrAQwP1Hr6pBMhre-_-550">
          <mxGeometry x="3" y="100" width="430" height="100" as="geometry" />
        </mxCell>
        <mxCell id="QewrAQwP1Hr6pBMhre-_-431" value="" style="endArrow=none;html=1;rounded=0;exitX=0;exitY=0.25;exitDx=0;exitDy=0;entryX=0;entryY=0.25;entryDx=0;entryDy=0;strokeWidth=1;" edge="1" parent="QewrAQwP1Hr6pBMhre-_-430">
          <mxGeometry width="50" height="50" relative="1" as="geometry">
            <mxPoint y="1.4400000000000546" as="sourcePoint" />
            <mxPoint x="430" y="1.4400000000000546" as="targetPoint" />
          </mxGeometry>
        </mxCell>
        <mxCell id="QewrAQwP1Hr6pBMhre-_-432" value="" style="rounded=0;whiteSpace=wrap;html=1;" vertex="1" parent="QewrAQwP1Hr6pBMhre-_-430">
          <mxGeometry width="430" height="100" as="geometry" />
        </mxCell>
        <mxCell id="QewrAQwP1Hr6pBMhre-_-433" value="&lt;font face=&quot;Garamond&quot;&gt;Front&lt;/font&gt;" style="text;html=1;align=center;verticalAlign=middle;whiteSpace=wrap;rounded=0;rotation=-90;" vertex="1" parent="QewrAQwP1Hr6pBMhre-_-430">
          <mxGeometry x="-9.5" y="32.210000000000036" width="60" height="30" as="geometry" />
        </mxCell>
        <mxCell id="QewrAQwP1Hr6pBMhre-_-434" value="" style="endArrow=diamondThin;html=1;rounded=0;shadow=0;glass=0;strokeColor=default;strokeWidth=1;align=center;verticalAlign=middle;fontFamily=Helvetica;fontSize=11;fontColor=default;fillColor=default;labelBackgroundColor=default;endFill=0;" edge="1" parent="QewrAQwP1Hr6pBMhre-_-430">
          <mxGeometry width="50" height="50" relative="1" as="geometry">
            <mxPoint x="52.5" y="23.440000000000055" as="sourcePoint" />
            <mxPoint x="216.5" y="23.440000000000055" as="targetPoint" />
          </mxGeometry>
        </mxCell>
        <mxCell id="QewrAQwP1Hr6pBMhre-_-435" value="" style="whiteSpace=wrap;html=1;aspect=fixed;rounded=0;shadow=0;glass=0;dashed=1;dashPattern=1 2;strokeColor=default;strokeWidth=0.25;align=center;verticalAlign=middle;fontFamily=Helvetica;fontSize=12;fontColor=default;fillColor=default;" vertex="1" parent="QewrAQwP1Hr6pBMhre-_-430">
          <mxGeometry x="324.5" y="8.440000000000055" width="15" height="15" as="geometry" />
        </mxCell>
        <mxCell id="QewrAQwP1Hr6pBMhre-_-436" value="" style="whiteSpace=wrap;html=1;aspect=fixed;rounded=0;shadow=0;glass=0;dashed=1;dashPattern=1 2;strokeColor=default;strokeWidth=0.25;align=center;verticalAlign=middle;fontFamily=Helvetica;fontSize=12;fontColor=default;fillColor=default;" vertex="1" parent="QewrAQwP1Hr6pBMhre-_-430">
          <mxGeometry x="364.5" y="8.440000000000055" width="15" height="15" as="geometry" />
        </mxCell>
        <mxCell id="QewrAQwP1Hr6pBMhre-_-437" value="" style="whiteSpace=wrap;html=1;aspect=fixed;rounded=0;shadow=0;glass=0;dashed=1;dashPattern=1 2;strokeColor=default;strokeWidth=0.25;align=center;verticalAlign=middle;fontFamily=Helvetica;fontSize=12;fontColor=default;fillColor=default;" vertex="1" parent="QewrAQwP1Hr6pBMhre-_-430">
          <mxGeometry x="384.5" y="8.440000000000055" width="15" height="15" as="geometry" />
        </mxCell>
        <mxCell id="QewrAQwP1Hr6pBMhre-_-438" value="" style="whiteSpace=wrap;html=1;aspect=fixed;rounded=0;shadow=0;glass=0;dashed=1;dashPattern=1 2;strokeColor=default;strokeWidth=0.25;align=center;verticalAlign=middle;fontFamily=Helvetica;fontSize=12;fontColor=default;fillColor=default;" vertex="1" parent="QewrAQwP1Hr6pBMhre-_-430">
          <mxGeometry x="404.5" y="8.440000000000055" width="15" height="15" as="geometry" />
        </mxCell>
        <mxCell id="QewrAQwP1Hr6pBMhre-_-439" value="" style="whiteSpace=wrap;html=1;aspect=fixed;rounded=0;shadow=0;glass=0;dashed=1;dashPattern=1 2;strokeColor=default;strokeWidth=0.25;align=center;verticalAlign=middle;fontFamily=Helvetica;fontSize=12;fontColor=default;fillColor=default;" vertex="1" parent="QewrAQwP1Hr6pBMhre-_-430">
          <mxGeometry x="224.5" y="8.440000000000055" width="15" height="15" as="geometry" />
        </mxCell>
        <mxCell id="QewrAQwP1Hr6pBMhre-_-440" value="" style="whiteSpace=wrap;html=1;aspect=fixed;rounded=0;shadow=0;glass=0;dashed=1;dashPattern=1 2;strokeColor=default;strokeWidth=0.25;align=center;verticalAlign=middle;fontFamily=Helvetica;fontSize=12;fontColor=default;fillColor=default;" vertex="1" parent="QewrAQwP1Hr6pBMhre-_-430">
          <mxGeometry x="244.5" y="8.440000000000055" width="15" height="15" as="geometry" />
        </mxCell>
        <mxCell id="QewrAQwP1Hr6pBMhre-_-441" value="" style="whiteSpace=wrap;html=1;aspect=fixed;rounded=0;shadow=0;glass=0;dashed=1;dashPattern=1 2;strokeColor=default;strokeWidth=0.25;align=center;verticalAlign=middle;fontFamily=Helvetica;fontSize=12;fontColor=default;fillColor=default;" vertex="1" parent="QewrAQwP1Hr6pBMhre-_-430">
          <mxGeometry x="264.5" y="8.440000000000055" width="15" height="15" as="geometry" />
        </mxCell>
        <mxCell id="QewrAQwP1Hr6pBMhre-_-442" value="" style="whiteSpace=wrap;html=1;aspect=fixed;rounded=0;shadow=0;glass=0;dashed=1;dashPattern=1 2;strokeColor=default;strokeWidth=0.25;align=center;verticalAlign=middle;fontFamily=Helvetica;fontSize=12;fontColor=default;fillColor=default;" vertex="1" parent="QewrAQwP1Hr6pBMhre-_-430">
          <mxGeometry x="284.5" y="8.440000000000055" width="15" height="15" as="geometry" />
        </mxCell>
        <mxCell id="QewrAQwP1Hr6pBMhre-_-443" value="" style="whiteSpace=wrap;html=1;aspect=fixed;rounded=0;shadow=0;glass=0;dashed=1;dashPattern=1 2;strokeColor=default;strokeWidth=0.25;align=center;verticalAlign=middle;fontFamily=Helvetica;fontSize=12;fontColor=default;fillColor=default;" vertex="1" parent="QewrAQwP1Hr6pBMhre-_-430">
          <mxGeometry x="304.5" y="8.440000000000055" width="15" height="15" as="geometry" />
        </mxCell>
        <mxCell id="QewrAQwP1Hr6pBMhre-_-444" value="" style="whiteSpace=wrap;html=1;aspect=fixed;rounded=0;shadow=0;glass=0;dashed=1;dashPattern=1 2;strokeColor=default;strokeWidth=0.25;align=center;verticalAlign=middle;fontFamily=Helvetica;fontSize=12;fontColor=default;fillColor=default;" vertex="1" parent="QewrAQwP1Hr6pBMhre-_-430">
          <mxGeometry x="344.5" y="8.440000000000055" width="15" height="15" as="geometry" />
        </mxCell>
        <mxCell id="QewrAQwP1Hr6pBMhre-_-445" value="&lt;font face=&quot;Garamond&quot;&gt;Name:&lt;/font&gt;" style="text;html=1;align=center;verticalAlign=middle;whiteSpace=wrap;rounded=0;fontSize=8;" vertex="1" parent="QewrAQwP1Hr6pBMhre-_-430">
          <mxGeometry x="49.5" y="11.720000000000027" width="27" height="12.56" as="geometry" />
        </mxCell>
        <mxCell id="QewrAQwP1Hr6pBMhre-_-446" value="" style="endArrow=none;html=1;rounded=0;exitX=0.091;exitY=1.006;exitDx=0;exitDy=0;exitPerimeter=0;entryX=0.086;entryY=0.003;entryDx=0;entryDy=0;entryPerimeter=0;" edge="1" parent="QewrAQwP1Hr6pBMhre-_-430" source="QewrAQwP1Hr6pBMhre-_-432">
          <mxGeometry width="50" height="50" relative="1" as="geometry">
            <mxPoint x="40" y="89.69000000000005" as="sourcePoint" />
            <mxPoint x="39.25" as="targetPoint" />
          </mxGeometry>
        </mxCell>
        <mxCell id="QewrAQwP1Hr6pBMhre-_-447" value="" style="endArrow=none;html=1;rounded=0;" edge="1" parent="QewrAQwP1Hr6pBMhre-_-430">
          <mxGeometry width="50" height="50" relative="1" as="geometry">
            <mxPoint x="39.5" y="30.440000000000055" as="sourcePoint" />
            <mxPoint x="429.5" y="30.440000000000055" as="targetPoint" />
          </mxGeometry>
        </mxCell>
        <mxCell id="QewrAQwP1Hr6pBMhre-_-448" value="" style="endArrow=none;html=1;rounded=0;exitX=0.257;exitY=1.004;exitDx=0;exitDy=0;exitPerimeter=0;" edge="1" parent="QewrAQwP1Hr6pBMhre-_-430" source="QewrAQwP1Hr6pBMhre-_-432">
          <mxGeometry width="50" height="50" relative="1" as="geometry">
            <mxPoint x="110.5" y="90" as="sourcePoint" />
            <mxPoint x="110.5" y="30.440000000000055" as="targetPoint" />
          </mxGeometry>
        </mxCell>
        <mxCell id="QewrAQwP1Hr6pBMhre-_-449" value="" style="endArrow=none;html=1;rounded=0;exitX=0.44;exitY=1.003;exitDx=0;exitDy=0;exitPerimeter=0;" edge="1" parent="QewrAQwP1Hr6pBMhre-_-430" source="QewrAQwP1Hr6pBMhre-_-432">
          <mxGeometry width="50" height="50" relative="1" as="geometry">
            <mxPoint x="189.5" y="90" as="sourcePoint" />
            <mxPoint x="189.25" y="30" as="targetPoint" />
          </mxGeometry>
        </mxCell>
        <mxCell id="QewrAQwP1Hr6pBMhre-_-450" value="" style="endArrow=none;html=1;rounded=0;exitX=0.632;exitY=1.001;exitDx=0;exitDy=0;fontStyle=1;exitPerimeter=0;" edge="1" parent="QewrAQwP1Hr6pBMhre-_-430" source="QewrAQwP1Hr6pBMhre-_-432">
          <mxGeometry width="50" height="50" relative="1" as="geometry">
            <mxPoint x="271.8600000000001" y="90" as="sourcePoint" />
            <mxPoint x="271.25" y="30" as="targetPoint" />
          </mxGeometry>
        </mxCell>
        <mxCell id="QewrAQwP1Hr6pBMhre-_-451" value="" style="endArrow=none;html=1;rounded=0;exitX=0.818;exitY=1.003;exitDx=0;exitDy=0;exitPerimeter=0;" edge="1" parent="QewrAQwP1Hr6pBMhre-_-430" source="QewrAQwP1Hr6pBMhre-_-432">
          <mxGeometry width="50" height="50" relative="1" as="geometry">
            <mxPoint x="351.8600000000001" y="90" as="sourcePoint" />
            <mxPoint x="351.8600000000001" y="30.440000000000055" as="targetPoint" />
          </mxGeometry>
        </mxCell>
        <mxCell id="QewrAQwP1Hr6pBMhre-_-452" value="&lt;font face=&quot;Garamond&quot;&gt;Cost&lt;/font&gt;" style="text;html=1;align=center;verticalAlign=middle;whiteSpace=wrap;rounded=0;" vertex="1" parent="QewrAQwP1Hr6pBMhre-_-430">
          <mxGeometry x="44.25" y="32.210000000000036" width="60" height="30" as="geometry" />
        </mxCell>
        <mxCell id="QewrAQwP1Hr6pBMhre-_-453" value="" style="endArrow=diamondThin;html=1;rounded=0;shadow=0;glass=0;strokeColor=default;strokeWidth=1;align=center;verticalAlign=middle;fontFamily=Helvetica;fontSize=12;fontColor=default;fillColor=default;startArrow=diamondThin;startFill=0;endFill=0;" edge="1" parent="QewrAQwP1Hr6pBMhre-_-430">
          <mxGeometry width="50" height="50" relative="1" as="geometry">
            <mxPoint x="57.75" y="92.21000000000004" as="sourcePoint" />
            <mxPoint x="92.75" y="92.21000000000004" as="targetPoint" />
          </mxGeometry>
        </mxCell>
        <mxCell id="QewrAQwP1Hr6pBMhre-_-454" value="" style="group" vertex="1" connectable="0" parent="QewrAQwP1Hr6pBMhre-_-550">
          <mxGeometry x="3" y="200" width="430" height="100" as="geometry" />
        </mxCell>
        <mxCell id="QewrAQwP1Hr6pBMhre-_-455" value="" style="endArrow=none;html=1;rounded=0;exitX=0;exitY=0.25;exitDx=0;exitDy=0;entryX=0;entryY=0.25;entryDx=0;entryDy=0;strokeWidth=1;" edge="1" parent="QewrAQwP1Hr6pBMhre-_-454">
          <mxGeometry width="50" height="50" relative="1" as="geometry">
            <mxPoint y="1.4400000000000546" as="sourcePoint" />
            <mxPoint x="430" y="1.4400000000000546" as="targetPoint" />
          </mxGeometry>
        </mxCell>
        <mxCell id="QewrAQwP1Hr6pBMhre-_-456" value="" style="rounded=0;whiteSpace=wrap;html=1;" vertex="1" parent="QewrAQwP1Hr6pBMhre-_-454">
          <mxGeometry width="430" height="100" as="geometry" />
        </mxCell>
        <mxCell id="QewrAQwP1Hr6pBMhre-_-457" value="&lt;font face=&quot;Garamond&quot;&gt;Sides&lt;/font&gt;" style="text;html=1;align=center;verticalAlign=middle;whiteSpace=wrap;rounded=0;rotation=-90;" vertex="1" parent="QewrAQwP1Hr6pBMhre-_-454">
          <mxGeometry x="-9.5" y="32.210000000000036" width="60" height="30" as="geometry" />
        </mxCell>
        <mxCell id="QewrAQwP1Hr6pBMhre-_-458" value="" style="endArrow=diamondThin;html=1;rounded=0;shadow=0;glass=0;strokeColor=default;strokeWidth=1;align=center;verticalAlign=middle;fontFamily=Helvetica;fontSize=11;fontColor=default;fillColor=default;labelBackgroundColor=default;endFill=0;" edge="1" parent="QewrAQwP1Hr6pBMhre-_-454">
          <mxGeometry width="50" height="50" relative="1" as="geometry">
            <mxPoint x="52.5" y="23.440000000000055" as="sourcePoint" />
            <mxPoint x="216.5" y="23.440000000000055" as="targetPoint" />
          </mxGeometry>
        </mxCell>
        <mxCell id="QewrAQwP1Hr6pBMhre-_-459" value="" style="whiteSpace=wrap;html=1;aspect=fixed;rounded=0;shadow=0;glass=0;dashed=1;dashPattern=1 2;strokeColor=default;strokeWidth=0.25;align=center;verticalAlign=middle;fontFamily=Helvetica;fontSize=12;fontColor=default;fillColor=default;" vertex="1" parent="QewrAQwP1Hr6pBMhre-_-454">
          <mxGeometry x="324.5" y="8.440000000000055" width="15" height="15" as="geometry" />
        </mxCell>
        <mxCell id="QewrAQwP1Hr6pBMhre-_-460" value="" style="whiteSpace=wrap;html=1;aspect=fixed;rounded=0;shadow=0;glass=0;dashed=1;dashPattern=1 2;strokeColor=default;strokeWidth=0.25;align=center;verticalAlign=middle;fontFamily=Helvetica;fontSize=12;fontColor=default;fillColor=default;" vertex="1" parent="QewrAQwP1Hr6pBMhre-_-454">
          <mxGeometry x="364.5" y="8.440000000000055" width="15" height="15" as="geometry" />
        </mxCell>
        <mxCell id="QewrAQwP1Hr6pBMhre-_-461" value="" style="whiteSpace=wrap;html=1;aspect=fixed;rounded=0;shadow=0;glass=0;dashed=1;dashPattern=1 2;strokeColor=default;strokeWidth=0.25;align=center;verticalAlign=middle;fontFamily=Helvetica;fontSize=12;fontColor=default;fillColor=default;" vertex="1" parent="QewrAQwP1Hr6pBMhre-_-454">
          <mxGeometry x="384.5" y="8.440000000000055" width="15" height="15" as="geometry" />
        </mxCell>
        <mxCell id="QewrAQwP1Hr6pBMhre-_-462" value="" style="whiteSpace=wrap;html=1;aspect=fixed;rounded=0;shadow=0;glass=0;dashed=1;dashPattern=1 2;strokeColor=default;strokeWidth=0.25;align=center;verticalAlign=middle;fontFamily=Helvetica;fontSize=12;fontColor=default;fillColor=default;" vertex="1" parent="QewrAQwP1Hr6pBMhre-_-454">
          <mxGeometry x="404.5" y="8.440000000000055" width="15" height="15" as="geometry" />
        </mxCell>
        <mxCell id="QewrAQwP1Hr6pBMhre-_-463" value="" style="whiteSpace=wrap;html=1;aspect=fixed;rounded=0;shadow=0;glass=0;dashed=1;dashPattern=1 2;strokeColor=default;strokeWidth=0.25;align=center;verticalAlign=middle;fontFamily=Helvetica;fontSize=12;fontColor=default;fillColor=default;" vertex="1" parent="QewrAQwP1Hr6pBMhre-_-454">
          <mxGeometry x="224.5" y="8.440000000000055" width="15" height="15" as="geometry" />
        </mxCell>
        <mxCell id="QewrAQwP1Hr6pBMhre-_-464" value="" style="whiteSpace=wrap;html=1;aspect=fixed;rounded=0;shadow=0;glass=0;dashed=1;dashPattern=1 2;strokeColor=default;strokeWidth=0.25;align=center;verticalAlign=middle;fontFamily=Helvetica;fontSize=12;fontColor=default;fillColor=default;" vertex="1" parent="QewrAQwP1Hr6pBMhre-_-454">
          <mxGeometry x="244.5" y="8.440000000000055" width="15" height="15" as="geometry" />
        </mxCell>
        <mxCell id="QewrAQwP1Hr6pBMhre-_-465" value="" style="whiteSpace=wrap;html=1;aspect=fixed;rounded=0;shadow=0;glass=0;dashed=1;dashPattern=1 2;strokeColor=default;strokeWidth=0.25;align=center;verticalAlign=middle;fontFamily=Helvetica;fontSize=12;fontColor=default;fillColor=default;" vertex="1" parent="QewrAQwP1Hr6pBMhre-_-454">
          <mxGeometry x="264.5" y="8.440000000000055" width="15" height="15" as="geometry" />
        </mxCell>
        <mxCell id="QewrAQwP1Hr6pBMhre-_-466" value="" style="whiteSpace=wrap;html=1;aspect=fixed;rounded=0;shadow=0;glass=0;dashed=1;dashPattern=1 2;strokeColor=default;strokeWidth=0.25;align=center;verticalAlign=middle;fontFamily=Helvetica;fontSize=12;fontColor=default;fillColor=default;" vertex="1" parent="QewrAQwP1Hr6pBMhre-_-454">
          <mxGeometry x="284.5" y="8.440000000000055" width="15" height="15" as="geometry" />
        </mxCell>
        <mxCell id="QewrAQwP1Hr6pBMhre-_-467" value="" style="whiteSpace=wrap;html=1;aspect=fixed;rounded=0;shadow=0;glass=0;dashed=1;dashPattern=1 2;strokeColor=default;strokeWidth=0.25;align=center;verticalAlign=middle;fontFamily=Helvetica;fontSize=12;fontColor=default;fillColor=default;" vertex="1" parent="QewrAQwP1Hr6pBMhre-_-454">
          <mxGeometry x="304.5" y="8.440000000000055" width="15" height="15" as="geometry" />
        </mxCell>
        <mxCell id="QewrAQwP1Hr6pBMhre-_-468" value="" style="whiteSpace=wrap;html=1;aspect=fixed;rounded=0;shadow=0;glass=0;dashed=1;dashPattern=1 2;strokeColor=default;strokeWidth=0.25;align=center;verticalAlign=middle;fontFamily=Helvetica;fontSize=12;fontColor=default;fillColor=default;" vertex="1" parent="QewrAQwP1Hr6pBMhre-_-454">
          <mxGeometry x="344.5" y="8.440000000000055" width="15" height="15" as="geometry" />
        </mxCell>
        <mxCell id="QewrAQwP1Hr6pBMhre-_-469" value="&lt;font face=&quot;Garamond&quot;&gt;Name:&lt;/font&gt;" style="text;html=1;align=center;verticalAlign=middle;whiteSpace=wrap;rounded=0;fontSize=8;" vertex="1" parent="QewrAQwP1Hr6pBMhre-_-454">
          <mxGeometry x="49.5" y="11.720000000000027" width="27" height="12.56" as="geometry" />
        </mxCell>
        <mxCell id="QewrAQwP1Hr6pBMhre-_-470" value="" style="endArrow=none;html=1;rounded=0;exitX=0.091;exitY=1.006;exitDx=0;exitDy=0;exitPerimeter=0;entryX=0.086;entryY=0.003;entryDx=0;entryDy=0;entryPerimeter=0;" edge="1" parent="QewrAQwP1Hr6pBMhre-_-454" source="QewrAQwP1Hr6pBMhre-_-456">
          <mxGeometry width="50" height="50" relative="1" as="geometry">
            <mxPoint x="40" y="89.69000000000005" as="sourcePoint" />
            <mxPoint x="39.25" as="targetPoint" />
          </mxGeometry>
        </mxCell>
        <mxCell id="QewrAQwP1Hr6pBMhre-_-471" value="" style="endArrow=none;html=1;rounded=0;" edge="1" parent="QewrAQwP1Hr6pBMhre-_-454">
          <mxGeometry width="50" height="50" relative="1" as="geometry">
            <mxPoint x="39.5" y="30.440000000000055" as="sourcePoint" />
            <mxPoint x="429.5" y="30.440000000000055" as="targetPoint" />
          </mxGeometry>
        </mxCell>
        <mxCell id="QewrAQwP1Hr6pBMhre-_-472" value="" style="endArrow=none;html=1;rounded=0;exitX=0.257;exitY=1.004;exitDx=0;exitDy=0;exitPerimeter=0;" edge="1" parent="QewrAQwP1Hr6pBMhre-_-454" source="QewrAQwP1Hr6pBMhre-_-456">
          <mxGeometry width="50" height="50" relative="1" as="geometry">
            <mxPoint x="110.5" y="90" as="sourcePoint" />
            <mxPoint x="110.5" y="30.440000000000055" as="targetPoint" />
          </mxGeometry>
        </mxCell>
        <mxCell id="QewrAQwP1Hr6pBMhre-_-473" value="" style="endArrow=none;html=1;rounded=0;exitX=0.44;exitY=1.003;exitDx=0;exitDy=0;exitPerimeter=0;" edge="1" parent="QewrAQwP1Hr6pBMhre-_-454" source="QewrAQwP1Hr6pBMhre-_-456">
          <mxGeometry width="50" height="50" relative="1" as="geometry">
            <mxPoint x="189.5" y="90" as="sourcePoint" />
            <mxPoint x="189.25" y="30" as="targetPoint" />
          </mxGeometry>
        </mxCell>
        <mxCell id="QewrAQwP1Hr6pBMhre-_-474" value="" style="endArrow=none;html=1;rounded=0;exitX=0.632;exitY=1.001;exitDx=0;exitDy=0;fontStyle=1;exitPerimeter=0;" edge="1" parent="QewrAQwP1Hr6pBMhre-_-454" source="QewrAQwP1Hr6pBMhre-_-456">
          <mxGeometry width="50" height="50" relative="1" as="geometry">
            <mxPoint x="271.8600000000001" y="90" as="sourcePoint" />
            <mxPoint x="271.25" y="30" as="targetPoint" />
          </mxGeometry>
        </mxCell>
        <mxCell id="QewrAQwP1Hr6pBMhre-_-475" value="" style="endArrow=none;html=1;rounded=0;exitX=0.818;exitY=1.003;exitDx=0;exitDy=0;exitPerimeter=0;" edge="1" parent="QewrAQwP1Hr6pBMhre-_-454" source="QewrAQwP1Hr6pBMhre-_-456">
          <mxGeometry width="50" height="50" relative="1" as="geometry">
            <mxPoint x="351.8600000000001" y="90" as="sourcePoint" />
            <mxPoint x="351.8600000000001" y="30.440000000000055" as="targetPoint" />
          </mxGeometry>
        </mxCell>
        <mxCell id="QewrAQwP1Hr6pBMhre-_-476" value="&lt;font face=&quot;Garamond&quot;&gt;Cost&lt;/font&gt;" style="text;html=1;align=center;verticalAlign=middle;whiteSpace=wrap;rounded=0;" vertex="1" parent="QewrAQwP1Hr6pBMhre-_-454">
          <mxGeometry x="44.25" y="32.210000000000036" width="60" height="30" as="geometry" />
        </mxCell>
        <mxCell id="QewrAQwP1Hr6pBMhre-_-477" value="" style="endArrow=diamondThin;html=1;rounded=0;shadow=0;glass=0;strokeColor=default;strokeWidth=1;align=center;verticalAlign=middle;fontFamily=Helvetica;fontSize=12;fontColor=default;fillColor=default;startArrow=diamondThin;startFill=0;endFill=0;" edge="1" parent="QewrAQwP1Hr6pBMhre-_-454">
          <mxGeometry width="50" height="50" relative="1" as="geometry">
            <mxPoint x="57.75" y="92.21000000000004" as="sourcePoint" />
            <mxPoint x="92.75" y="92.21000000000004" as="targetPoint" />
          </mxGeometry>
        </mxCell>
        <mxCell id="QewrAQwP1Hr6pBMhre-_-478" value="" style="group" vertex="1" connectable="0" parent="QewrAQwP1Hr6pBMhre-_-550">
          <mxGeometry x="3" y="300" width="430" height="100" as="geometry" />
        </mxCell>
        <mxCell id="QewrAQwP1Hr6pBMhre-_-479" value="" style="endArrow=none;html=1;rounded=0;exitX=0;exitY=0.25;exitDx=0;exitDy=0;entryX=0;entryY=0.25;entryDx=0;entryDy=0;strokeWidth=1;" edge="1" parent="QewrAQwP1Hr6pBMhre-_-478">
          <mxGeometry width="50" height="50" relative="1" as="geometry">
            <mxPoint y="1.4400000000000546" as="sourcePoint" />
            <mxPoint x="430" y="1.4400000000000546" as="targetPoint" />
          </mxGeometry>
        </mxCell>
        <mxCell id="QewrAQwP1Hr6pBMhre-_-480" value="" style="rounded=0;whiteSpace=wrap;html=1;" vertex="1" parent="QewrAQwP1Hr6pBMhre-_-478">
          <mxGeometry width="430" height="100" as="geometry" />
        </mxCell>
        <mxCell id="QewrAQwP1Hr6pBMhre-_-481" value="&lt;font face=&quot;Garamond&quot;&gt;Special&lt;/font&gt;" style="text;html=1;align=center;verticalAlign=middle;whiteSpace=wrap;rounded=0;rotation=-90;" vertex="1" parent="QewrAQwP1Hr6pBMhre-_-478">
          <mxGeometry x="-9.5" y="32.210000000000036" width="60" height="30" as="geometry" />
        </mxCell>
        <mxCell id="QewrAQwP1Hr6pBMhre-_-482" value="" style="endArrow=diamondThin;html=1;rounded=0;shadow=0;glass=0;strokeColor=default;strokeWidth=1;align=center;verticalAlign=middle;fontFamily=Helvetica;fontSize=11;fontColor=default;fillColor=default;labelBackgroundColor=default;endFill=0;" edge="1" parent="QewrAQwP1Hr6pBMhre-_-478">
          <mxGeometry width="50" height="50" relative="1" as="geometry">
            <mxPoint x="52.5" y="23.440000000000055" as="sourcePoint" />
            <mxPoint x="216.5" y="23.440000000000055" as="targetPoint" />
          </mxGeometry>
        </mxCell>
        <mxCell id="QewrAQwP1Hr6pBMhre-_-483" value="" style="whiteSpace=wrap;html=1;aspect=fixed;rounded=0;shadow=0;glass=0;dashed=1;dashPattern=1 2;strokeColor=default;strokeWidth=0.25;align=center;verticalAlign=middle;fontFamily=Helvetica;fontSize=12;fontColor=default;fillColor=default;" vertex="1" parent="QewrAQwP1Hr6pBMhre-_-478">
          <mxGeometry x="324.5" y="8.440000000000055" width="15" height="15" as="geometry" />
        </mxCell>
        <mxCell id="QewrAQwP1Hr6pBMhre-_-484" value="" style="whiteSpace=wrap;html=1;aspect=fixed;rounded=0;shadow=0;glass=0;dashed=1;dashPattern=1 2;strokeColor=default;strokeWidth=0.25;align=center;verticalAlign=middle;fontFamily=Helvetica;fontSize=12;fontColor=default;fillColor=default;" vertex="1" parent="QewrAQwP1Hr6pBMhre-_-478">
          <mxGeometry x="364.5" y="8.440000000000055" width="15" height="15" as="geometry" />
        </mxCell>
        <mxCell id="QewrAQwP1Hr6pBMhre-_-485" value="" style="whiteSpace=wrap;html=1;aspect=fixed;rounded=0;shadow=0;glass=0;dashed=1;dashPattern=1 2;strokeColor=default;strokeWidth=0.25;align=center;verticalAlign=middle;fontFamily=Helvetica;fontSize=12;fontColor=default;fillColor=default;" vertex="1" parent="QewrAQwP1Hr6pBMhre-_-478">
          <mxGeometry x="384.5" y="8.440000000000055" width="15" height="15" as="geometry" />
        </mxCell>
        <mxCell id="QewrAQwP1Hr6pBMhre-_-486" value="" style="whiteSpace=wrap;html=1;aspect=fixed;rounded=0;shadow=0;glass=0;dashed=1;dashPattern=1 2;strokeColor=default;strokeWidth=0.25;align=center;verticalAlign=middle;fontFamily=Helvetica;fontSize=12;fontColor=default;fillColor=default;" vertex="1" parent="QewrAQwP1Hr6pBMhre-_-478">
          <mxGeometry x="404.5" y="8.440000000000055" width="15" height="15" as="geometry" />
        </mxCell>
        <mxCell id="QewrAQwP1Hr6pBMhre-_-487" value="" style="whiteSpace=wrap;html=1;aspect=fixed;rounded=0;shadow=0;glass=0;dashed=1;dashPattern=1 2;strokeColor=default;strokeWidth=0.25;align=center;verticalAlign=middle;fontFamily=Helvetica;fontSize=12;fontColor=default;fillColor=default;" vertex="1" parent="QewrAQwP1Hr6pBMhre-_-478">
          <mxGeometry x="224.5" y="8.440000000000055" width="15" height="15" as="geometry" />
        </mxCell>
        <mxCell id="QewrAQwP1Hr6pBMhre-_-488" value="" style="whiteSpace=wrap;html=1;aspect=fixed;rounded=0;shadow=0;glass=0;dashed=1;dashPattern=1 2;strokeColor=default;strokeWidth=0.25;align=center;verticalAlign=middle;fontFamily=Helvetica;fontSize=12;fontColor=default;fillColor=default;" vertex="1" parent="QewrAQwP1Hr6pBMhre-_-478">
          <mxGeometry x="244.5" y="8.440000000000055" width="15" height="15" as="geometry" />
        </mxCell>
        <mxCell id="QewrAQwP1Hr6pBMhre-_-489" value="" style="whiteSpace=wrap;html=1;aspect=fixed;rounded=0;shadow=0;glass=0;dashed=1;dashPattern=1 2;strokeColor=default;strokeWidth=0.25;align=center;verticalAlign=middle;fontFamily=Helvetica;fontSize=12;fontColor=default;fillColor=default;" vertex="1" parent="QewrAQwP1Hr6pBMhre-_-478">
          <mxGeometry x="264.5" y="8.440000000000055" width="15" height="15" as="geometry" />
        </mxCell>
        <mxCell id="QewrAQwP1Hr6pBMhre-_-490" value="" style="whiteSpace=wrap;html=1;aspect=fixed;rounded=0;shadow=0;glass=0;dashed=1;dashPattern=1 2;strokeColor=default;strokeWidth=0.25;align=center;verticalAlign=middle;fontFamily=Helvetica;fontSize=12;fontColor=default;fillColor=default;" vertex="1" parent="QewrAQwP1Hr6pBMhre-_-478">
          <mxGeometry x="284.5" y="8.440000000000055" width="15" height="15" as="geometry" />
        </mxCell>
        <mxCell id="QewrAQwP1Hr6pBMhre-_-491" value="" style="whiteSpace=wrap;html=1;aspect=fixed;rounded=0;shadow=0;glass=0;dashed=1;dashPattern=1 2;strokeColor=default;strokeWidth=0.25;align=center;verticalAlign=middle;fontFamily=Helvetica;fontSize=12;fontColor=default;fillColor=default;" vertex="1" parent="QewrAQwP1Hr6pBMhre-_-478">
          <mxGeometry x="304.5" y="8.440000000000055" width="15" height="15" as="geometry" />
        </mxCell>
        <mxCell id="QewrAQwP1Hr6pBMhre-_-492" value="" style="whiteSpace=wrap;html=1;aspect=fixed;rounded=0;shadow=0;glass=0;dashed=1;dashPattern=1 2;strokeColor=default;strokeWidth=0.25;align=center;verticalAlign=middle;fontFamily=Helvetica;fontSize=12;fontColor=default;fillColor=default;" vertex="1" parent="QewrAQwP1Hr6pBMhre-_-478">
          <mxGeometry x="344.5" y="8.440000000000055" width="15" height="15" as="geometry" />
        </mxCell>
        <mxCell id="QewrAQwP1Hr6pBMhre-_-493" value="&lt;font face=&quot;Garamond&quot;&gt;Name:&lt;/font&gt;" style="text;html=1;align=center;verticalAlign=middle;whiteSpace=wrap;rounded=0;fontSize=8;" vertex="1" parent="QewrAQwP1Hr6pBMhre-_-478">
          <mxGeometry x="49.5" y="11.720000000000027" width="27" height="12.56" as="geometry" />
        </mxCell>
        <mxCell id="QewrAQwP1Hr6pBMhre-_-494" value="" style="endArrow=none;html=1;rounded=0;exitX=0.091;exitY=1.006;exitDx=0;exitDy=0;exitPerimeter=0;entryX=0.086;entryY=0.003;entryDx=0;entryDy=0;entryPerimeter=0;" edge="1" parent="QewrAQwP1Hr6pBMhre-_-478" source="QewrAQwP1Hr6pBMhre-_-480">
          <mxGeometry width="50" height="50" relative="1" as="geometry">
            <mxPoint x="40" y="89.69000000000005" as="sourcePoint" />
            <mxPoint x="39.25" as="targetPoint" />
          </mxGeometry>
        </mxCell>
        <mxCell id="QewrAQwP1Hr6pBMhre-_-495" value="" style="endArrow=none;html=1;rounded=0;" edge="1" parent="QewrAQwP1Hr6pBMhre-_-478">
          <mxGeometry width="50" height="50" relative="1" as="geometry">
            <mxPoint x="39.5" y="30.440000000000055" as="sourcePoint" />
            <mxPoint x="429.5" y="30.440000000000055" as="targetPoint" />
          </mxGeometry>
        </mxCell>
        <mxCell id="QewrAQwP1Hr6pBMhre-_-496" value="" style="endArrow=none;html=1;rounded=0;exitX=0.257;exitY=1.004;exitDx=0;exitDy=0;exitPerimeter=0;" edge="1" parent="QewrAQwP1Hr6pBMhre-_-478" source="QewrAQwP1Hr6pBMhre-_-480">
          <mxGeometry width="50" height="50" relative="1" as="geometry">
            <mxPoint x="110.5" y="90" as="sourcePoint" />
            <mxPoint x="110.5" y="30.440000000000055" as="targetPoint" />
          </mxGeometry>
        </mxCell>
        <mxCell id="QewrAQwP1Hr6pBMhre-_-497" value="" style="endArrow=none;html=1;rounded=0;exitX=0.44;exitY=1.003;exitDx=0;exitDy=0;exitPerimeter=0;" edge="1" parent="QewrAQwP1Hr6pBMhre-_-478" source="QewrAQwP1Hr6pBMhre-_-480">
          <mxGeometry width="50" height="50" relative="1" as="geometry">
            <mxPoint x="189.5" y="90" as="sourcePoint" />
            <mxPoint x="189.25" y="30" as="targetPoint" />
          </mxGeometry>
        </mxCell>
        <mxCell id="QewrAQwP1Hr6pBMhre-_-498" value="" style="endArrow=none;html=1;rounded=0;exitX=0.632;exitY=1.001;exitDx=0;exitDy=0;fontStyle=1;exitPerimeter=0;" edge="1" parent="QewrAQwP1Hr6pBMhre-_-478" source="QewrAQwP1Hr6pBMhre-_-480">
          <mxGeometry width="50" height="50" relative="1" as="geometry">
            <mxPoint x="271.8600000000001" y="90" as="sourcePoint" />
            <mxPoint x="271.25" y="30" as="targetPoint" />
          </mxGeometry>
        </mxCell>
        <mxCell id="QewrAQwP1Hr6pBMhre-_-499" value="" style="endArrow=none;html=1;rounded=0;exitX=0.818;exitY=1.003;exitDx=0;exitDy=0;exitPerimeter=0;" edge="1" parent="QewrAQwP1Hr6pBMhre-_-478" source="QewrAQwP1Hr6pBMhre-_-480">
          <mxGeometry width="50" height="50" relative="1" as="geometry">
            <mxPoint x="351.8600000000001" y="90" as="sourcePoint" />
            <mxPoint x="351.8600000000001" y="30.440000000000055" as="targetPoint" />
          </mxGeometry>
        </mxCell>
        <mxCell id="QewrAQwP1Hr6pBMhre-_-500" value="&lt;font face=&quot;Garamond&quot;&gt;Cost&lt;/font&gt;" style="text;html=1;align=center;verticalAlign=middle;whiteSpace=wrap;rounded=0;" vertex="1" parent="QewrAQwP1Hr6pBMhre-_-478">
          <mxGeometry x="44.25" y="32.210000000000036" width="60" height="30" as="geometry" />
        </mxCell>
        <mxCell id="QewrAQwP1Hr6pBMhre-_-501" value="" style="endArrow=diamondThin;html=1;rounded=0;shadow=0;glass=0;strokeColor=default;strokeWidth=1;align=center;verticalAlign=middle;fontFamily=Helvetica;fontSize=12;fontColor=default;fillColor=default;startArrow=diamondThin;startFill=0;endFill=0;" edge="1" parent="QewrAQwP1Hr6pBMhre-_-478">
          <mxGeometry width="50" height="50" relative="1" as="geometry">
            <mxPoint x="57.75" y="92.21000000000004" as="sourcePoint" />
            <mxPoint x="92.75" y="92.21000000000004" as="targetPoint" />
          </mxGeometry>
        </mxCell>
        <mxCell id="QewrAQwP1Hr6pBMhre-_-502" value="" style="group" vertex="1" connectable="0" parent="QewrAQwP1Hr6pBMhre-_-550">
          <mxGeometry x="3" y="400" width="430" height="100" as="geometry" />
        </mxCell>
        <mxCell id="QewrAQwP1Hr6pBMhre-_-503" value="" style="endArrow=none;html=1;rounded=0;exitX=0;exitY=0.25;exitDx=0;exitDy=0;entryX=0;entryY=0.25;entryDx=0;entryDy=0;strokeWidth=1;" edge="1" parent="QewrAQwP1Hr6pBMhre-_-502">
          <mxGeometry width="50" height="50" relative="1" as="geometry">
            <mxPoint y="1.4400000000000546" as="sourcePoint" />
            <mxPoint x="430" y="1.4400000000000546" as="targetPoint" />
          </mxGeometry>
        </mxCell>
        <mxCell id="QewrAQwP1Hr6pBMhre-_-504" value="" style="rounded=0;whiteSpace=wrap;html=1;" vertex="1" parent="QewrAQwP1Hr6pBMhre-_-502">
          <mxGeometry width="430" height="100" as="geometry" />
        </mxCell>
        <mxCell id="QewrAQwP1Hr6pBMhre-_-505" value="&lt;font face=&quot;Garamond&quot;&gt;Special&lt;/font&gt;" style="text;html=1;align=center;verticalAlign=middle;whiteSpace=wrap;rounded=0;rotation=-90;" vertex="1" parent="QewrAQwP1Hr6pBMhre-_-502">
          <mxGeometry x="-9.5" y="32.210000000000036" width="60" height="30" as="geometry" />
        </mxCell>
        <mxCell id="QewrAQwP1Hr6pBMhre-_-506" value="" style="endArrow=diamondThin;html=1;rounded=0;shadow=0;glass=0;strokeColor=default;strokeWidth=1;align=center;verticalAlign=middle;fontFamily=Helvetica;fontSize=11;fontColor=default;fillColor=default;labelBackgroundColor=default;endFill=0;" edge="1" parent="QewrAQwP1Hr6pBMhre-_-502">
          <mxGeometry width="50" height="50" relative="1" as="geometry">
            <mxPoint x="52.5" y="23.440000000000055" as="sourcePoint" />
            <mxPoint x="216.5" y="23.440000000000055" as="targetPoint" />
          </mxGeometry>
        </mxCell>
        <mxCell id="QewrAQwP1Hr6pBMhre-_-507" value="" style="whiteSpace=wrap;html=1;aspect=fixed;rounded=0;shadow=0;glass=0;dashed=1;dashPattern=1 2;strokeColor=default;strokeWidth=0.25;align=center;verticalAlign=middle;fontFamily=Helvetica;fontSize=12;fontColor=default;fillColor=default;" vertex="1" parent="QewrAQwP1Hr6pBMhre-_-502">
          <mxGeometry x="324.5" y="8.440000000000055" width="15" height="15" as="geometry" />
        </mxCell>
        <mxCell id="QewrAQwP1Hr6pBMhre-_-508" value="" style="whiteSpace=wrap;html=1;aspect=fixed;rounded=0;shadow=0;glass=0;dashed=1;dashPattern=1 2;strokeColor=default;strokeWidth=0.25;align=center;verticalAlign=middle;fontFamily=Helvetica;fontSize=12;fontColor=default;fillColor=default;" vertex="1" parent="QewrAQwP1Hr6pBMhre-_-502">
          <mxGeometry x="364.5" y="8.440000000000055" width="15" height="15" as="geometry" />
        </mxCell>
        <mxCell id="QewrAQwP1Hr6pBMhre-_-509" value="" style="whiteSpace=wrap;html=1;aspect=fixed;rounded=0;shadow=0;glass=0;dashed=1;dashPattern=1 2;strokeColor=default;strokeWidth=0.25;align=center;verticalAlign=middle;fontFamily=Helvetica;fontSize=12;fontColor=default;fillColor=default;" vertex="1" parent="QewrAQwP1Hr6pBMhre-_-502">
          <mxGeometry x="384.5" y="8.440000000000055" width="15" height="15" as="geometry" />
        </mxCell>
        <mxCell id="QewrAQwP1Hr6pBMhre-_-510" value="" style="whiteSpace=wrap;html=1;aspect=fixed;rounded=0;shadow=0;glass=0;dashed=1;dashPattern=1 2;strokeColor=default;strokeWidth=0.25;align=center;verticalAlign=middle;fontFamily=Helvetica;fontSize=12;fontColor=default;fillColor=default;" vertex="1" parent="QewrAQwP1Hr6pBMhre-_-502">
          <mxGeometry x="404.5" y="8.440000000000055" width="15" height="15" as="geometry" />
        </mxCell>
        <mxCell id="QewrAQwP1Hr6pBMhre-_-511" value="" style="whiteSpace=wrap;html=1;aspect=fixed;rounded=0;shadow=0;glass=0;dashed=1;dashPattern=1 2;strokeColor=default;strokeWidth=0.25;align=center;verticalAlign=middle;fontFamily=Helvetica;fontSize=12;fontColor=default;fillColor=default;" vertex="1" parent="QewrAQwP1Hr6pBMhre-_-502">
          <mxGeometry x="224.5" y="8.440000000000055" width="15" height="15" as="geometry" />
        </mxCell>
        <mxCell id="QewrAQwP1Hr6pBMhre-_-512" value="" style="whiteSpace=wrap;html=1;aspect=fixed;rounded=0;shadow=0;glass=0;dashed=1;dashPattern=1 2;strokeColor=default;strokeWidth=0.25;align=center;verticalAlign=middle;fontFamily=Helvetica;fontSize=12;fontColor=default;fillColor=default;" vertex="1" parent="QewrAQwP1Hr6pBMhre-_-502">
          <mxGeometry x="244.5" y="8.440000000000055" width="15" height="15" as="geometry" />
        </mxCell>
        <mxCell id="QewrAQwP1Hr6pBMhre-_-513" value="" style="whiteSpace=wrap;html=1;aspect=fixed;rounded=0;shadow=0;glass=0;dashed=1;dashPattern=1 2;strokeColor=default;strokeWidth=0.25;align=center;verticalAlign=middle;fontFamily=Helvetica;fontSize=12;fontColor=default;fillColor=default;" vertex="1" parent="QewrAQwP1Hr6pBMhre-_-502">
          <mxGeometry x="264.5" y="8.440000000000055" width="15" height="15" as="geometry" />
        </mxCell>
        <mxCell id="QewrAQwP1Hr6pBMhre-_-514" value="" style="whiteSpace=wrap;html=1;aspect=fixed;rounded=0;shadow=0;glass=0;dashed=1;dashPattern=1 2;strokeColor=default;strokeWidth=0.25;align=center;verticalAlign=middle;fontFamily=Helvetica;fontSize=12;fontColor=default;fillColor=default;" vertex="1" parent="QewrAQwP1Hr6pBMhre-_-502">
          <mxGeometry x="284.5" y="8.440000000000055" width="15" height="15" as="geometry" />
        </mxCell>
        <mxCell id="QewrAQwP1Hr6pBMhre-_-515" value="" style="whiteSpace=wrap;html=1;aspect=fixed;rounded=0;shadow=0;glass=0;dashed=1;dashPattern=1 2;strokeColor=default;strokeWidth=0.25;align=center;verticalAlign=middle;fontFamily=Helvetica;fontSize=12;fontColor=default;fillColor=default;" vertex="1" parent="QewrAQwP1Hr6pBMhre-_-502">
          <mxGeometry x="304.5" y="8.440000000000055" width="15" height="15" as="geometry" />
        </mxCell>
        <mxCell id="QewrAQwP1Hr6pBMhre-_-516" value="" style="whiteSpace=wrap;html=1;aspect=fixed;rounded=0;shadow=0;glass=0;dashed=1;dashPattern=1 2;strokeColor=default;strokeWidth=0.25;align=center;verticalAlign=middle;fontFamily=Helvetica;fontSize=12;fontColor=default;fillColor=default;" vertex="1" parent="QewrAQwP1Hr6pBMhre-_-502">
          <mxGeometry x="344.5" y="8.440000000000055" width="15" height="15" as="geometry" />
        </mxCell>
        <mxCell id="QewrAQwP1Hr6pBMhre-_-517" value="&lt;font face=&quot;Garamond&quot;&gt;Name:&lt;/font&gt;" style="text;html=1;align=center;verticalAlign=middle;whiteSpace=wrap;rounded=0;fontSize=8;" vertex="1" parent="QewrAQwP1Hr6pBMhre-_-502">
          <mxGeometry x="49.5" y="11.720000000000027" width="27" height="12.56" as="geometry" />
        </mxCell>
        <mxCell id="QewrAQwP1Hr6pBMhre-_-518" value="" style="endArrow=none;html=1;rounded=0;exitX=0.091;exitY=1.006;exitDx=0;exitDy=0;exitPerimeter=0;entryX=0.086;entryY=0.003;entryDx=0;entryDy=0;entryPerimeter=0;" edge="1" parent="QewrAQwP1Hr6pBMhre-_-502" source="QewrAQwP1Hr6pBMhre-_-504">
          <mxGeometry width="50" height="50" relative="1" as="geometry">
            <mxPoint x="40" y="89.69000000000005" as="sourcePoint" />
            <mxPoint x="39.25" as="targetPoint" />
          </mxGeometry>
        </mxCell>
        <mxCell id="QewrAQwP1Hr6pBMhre-_-519" value="" style="endArrow=none;html=1;rounded=0;" edge="1" parent="QewrAQwP1Hr6pBMhre-_-502">
          <mxGeometry width="50" height="50" relative="1" as="geometry">
            <mxPoint x="39.5" y="30.440000000000055" as="sourcePoint" />
            <mxPoint x="429.5" y="30.440000000000055" as="targetPoint" />
          </mxGeometry>
        </mxCell>
        <mxCell id="QewrAQwP1Hr6pBMhre-_-520" value="" style="endArrow=none;html=1;rounded=0;exitX=0.257;exitY=1.004;exitDx=0;exitDy=0;exitPerimeter=0;" edge="1" parent="QewrAQwP1Hr6pBMhre-_-502" source="QewrAQwP1Hr6pBMhre-_-504">
          <mxGeometry width="50" height="50" relative="1" as="geometry">
            <mxPoint x="110.5" y="90" as="sourcePoint" />
            <mxPoint x="110.5" y="30.440000000000055" as="targetPoint" />
          </mxGeometry>
        </mxCell>
        <mxCell id="QewrAQwP1Hr6pBMhre-_-521" value="" style="endArrow=none;html=1;rounded=0;exitX=0.44;exitY=1.003;exitDx=0;exitDy=0;exitPerimeter=0;" edge="1" parent="QewrAQwP1Hr6pBMhre-_-502" source="QewrAQwP1Hr6pBMhre-_-504">
          <mxGeometry width="50" height="50" relative="1" as="geometry">
            <mxPoint x="189.5" y="90" as="sourcePoint" />
            <mxPoint x="189.25" y="30" as="targetPoint" />
          </mxGeometry>
        </mxCell>
        <mxCell id="QewrAQwP1Hr6pBMhre-_-522" value="" style="endArrow=none;html=1;rounded=0;exitX=0.632;exitY=1.001;exitDx=0;exitDy=0;fontStyle=1;exitPerimeter=0;" edge="1" parent="QewrAQwP1Hr6pBMhre-_-502" source="QewrAQwP1Hr6pBMhre-_-504">
          <mxGeometry width="50" height="50" relative="1" as="geometry">
            <mxPoint x="271.8600000000001" y="90" as="sourcePoint" />
            <mxPoint x="271.25" y="30" as="targetPoint" />
          </mxGeometry>
        </mxCell>
        <mxCell id="QewrAQwP1Hr6pBMhre-_-523" value="" style="endArrow=none;html=1;rounded=0;exitX=0.818;exitY=1.003;exitDx=0;exitDy=0;exitPerimeter=0;" edge="1" parent="QewrAQwP1Hr6pBMhre-_-502" source="QewrAQwP1Hr6pBMhre-_-504">
          <mxGeometry width="50" height="50" relative="1" as="geometry">
            <mxPoint x="351.8600000000001" y="90" as="sourcePoint" />
            <mxPoint x="351.8600000000001" y="30.440000000000055" as="targetPoint" />
          </mxGeometry>
        </mxCell>
        <mxCell id="QewrAQwP1Hr6pBMhre-_-524" value="&lt;font face=&quot;Garamond&quot;&gt;Cost&lt;/font&gt;" style="text;html=1;align=center;verticalAlign=middle;whiteSpace=wrap;rounded=0;" vertex="1" parent="QewrAQwP1Hr6pBMhre-_-502">
          <mxGeometry x="44.25" y="32.210000000000036" width="60" height="30" as="geometry" />
        </mxCell>
        <mxCell id="QewrAQwP1Hr6pBMhre-_-525" value="" style="endArrow=diamondThin;html=1;rounded=0;shadow=0;glass=0;strokeColor=default;strokeWidth=1;align=center;verticalAlign=middle;fontFamily=Helvetica;fontSize=12;fontColor=default;fillColor=default;startArrow=diamondThin;startFill=0;endFill=0;" edge="1" parent="QewrAQwP1Hr6pBMhre-_-502">
          <mxGeometry width="50" height="50" relative="1" as="geometry">
            <mxPoint x="57.75" y="92.21000000000004" as="sourcePoint" />
            <mxPoint x="92.75" y="92.21000000000004" as="targetPoint" />
          </mxGeometry>
        </mxCell>
        <mxCell id="QewrAQwP1Hr6pBMhre-_-526" value="" style="group" vertex="1" connectable="0" parent="QewrAQwP1Hr6pBMhre-_-550">
          <mxGeometry x="3" y="500" width="430" height="100" as="geometry" />
        </mxCell>
        <mxCell id="QewrAQwP1Hr6pBMhre-_-527" value="" style="endArrow=none;html=1;rounded=0;exitX=0;exitY=0.25;exitDx=0;exitDy=0;entryX=0;entryY=0.25;entryDx=0;entryDy=0;strokeWidth=1;" edge="1" parent="QewrAQwP1Hr6pBMhre-_-526">
          <mxGeometry width="50" height="50" relative="1" as="geometry">
            <mxPoint y="1.4400000000000546" as="sourcePoint" />
            <mxPoint x="430" y="1.4400000000000546" as="targetPoint" />
          </mxGeometry>
        </mxCell>
        <mxCell id="QewrAQwP1Hr6pBMhre-_-528" value="" style="rounded=0;whiteSpace=wrap;html=1;" vertex="1" parent="QewrAQwP1Hr6pBMhre-_-526">
          <mxGeometry width="430" height="100" as="geometry" />
        </mxCell>
        <mxCell id="QewrAQwP1Hr6pBMhre-_-529" value="&lt;font face=&quot;Garamond&quot;&gt;Special&lt;/font&gt;" style="text;html=1;align=center;verticalAlign=middle;whiteSpace=wrap;rounded=0;rotation=-90;" vertex="1" parent="QewrAQwP1Hr6pBMhre-_-526">
          <mxGeometry x="-9.5" y="32.210000000000036" width="60" height="30" as="geometry" />
        </mxCell>
        <mxCell id="QewrAQwP1Hr6pBMhre-_-530" value="" style="endArrow=diamondThin;html=1;rounded=0;shadow=0;glass=0;strokeColor=default;strokeWidth=1;align=center;verticalAlign=middle;fontFamily=Helvetica;fontSize=11;fontColor=default;fillColor=default;labelBackgroundColor=default;endFill=0;" edge="1" parent="QewrAQwP1Hr6pBMhre-_-526">
          <mxGeometry width="50" height="50" relative="1" as="geometry">
            <mxPoint x="52.5" y="23.440000000000055" as="sourcePoint" />
            <mxPoint x="216.5" y="23.440000000000055" as="targetPoint" />
          </mxGeometry>
        </mxCell>
        <mxCell id="QewrAQwP1Hr6pBMhre-_-531" value="" style="whiteSpace=wrap;html=1;aspect=fixed;rounded=0;shadow=0;glass=0;dashed=1;dashPattern=1 2;strokeColor=default;strokeWidth=0.25;align=center;verticalAlign=middle;fontFamily=Helvetica;fontSize=12;fontColor=default;fillColor=default;" vertex="1" parent="QewrAQwP1Hr6pBMhre-_-526">
          <mxGeometry x="324.5" y="8.440000000000055" width="15" height="15" as="geometry" />
        </mxCell>
        <mxCell id="QewrAQwP1Hr6pBMhre-_-532" value="" style="whiteSpace=wrap;html=1;aspect=fixed;rounded=0;shadow=0;glass=0;dashed=1;dashPattern=1 2;strokeColor=default;strokeWidth=0.25;align=center;verticalAlign=middle;fontFamily=Helvetica;fontSize=12;fontColor=default;fillColor=default;" vertex="1" parent="QewrAQwP1Hr6pBMhre-_-526">
          <mxGeometry x="364.5" y="8.440000000000055" width="15" height="15" as="geometry" />
        </mxCell>
        <mxCell id="QewrAQwP1Hr6pBMhre-_-533" value="" style="whiteSpace=wrap;html=1;aspect=fixed;rounded=0;shadow=0;glass=0;dashed=1;dashPattern=1 2;strokeColor=default;strokeWidth=0.25;align=center;verticalAlign=middle;fontFamily=Helvetica;fontSize=12;fontColor=default;fillColor=default;" vertex="1" parent="QewrAQwP1Hr6pBMhre-_-526">
          <mxGeometry x="384.5" y="8.440000000000055" width="15" height="15" as="geometry" />
        </mxCell>
        <mxCell id="QewrAQwP1Hr6pBMhre-_-534" value="" style="whiteSpace=wrap;html=1;aspect=fixed;rounded=0;shadow=0;glass=0;dashed=1;dashPattern=1 2;strokeColor=default;strokeWidth=0.25;align=center;verticalAlign=middle;fontFamily=Helvetica;fontSize=12;fontColor=default;fillColor=default;" vertex="1" parent="QewrAQwP1Hr6pBMhre-_-526">
          <mxGeometry x="404.5" y="8.440000000000055" width="15" height="15" as="geometry" />
        </mxCell>
        <mxCell id="QewrAQwP1Hr6pBMhre-_-535" value="" style="whiteSpace=wrap;html=1;aspect=fixed;rounded=0;shadow=0;glass=0;dashed=1;dashPattern=1 2;strokeColor=default;strokeWidth=0.25;align=center;verticalAlign=middle;fontFamily=Helvetica;fontSize=12;fontColor=default;fillColor=default;" vertex="1" parent="QewrAQwP1Hr6pBMhre-_-526">
          <mxGeometry x="224.5" y="8.440000000000055" width="15" height="15" as="geometry" />
        </mxCell>
        <mxCell id="QewrAQwP1Hr6pBMhre-_-536" value="" style="whiteSpace=wrap;html=1;aspect=fixed;rounded=0;shadow=0;glass=0;dashed=1;dashPattern=1 2;strokeColor=default;strokeWidth=0.25;align=center;verticalAlign=middle;fontFamily=Helvetica;fontSize=12;fontColor=default;fillColor=default;" vertex="1" parent="QewrAQwP1Hr6pBMhre-_-526">
          <mxGeometry x="244.5" y="8.440000000000055" width="15" height="15" as="geometry" />
        </mxCell>
        <mxCell id="QewrAQwP1Hr6pBMhre-_-537" value="" style="whiteSpace=wrap;html=1;aspect=fixed;rounded=0;shadow=0;glass=0;dashed=1;dashPattern=1 2;strokeColor=default;strokeWidth=0.25;align=center;verticalAlign=middle;fontFamily=Helvetica;fontSize=12;fontColor=default;fillColor=default;" vertex="1" parent="QewrAQwP1Hr6pBMhre-_-526">
          <mxGeometry x="264.5" y="8.440000000000055" width="15" height="15" as="geometry" />
        </mxCell>
        <mxCell id="QewrAQwP1Hr6pBMhre-_-538" value="" style="whiteSpace=wrap;html=1;aspect=fixed;rounded=0;shadow=0;glass=0;dashed=1;dashPattern=1 2;strokeColor=default;strokeWidth=0.25;align=center;verticalAlign=middle;fontFamily=Helvetica;fontSize=12;fontColor=default;fillColor=default;" vertex="1" parent="QewrAQwP1Hr6pBMhre-_-526">
          <mxGeometry x="284.5" y="8.440000000000055" width="15" height="15" as="geometry" />
        </mxCell>
        <mxCell id="QewrAQwP1Hr6pBMhre-_-539" value="" style="whiteSpace=wrap;html=1;aspect=fixed;rounded=0;shadow=0;glass=0;dashed=1;dashPattern=1 2;strokeColor=default;strokeWidth=0.25;align=center;verticalAlign=middle;fontFamily=Helvetica;fontSize=12;fontColor=default;fillColor=default;" vertex="1" parent="QewrAQwP1Hr6pBMhre-_-526">
          <mxGeometry x="304.5" y="8.440000000000055" width="15" height="15" as="geometry" />
        </mxCell>
        <mxCell id="QewrAQwP1Hr6pBMhre-_-540" value="" style="whiteSpace=wrap;html=1;aspect=fixed;rounded=0;shadow=0;glass=0;dashed=1;dashPattern=1 2;strokeColor=default;strokeWidth=0.25;align=center;verticalAlign=middle;fontFamily=Helvetica;fontSize=12;fontColor=default;fillColor=default;" vertex="1" parent="QewrAQwP1Hr6pBMhre-_-526">
          <mxGeometry x="344.5" y="8.440000000000055" width="15" height="15" as="geometry" />
        </mxCell>
        <mxCell id="QewrAQwP1Hr6pBMhre-_-541" value="&lt;font face=&quot;Garamond&quot;&gt;Name:&lt;/font&gt;" style="text;html=1;align=center;verticalAlign=middle;whiteSpace=wrap;rounded=0;fontSize=8;" vertex="1" parent="QewrAQwP1Hr6pBMhre-_-526">
          <mxGeometry x="49.5" y="11.720000000000027" width="27" height="12.56" as="geometry" />
        </mxCell>
        <mxCell id="QewrAQwP1Hr6pBMhre-_-542" value="" style="endArrow=none;html=1;rounded=0;exitX=0.091;exitY=1.006;exitDx=0;exitDy=0;exitPerimeter=0;entryX=0.086;entryY=0.003;entryDx=0;entryDy=0;entryPerimeter=0;" edge="1" parent="QewrAQwP1Hr6pBMhre-_-526" source="QewrAQwP1Hr6pBMhre-_-528">
          <mxGeometry width="50" height="50" relative="1" as="geometry">
            <mxPoint x="40" y="89.69000000000005" as="sourcePoint" />
            <mxPoint x="39.25" as="targetPoint" />
          </mxGeometry>
        </mxCell>
        <mxCell id="QewrAQwP1Hr6pBMhre-_-543" value="" style="endArrow=none;html=1;rounded=0;" edge="1" parent="QewrAQwP1Hr6pBMhre-_-526">
          <mxGeometry width="50" height="50" relative="1" as="geometry">
            <mxPoint x="39.5" y="30.440000000000055" as="sourcePoint" />
            <mxPoint x="429.5" y="30.440000000000055" as="targetPoint" />
          </mxGeometry>
        </mxCell>
        <mxCell id="QewrAQwP1Hr6pBMhre-_-544" value="" style="endArrow=none;html=1;rounded=0;exitX=0.257;exitY=1.004;exitDx=0;exitDy=0;exitPerimeter=0;" edge="1" parent="QewrAQwP1Hr6pBMhre-_-526" source="QewrAQwP1Hr6pBMhre-_-528">
          <mxGeometry width="50" height="50" relative="1" as="geometry">
            <mxPoint x="110.5" y="90" as="sourcePoint" />
            <mxPoint x="110.5" y="30.440000000000055" as="targetPoint" />
          </mxGeometry>
        </mxCell>
        <mxCell id="QewrAQwP1Hr6pBMhre-_-545" value="" style="endArrow=none;html=1;rounded=0;exitX=0.44;exitY=1.003;exitDx=0;exitDy=0;exitPerimeter=0;" edge="1" parent="QewrAQwP1Hr6pBMhre-_-526" source="QewrAQwP1Hr6pBMhre-_-528">
          <mxGeometry width="50" height="50" relative="1" as="geometry">
            <mxPoint x="189.5" y="90" as="sourcePoint" />
            <mxPoint x="189.25" y="30" as="targetPoint" />
          </mxGeometry>
        </mxCell>
        <mxCell id="QewrAQwP1Hr6pBMhre-_-546" value="" style="endArrow=none;html=1;rounded=0;exitX=0.632;exitY=1.001;exitDx=0;exitDy=0;fontStyle=1;exitPerimeter=0;" edge="1" parent="QewrAQwP1Hr6pBMhre-_-526" source="QewrAQwP1Hr6pBMhre-_-528">
          <mxGeometry width="50" height="50" relative="1" as="geometry">
            <mxPoint x="271.8600000000001" y="90" as="sourcePoint" />
            <mxPoint x="271.25" y="30" as="targetPoint" />
          </mxGeometry>
        </mxCell>
        <mxCell id="QewrAQwP1Hr6pBMhre-_-547" value="" style="endArrow=none;html=1;rounded=0;exitX=0.818;exitY=1.003;exitDx=0;exitDy=0;exitPerimeter=0;" edge="1" parent="QewrAQwP1Hr6pBMhre-_-526" source="QewrAQwP1Hr6pBMhre-_-528">
          <mxGeometry width="50" height="50" relative="1" as="geometry">
            <mxPoint x="351.8600000000001" y="90" as="sourcePoint" />
            <mxPoint x="351.8600000000001" y="30.440000000000055" as="targetPoint" />
          </mxGeometry>
        </mxCell>
        <mxCell id="QewrAQwP1Hr6pBMhre-_-548" value="&lt;font face=&quot;Garamond&quot;&gt;Cost&lt;/font&gt;" style="text;html=1;align=center;verticalAlign=middle;whiteSpace=wrap;rounded=0;" vertex="1" parent="QewrAQwP1Hr6pBMhre-_-526">
          <mxGeometry x="44.25" y="32.210000000000036" width="60" height="30" as="geometry" />
        </mxCell>
        <mxCell id="QewrAQwP1Hr6pBMhre-_-549" value="" style="endArrow=diamondThin;html=1;rounded=0;shadow=0;glass=0;strokeColor=default;strokeWidth=1;align=center;verticalAlign=middle;fontFamily=Helvetica;fontSize=12;fontColor=default;fillColor=default;startArrow=diamondThin;startFill=0;endFill=0;" edge="1" parent="QewrAQwP1Hr6pBMhre-_-526">
          <mxGeometry width="50" height="50" relative="1" as="geometry">
            <mxPoint x="57.75" y="92.21000000000004" as="sourcePoint" />
            <mxPoint x="92.75" y="92.21000000000004" as="targetPoint" />
          </mxGeometry>
        </mxCell>
        <mxCell id="QewrAQwP1Hr6pBMhre-_-580" value="" style="rounded=0;whiteSpace=wrap;html=1;" vertex="1" parent="1">
          <mxGeometry x="1062" y="638" width="430" height="68" as="geometry" />
        </mxCell>
        <mxCell id="QewrAQwP1Hr6pBMhre-_-581" value="&lt;font face=&quot;Garamond&quot;&gt;Move&lt;/font&gt;" style="text;html=1;align=center;verticalAlign=middle;whiteSpace=wrap;rounded=0;rotation=-90;" vertex="1" parent="1">
          <mxGeometry x="1052.5" y="656.21" width="60" height="30" as="geometry" />
        </mxCell>
        <mxCell id="QewrAQwP1Hr6pBMhre-_-594" value="" style="endArrow=none;html=1;rounded=0;exitX=0.091;exitY=1.006;exitDx=0;exitDy=0;exitPerimeter=0;entryX=0.086;entryY=0.003;entryDx=0;entryDy=0;entryPerimeter=0;" edge="1" parent="1" source="QewrAQwP1Hr6pBMhre-_-580">
          <mxGeometry width="50" height="50" relative="1" as="geometry">
            <mxPoint x="1102" y="727.69" as="sourcePoint" />
            <mxPoint x="1101.25" y="638" as="targetPoint" />
          </mxGeometry>
        </mxCell>
        <mxCell id="QewrAQwP1Hr6pBMhre-_-596" value="" style="endArrow=none;html=1;rounded=0;exitX=0.257;exitY=1.004;exitDx=0;exitDy=0;exitPerimeter=0;" edge="1" parent="1" source="QewrAQwP1Hr6pBMhre-_-580">
          <mxGeometry width="50" height="50" relative="1" as="geometry">
            <mxPoint x="1172.5" y="696" as="sourcePoint" />
            <mxPoint x="1172.5" y="636.44" as="targetPoint" />
          </mxGeometry>
        </mxCell>
        <mxCell id="QewrAQwP1Hr6pBMhre-_-597" value="" style="endArrow=none;html=1;rounded=0;exitX=0.44;exitY=1.003;exitDx=0;exitDy=0;exitPerimeter=0;" edge="1" parent="1" source="QewrAQwP1Hr6pBMhre-_-580">
          <mxGeometry width="50" height="50" relative="1" as="geometry">
            <mxPoint x="1251.5" y="696" as="sourcePoint" />
            <mxPoint x="1251.25" y="636" as="targetPoint" />
          </mxGeometry>
        </mxCell>
        <mxCell id="QewrAQwP1Hr6pBMhre-_-598" value="" style="endArrow=none;html=1;rounded=0;exitX=0.632;exitY=1.001;exitDx=0;exitDy=0;fontStyle=1;exitPerimeter=0;" edge="1" parent="1" source="QewrAQwP1Hr6pBMhre-_-580">
          <mxGeometry width="50" height="50" relative="1" as="geometry">
            <mxPoint x="1333.8600000000001" y="696" as="sourcePoint" />
            <mxPoint x="1333.25" y="636" as="targetPoint" />
          </mxGeometry>
        </mxCell>
        <mxCell id="QewrAQwP1Hr6pBMhre-_-599" value="" style="endArrow=none;html=1;rounded=0;exitX=0.818;exitY=1.003;exitDx=0;exitDy=0;exitPerimeter=0;" edge="1" parent="1" source="QewrAQwP1Hr6pBMhre-_-580">
          <mxGeometry width="50" height="50" relative="1" as="geometry">
            <mxPoint x="1413.8600000000001" y="696" as="sourcePoint" />
            <mxPoint x="1413.8600000000001" y="636.44" as="targetPoint" />
          </mxGeometry>
        </mxCell>
        <mxCell id="QewrAQwP1Hr6pBMhre-_-600" value="&lt;font face=&quot;Garamond&quot;&gt;Cost&lt;/font&gt;" style="text;html=1;align=center;verticalAlign=middle;whiteSpace=wrap;rounded=0;" vertex="1" parent="1">
          <mxGeometry x="1106.25" y="638.21" width="60" height="30" as="geometry" />
        </mxCell>
        <mxCell id="QewrAQwP1Hr6pBMhre-_-601" value="" style="endArrow=diamondThin;html=1;rounded=0;shadow=0;glass=0;strokeColor=default;strokeWidth=1;align=center;verticalAlign=middle;fontFamily=Helvetica;fontSize=12;fontColor=default;fillColor=default;startArrow=diamondThin;startFill=0;endFill=0;" edge="1" parent="1">
          <mxGeometry width="50" height="50" relative="1" as="geometry">
            <mxPoint x="1119.75" y="698.21" as="sourcePoint" />
            <mxPoint x="1154.75" y="698.21" as="targetPoint" />
          </mxGeometry>
        </mxCell>
        <mxCell id="QewrAQwP1Hr6pBMhre-_-602" style="edgeStyle=orthogonalEdgeStyle;rounded=0;orthogonalLoop=1;jettySize=auto;html=1;exitX=0.5;exitY=1;exitDx=0;exitDy=0;" edge="1" parent="1" source="QewrAQwP1Hr6pBMhre-_-580" target="QewrAQwP1Hr6pBMhre-_-580">
          <mxGeometry relative="1" as="geometry" />
        </mxCell>
        <mxCell id="QewrAQwP1Hr6pBMhre-_-604" value="&lt;font style=&quot;font-size: 24px;&quot; face=&quot;Garamond&quot;&gt;1&lt;/font&gt;" style="text;html=1;align=center;verticalAlign=middle;whiteSpace=wrap;rounded=0;fontSize=8;" vertex="1" parent="1">
          <mxGeometry x="1122.75" y="680.21" width="29" height="10.44" as="geometry" />
        </mxCell>
      </root>
    </mxGraphModel>
  </diagram>
</mxfile>
